<mxfile host="app.diagrams.net" modified="2023-12-16T12:58:15.219Z" agent="Mozilla/5.0 (Macintosh; Intel Mac OS X 10_15_7) AppleWebKit/537.36 (KHTML, like Gecko) Chrome/119.0.0.0 Safari/537.36" etag="c2qYgkP3NXNXmbmlZWSM" version="22.1.11" type="github" pages="6">
  <diagram id="6a731a19-8d31-9384-78a2-239565b7b9f0" name="treasure_map">
    <mxGraphModel dx="1194" dy="642" grid="1" gridSize="10" guides="1" tooltips="1" connect="1" arrows="1" fold="1" page="1" pageScale="1" pageWidth="1169" pageHeight="827" background="none" math="0" shadow="0">
      <root>
        <mxCell id="0" />
        <mxCell id="1" parent="0" />
        <mxCell id="jV3CvrR5d3xSz-VQ1t2--1779" value="&lt;h1&gt;Treasure Map&lt;/h1&gt;&lt;p&gt;ここは心理学の道具箱。&lt;br&gt;状況に合わせたmapを複製して&lt;br&gt;無限の方略を作ろう&lt;/p&gt;" style="text;html=1;strokeColor=none;fillColor=none;spacing=5;spacingTop=-20;whiteSpace=wrap;overflow=hidden;rounded=0;" parent="1" vertex="1">
          <mxGeometry x="10" y="40" width="190" height="120" as="geometry" />
        </mxCell>
        <mxCell id="WNnYi6Bnvo4G8vlvPREg-1797" value="デバフ" style="rounded=1;whiteSpace=wrap;html=1;shadow=0;labelBackgroundColor=none;strokeColor=none;strokeWidth=3;fillColor=#12aab5;fontFamily=Helvetica;fontSize=14;fontColor=#FFFFFF;align=center;spacing=5;fontStyle=1;arcSize=7;perimeterSpacing=2;" parent="1" vertex="1">
          <mxGeometry x="850" y="39.999999999999886" width="150" height="60" as="geometry" />
        </mxCell>
        <mxCell id="WNnYi6Bnvo4G8vlvPREg-1799" value="" style="rounded=1;whiteSpace=wrap;html=1;shadow=0;labelBackgroundColor=none;strokeColor=none;strokeWidth=3;fillColor=#61c6ce;fontFamily=Helvetica;fontSize=14;fontColor=#FFFFFF;align=center;spacing=5;fontStyle=0;arcSize=7;perimeterSpacing=2;" parent="1" vertex="1">
          <mxGeometry x="850" y="120.5" width="150" height="60" as="geometry" />
        </mxCell>
        <mxCell id="WNnYi6Bnvo4G8vlvPREg-1800" value="好感度向上" style="rounded=1;whiteSpace=wrap;html=1;shadow=0;labelBackgroundColor=none;strokeColor=none;strokeWidth=3;fillColor=#F08705;fontFamily=Helvetica;fontSize=14;fontColor=#FFFFFF;align=center;spacing=5;fontStyle=1;arcSize=7;perimeterSpacing=2;" parent="1" vertex="1">
          <mxGeometry x="370" y="40" width="150" height="60" as="geometry" />
        </mxCell>
        <mxCell id="WNnYi6Bnvo4G8vlvPREg-1801" value="現状維持" style="rounded=1;whiteSpace=wrap;html=1;shadow=0;labelBackgroundColor=none;strokeColor=none;strokeWidth=3;fillColor=#1699d3;fontFamily=Helvetica;fontSize=14;fontColor=#FFFFFF;align=center;spacing=5;fontStyle=1;arcSize=7;perimeterSpacing=2;" parent="1" vertex="1">
          <mxGeometry x="210" y="120" width="150" height="60" as="geometry" />
        </mxCell>
        <mxCell id="WNnYi6Bnvo4G8vlvPREg-1802" value="&lt;font style=&quot;font-size: 14px;&quot;&gt;ブランド&lt;/font&gt;" style="rounded=1;whiteSpace=wrap;html=1;shadow=0;labelBackgroundColor=none;strokeColor=none;strokeWidth=3;fillColor=#2F5B7C;fontFamily=Helvetica;fontSize=16;fontColor=#FFFFFF;align=center;fontStyle=1;spacing=5;arcSize=7;perimeterSpacing=2;" parent="1" vertex="1">
          <mxGeometry x="690" y="40" width="150" height="60" as="geometry" />
        </mxCell>
        <mxCell id="gITx9z_PQKIZZdAhaTfi-1759" value="行動の変更" style="rounded=1;whiteSpace=wrap;html=1;shadow=0;labelBackgroundColor=none;strokeColor=none;strokeWidth=3;fillColor=#e85642;fontFamily=Helvetica;fontSize=14;fontColor=#FFFFFF;align=center;spacing=5;fontStyle=1;arcSize=7;perimeterSpacing=2;" parent="1" vertex="1">
          <mxGeometry x="210" y="40" width="150" height="60" as="geometry" />
        </mxCell>
        <mxCell id="YfliR0bhEtSgLjte0KYL-1761" value="あいまいさ回避(言語)" style="swimlane;whiteSpace=wrap;html=1;" parent="1" vertex="1">
          <mxGeometry x="40" y="500" width="380" height="279.5" as="geometry" />
        </mxCell>
        <mxCell id="YfliR0bhEtSgLjte0KYL-1763" style="edgeStyle=orthogonalEdgeStyle;rounded=0;orthogonalLoop=1;jettySize=auto;html=1;" parent="YfliR0bhEtSgLjte0KYL-1761" source="YfliR0bhEtSgLjte0KYL-1764" edge="1">
          <mxGeometry relative="1" as="geometry">
            <mxPoint x="162" y="243" as="targetPoint" />
          </mxGeometry>
        </mxCell>
        <mxCell id="YfliR0bhEtSgLjte0KYL-1764" value="「不明です」&lt;br&gt;「30%ぐらいです」&lt;br&gt;現状維持" style="rounded=1;whiteSpace=wrap;html=1;shadow=0;labelBackgroundColor=none;strokeColor=none;strokeWidth=3;fillColor=#1699d3;fontFamily=Helvetica;fontSize=14;fontColor=#FFFFFF;align=center;spacing=5;fontStyle=1;arcSize=7;perimeterSpacing=2;" parent="YfliR0bhEtSgLjte0KYL-1761" vertex="1">
          <mxGeometry x="219" y="213" width="150" height="60" as="geometry" />
        </mxCell>
        <mxCell id="YfliR0bhEtSgLjte0KYL-1765" style="edgeStyle=orthogonalEdgeStyle;rounded=0;orthogonalLoop=1;jettySize=auto;html=1;entryX=0;entryY=0.5;entryDx=0;entryDy=0;" parent="YfliR0bhEtSgLjte0KYL-1761" target="YfliR0bhEtSgLjte0KYL-1764" edge="1">
          <mxGeometry relative="1" as="geometry">
            <mxPoint x="162" y="243" as="sourcePoint" />
          </mxGeometry>
        </mxCell>
        <mxCell id="YfliR0bhEtSgLjte0KYL-1766" style="edgeStyle=orthogonalEdgeStyle;rounded=0;orthogonalLoop=1;jettySize=auto;html=1;" parent="YfliR0bhEtSgLjte0KYL-1761" edge="1">
          <mxGeometry relative="1" as="geometry">
            <mxPoint x="85" y="184" as="sourcePoint" />
            <mxPoint x="85" y="211" as="targetPoint" />
          </mxGeometry>
        </mxCell>
        <mxCell id="YfliR0bhEtSgLjte0KYL-1768" style="edgeStyle=orthogonalEdgeStyle;rounded=0;orthogonalLoop=1;jettySize=auto;html=1;entryX=0.5;entryY=0;entryDx=0;entryDy=0;" parent="YfliR0bhEtSgLjte0KYL-1761" source="YfliR0bhEtSgLjte0KYL-1769" target="YfliR0bhEtSgLjte0KYL-1764" edge="1">
          <mxGeometry relative="1" as="geometry" />
        </mxCell>
        <mxCell id="YfliR0bhEtSgLjte0KYL-1769" value="結果がどうなるか&lt;br&gt;見込みがはっきりしない行動を本能的に心地悪く感じること" style="rounded=1;whiteSpace=wrap;html=1;shadow=0;labelBackgroundColor=none;strokeColor=none;strokeWidth=3;fillColor=#64bbe2;fontFamily=Helvetica;fontSize=14;fontColor=#FFFFFF;align=center;spacing=5;arcSize=7;perimeterSpacing=2;" parent="YfliR0bhEtSgLjte0KYL-1761" vertex="1">
          <mxGeometry x="219" y="33" width="150" height="149.5" as="geometry" />
        </mxCell>
        <mxCell id="YfliR0bhEtSgLjte0KYL-1770" value="言語" style="text;html=1;strokeColor=none;fillColor=none;align=center;verticalAlign=middle;whiteSpace=wrap;rounded=0;" parent="YfliR0bhEtSgLjte0KYL-1761" vertex="1">
          <mxGeometry x="160" y="213" width="60" height="30" as="geometry" />
        </mxCell>
        <mxCell id="8zx2KFzAG-iw0LaA0TS7-18" value="「確定演出」&lt;br style=&quot;border-color: var(--border-color);&quot;&gt;「100%」&lt;br style=&quot;border-color: var(--border-color);&quot;&gt;変革" style="rounded=1;whiteSpace=wrap;html=1;shadow=0;labelBackgroundColor=none;strokeColor=none;strokeWidth=3;fillColor=#e85642;fontFamily=Helvetica;fontSize=14;fontColor=#FFFFFF;align=center;spacing=5;fontStyle=1;arcSize=7;perimeterSpacing=2;" parent="YfliR0bhEtSgLjte0KYL-1761" vertex="1">
          <mxGeometry x="10" y="213" width="150" height="60" as="geometry" />
        </mxCell>
        <mxCell id="8zx2KFzAG-iw0LaA0TS7-19" value="" style="rounded=1;whiteSpace=wrap;html=1;shadow=0;labelBackgroundColor=none;strokeColor=none;strokeWidth=3;fillColor=#FCAD90;fontFamily=Helvetica;fontSize=14;fontColor=#FFFFFF;align=center;spacing=5;arcSize=7;perimeterSpacing=2;" parent="YfliR0bhEtSgLjte0KYL-1761" vertex="1">
          <mxGeometry x="10" y="34.5" width="150" height="148" as="geometry" />
        </mxCell>
        <mxCell id="YfliR0bhEtSgLjte0KYL-1771" value="アンカリング(数字)" style="swimlane;whiteSpace=wrap;html=1;" parent="1" vertex="1">
          <mxGeometry x="640" y="499.5" width="170" height="280" as="geometry" />
        </mxCell>
        <mxCell id="YfliR0bhEtSgLjte0KYL-1772" value="釘を刺す" style="rounded=1;whiteSpace=wrap;html=1;shadow=0;labelBackgroundColor=none;strokeColor=none;strokeWidth=3;fillColor=#B266FF;fontFamily=Helvetica;fontSize=14;fontColor=#FFFFFF;align=center;spacing=5;fontStyle=1;arcSize=7;perimeterSpacing=2;" parent="YfliR0bhEtSgLjte0KYL-1771" vertex="1">
          <mxGeometry x="10" y="207" width="150" height="60" as="geometry" />
        </mxCell>
        <mxCell id="YfliR0bhEtSgLjte0KYL-1773" style="edgeStyle=orthogonalEdgeStyle;rounded=0;orthogonalLoop=1;jettySize=auto;html=1;entryX=0.5;entryY=0;entryDx=0;entryDy=0;" parent="YfliR0bhEtSgLjte0KYL-1771" source="YfliR0bhEtSgLjte0KYL-1774" target="YfliR0bhEtSgLjte0KYL-1772" edge="1">
          <mxGeometry relative="1" as="geometry" />
        </mxCell>
        <mxCell id="YfliR0bhEtSgLjte0KYL-1774" value="初めに出した見積もりが誤りでもそれを基準に見積もること&lt;br&gt;&lt;br&gt;住居の買い手が最初に到着した住居の価格を基準に考えてしまうこと" style="rounded=1;whiteSpace=wrap;html=1;shadow=0;labelBackgroundColor=none;strokeColor=none;strokeWidth=3;fillColor=#CC99FF;fontFamily=Helvetica;fontSize=14;fontColor=#FFFFFF;align=center;spacing=5;arcSize=7;perimeterSpacing=2;" parent="YfliR0bhEtSgLjte0KYL-1771" vertex="1">
          <mxGeometry x="10" y="32" width="150" height="148" as="geometry" />
        </mxCell>
        <mxCell id="6f1NRzMg2CFPpkSIdht1-1758" value="任意選択" style="rounded=1;whiteSpace=wrap;html=1;shadow=0;labelBackgroundColor=none;strokeColor=none;strokeWidth=3;fillColor=#B266FF;fontFamily=Helvetica;fontSize=14;fontColor=#FFFFFF;align=center;spacing=5;fontStyle=1;arcSize=7;perimeterSpacing=2;" parent="1" vertex="1">
          <mxGeometry x="530" y="40" width="150" height="60" as="geometry" />
        </mxCell>
        <mxCell id="6f1NRzMg2CFPpkSIdht1-1759" value="デフォルト戦略" style="swimlane;whiteSpace=wrap;html=1;" parent="1" vertex="1">
          <mxGeometry x="440" y="499.5" width="170" height="280" as="geometry" />
        </mxCell>
        <mxCell id="6f1NRzMg2CFPpkSIdht1-1760" value="デフォルト変更" style="rounded=1;whiteSpace=wrap;html=1;shadow=0;labelBackgroundColor=none;strokeColor=none;strokeWidth=3;fillColor=#B266FF;fontFamily=Helvetica;fontSize=14;fontColor=#FFFFFF;align=center;spacing=5;fontStyle=1;arcSize=7;perimeterSpacing=2;" parent="6f1NRzMg2CFPpkSIdht1-1759" vertex="1">
          <mxGeometry x="10" y="207" width="150" height="60" as="geometry" />
        </mxCell>
        <mxCell id="6f1NRzMg2CFPpkSIdht1-1761" style="edgeStyle=orthogonalEdgeStyle;rounded=0;orthogonalLoop=1;jettySize=auto;html=1;entryX=0.5;entryY=0;entryDx=0;entryDy=0;" parent="6f1NRzMg2CFPpkSIdht1-1759" source="6f1NRzMg2CFPpkSIdht1-1762" target="6f1NRzMg2CFPpkSIdht1-1760" edge="1">
          <mxGeometry relative="1" as="geometry" />
        </mxCell>
        <mxCell id="6f1NRzMg2CFPpkSIdht1-1762" value="Google社内のカフェテリアで、ちょうど目線の高さにある商品を&lt;br style=&quot;border-color: var(--border-color);&quot;&gt;炭酸飲料から水に変えたところ、水を選ぶ方が47%も増加した&lt;br style=&quot;border-color: var(--border-color);&quot;&gt;&lt;br style=&quot;border-color: var(--border-color);&quot;&gt;Kuang 2012" style="rounded=1;whiteSpace=wrap;html=1;shadow=0;labelBackgroundColor=none;strokeColor=none;strokeWidth=3;fillColor=#CC99FF;fontFamily=Helvetica;fontSize=14;fontColor=#FFFFFF;align=center;spacing=5;arcSize=7;perimeterSpacing=2;" parent="6f1NRzMg2CFPpkSIdht1-1759" vertex="1">
          <mxGeometry x="10" y="32" width="150" height="148" as="geometry" />
        </mxCell>
        <mxCell id="Vos24qgJoec0rBhMU4s9-1756" value="" style="rounded=1;whiteSpace=wrap;html=1;shadow=0;labelBackgroundColor=none;strokeColor=none;strokeWidth=3;fillColor=#CC99FF;fontFamily=Helvetica;fontSize=14;fontColor=#FFFFFF;align=center;spacing=5;arcSize=7;perimeterSpacing=2;" parent="1" vertex="1">
          <mxGeometry x="530" y="120.5" width="150" height="60.5" as="geometry" />
        </mxCell>
        <mxCell id="cCoKXfCN3rFvN-aXgA61-1" value="注意バイアス(ネットワーク)" style="swimlane;whiteSpace=wrap;html=1;" parent="1" vertex="1">
          <mxGeometry x="840" y="499.5" width="170" height="280" as="geometry" />
        </mxCell>
        <mxCell id="cCoKXfCN3rFvN-aXgA61-2" value="マジカルバナナ" style="rounded=1;whiteSpace=wrap;html=1;shadow=0;labelBackgroundColor=none;strokeColor=none;strokeWidth=3;fillColor=#B266FF;fontFamily=Helvetica;fontSize=14;fontColor=#FFFFFF;align=center;spacing=5;fontStyle=1;arcSize=7;perimeterSpacing=2;" parent="cCoKXfCN3rFvN-aXgA61-1" vertex="1">
          <mxGeometry x="10" y="207" width="150" height="60" as="geometry" />
        </mxCell>
        <mxCell id="cCoKXfCN3rFvN-aXgA61-3" style="edgeStyle=orthogonalEdgeStyle;rounded=0;orthogonalLoop=1;jettySize=auto;html=1;entryX=0.5;entryY=0;entryDx=0;entryDy=0;" parent="cCoKXfCN3rFvN-aXgA61-1" source="cCoKXfCN3rFvN-aXgA61-4" target="cCoKXfCN3rFvN-aXgA61-2" edge="1">
          <mxGeometry relative="1" as="geometry" />
        </mxCell>
        <mxCell id="cCoKXfCN3rFvN-aXgA61-4" value="内面の状態によって周囲の注意の仕方が変わってしまうこと&lt;br&gt;&lt;br&gt;薬物依存の患者は望む望まないにかかわらず、薬物に関連する情報を選択する" style="rounded=1;whiteSpace=wrap;html=1;shadow=0;labelBackgroundColor=none;strokeColor=none;strokeWidth=3;fillColor=#CC99FF;fontFamily=Helvetica;fontSize=14;fontColor=#FFFFFF;align=center;spacing=5;arcSize=7;perimeterSpacing=2;" parent="cCoKXfCN3rFvN-aXgA61-1" vertex="1">
          <mxGeometry x="10" y="32" width="150" height="148" as="geometry" />
        </mxCell>
        <mxCell id="Gwtc1LJ7Undhp8DHnFEB-1" value="" style="rounded=1;whiteSpace=wrap;html=1;shadow=0;labelBackgroundColor=none;strokeColor=#E6E6E6;strokeWidth=3;fillColor=#E6E6E6;fontFamily=Helvetica;fontSize=14;fontColor=#FFFFFF;align=center;spacing=5;arcSize=7;perimeterSpacing=2;" parent="1" vertex="1">
          <mxGeometry x="1010" y="119.5" width="150" height="60.5" as="geometry" />
        </mxCell>
        <mxCell id="Gwtc1LJ7Undhp8DHnFEB-2" value="" style="rounded=1;whiteSpace=wrap;html=1;shadow=0;labelBackgroundColor=none;strokeColor=none;strokeWidth=3;fillColor=#CCCCCC;fontFamily=Helvetica;fontSize=14;fontColor=#FFFFFF;align=center;spacing=5;fontStyle=1;arcSize=7;perimeterSpacing=2;" parent="1" vertex="1">
          <mxGeometry x="1010" y="40" width="150" height="60" as="geometry" />
        </mxCell>
        <mxCell id="CWfgOFFLSN2SLDQis5Dd-1" value="威厳(ゆっくりしゃべる)" style="swimlane;whiteSpace=wrap;html=1;" parent="1" vertex="1">
          <mxGeometry x="440" y="200" width="170" height="280.5" as="geometry" />
        </mxCell>
        <mxCell id="CWfgOFFLSN2SLDQis5Dd-6" style="edgeStyle=orthogonalEdgeStyle;rounded=0;orthogonalLoop=1;jettySize=auto;html=1;entryX=0.5;entryY=0;entryDx=0;entryDy=0;" parent="CWfgOFFLSN2SLDQis5Dd-1" edge="1">
          <mxGeometry relative="1" as="geometry">
            <mxPoint x="85" y="182" as="sourcePoint" />
            <mxPoint x="85" y="212.5" as="targetPoint" />
          </mxGeometry>
        </mxCell>
        <mxCell id="8zx2KFzAG-iw0LaA0TS7-23" value="&lt;div style=&quot;border-color: var(--border-color);&quot;&gt;- 「沈黙」を選択 : 誠実性が上がる&lt;/div&gt;&lt;div style=&quot;border-color: var(--border-color);&quot;&gt;- 「多弁」を選択 : 誠実性が下がる&lt;/div&gt;" style="rounded=1;whiteSpace=wrap;html=1;shadow=0;labelBackgroundColor=none;strokeColor=none;strokeWidth=3;fillColor=#2F5B7C;fontFamily=Helvetica;fontSize=14;fontColor=#FFFFFF;align=center;spacing=5;arcSize=7;perimeterSpacing=2;" parent="CWfgOFFLSN2SLDQis5Dd-1" vertex="1">
          <mxGeometry x="10" y="30" width="150" height="148" as="geometry" />
        </mxCell>
        <mxCell id="8zx2KFzAG-iw0LaA0TS7-24" value="&lt;span style=&quot;font-weight: normal;&quot;&gt;&lt;font style=&quot;font-size: 14px;&quot;&gt;＜ゆっくりしゃべる＞誠実性/威厳&lt;/font&gt;&lt;/span&gt;" style="rounded=1;whiteSpace=wrap;html=1;shadow=0;labelBackgroundColor=none;strokeColor=none;strokeWidth=3;fillColor=#2F5B7C;fontFamily=Helvetica;fontSize=16;fontColor=#FFFFFF;align=center;fontStyle=1;spacing=5;arcSize=7;perimeterSpacing=2;" parent="CWfgOFFLSN2SLDQis5Dd-1" vertex="1">
          <mxGeometry x="10" y="214" width="150" height="60" as="geometry" />
        </mxCell>
        <mxCell id="oyf0zvh0sAMY3noZJslP-5" value="プライミングによる（能力向上）" style="swimlane;whiteSpace=wrap;html=1;" parent="1" vertex="1">
          <mxGeometry x="40" y="800" width="380" height="279.5" as="geometry" />
        </mxCell>
        <mxCell id="oyf0zvh0sAMY3noZJslP-7" style="edgeStyle=orthogonalEdgeStyle;rounded=0;orthogonalLoop=1;jettySize=auto;html=1;" parent="oyf0zvh0sAMY3noZJslP-5" source="oyf0zvh0sAMY3noZJslP-8" edge="1">
          <mxGeometry relative="1" as="geometry">
            <mxPoint x="162" y="243" as="targetPoint" />
          </mxGeometry>
        </mxCell>
        <mxCell id="oyf0zvh0sAMY3noZJslP-8" value="能力ダウン" style="rounded=1;whiteSpace=wrap;html=1;shadow=0;labelBackgroundColor=none;strokeColor=none;strokeWidth=3;fillColor=#1699d3;fontFamily=Helvetica;fontSize=14;fontColor=#FFFFFF;align=center;spacing=5;fontStyle=1;arcSize=7;perimeterSpacing=2;" parent="oyf0zvh0sAMY3noZJslP-5" vertex="1">
          <mxGeometry x="219" y="213" width="150" height="60" as="geometry" />
        </mxCell>
        <mxCell id="oyf0zvh0sAMY3noZJslP-9" style="edgeStyle=orthogonalEdgeStyle;rounded=0;orthogonalLoop=1;jettySize=auto;html=1;entryX=0;entryY=0.5;entryDx=0;entryDy=0;" parent="oyf0zvh0sAMY3noZJslP-5" target="oyf0zvh0sAMY3noZJslP-8" edge="1">
          <mxGeometry relative="1" as="geometry">
            <mxPoint x="162" y="243" as="sourcePoint" />
          </mxGeometry>
        </mxCell>
        <mxCell id="oyf0zvh0sAMY3noZJslP-10" style="edgeStyle=orthogonalEdgeStyle;rounded=0;orthogonalLoop=1;jettySize=auto;html=1;" parent="oyf0zvh0sAMY3noZJslP-5" edge="1">
          <mxGeometry relative="1" as="geometry">
            <mxPoint x="85" y="184" as="sourcePoint" />
            <mxPoint x="85" y="211" as="targetPoint" />
          </mxGeometry>
        </mxCell>
        <mxCell id="oyf0zvh0sAMY3noZJslP-12" style="edgeStyle=orthogonalEdgeStyle;rounded=0;orthogonalLoop=1;jettySize=auto;html=1;entryX=0.5;entryY=0;entryDx=0;entryDy=0;" parent="oyf0zvh0sAMY3noZJslP-5" source="oyf0zvh0sAMY3noZJslP-13" target="oyf0zvh0sAMY3noZJslP-8" edge="1">
          <mxGeometry relative="1" as="geometry" />
        </mxCell>
        <mxCell id="oyf0zvh0sAMY3noZJslP-13" value="女性を三つのグループに分けて、「性別」に関する質問を行った。&lt;br&gt;&lt;br style=&quot;border-color: var(--border-color);&quot;&gt;すると、数学の成績が上がった（一般的に女性は数学が苦手と思われている）" style="rounded=1;whiteSpace=wrap;html=1;shadow=0;labelBackgroundColor=none;strokeColor=none;strokeWidth=3;fillColor=#64bbe2;fontFamily=Helvetica;fontSize=14;fontColor=#FFFFFF;align=center;spacing=5;arcSize=7;perimeterSpacing=2;" parent="oyf0zvh0sAMY3noZJslP-5" vertex="1">
          <mxGeometry x="219" y="33" width="150" height="149.5" as="geometry" />
        </mxCell>
        <mxCell id="oyf0zvh0sAMY3noZJslP-14" value="言語" style="text;html=1;strokeColor=none;fillColor=none;align=center;verticalAlign=middle;whiteSpace=wrap;rounded=0;" parent="oyf0zvh0sAMY3noZJslP-5" vertex="1">
          <mxGeometry x="160" y="213" width="60" height="30" as="geometry" />
        </mxCell>
        <mxCell id="8zx2KFzAG-iw0LaA0TS7-20" value="女性を三つのグループに分けて、「人種」に関する質問を行った。&lt;br style=&quot;border-color: var(--border-color);&quot;&gt;&lt;br style=&quot;border-color: var(--border-color);&quot;&gt;すると、数学の成績が上がった（人種と数学の成績には相関がない）" style="rounded=1;whiteSpace=wrap;html=1;shadow=0;labelBackgroundColor=none;strokeColor=none;strokeWidth=3;fillColor=#FCAD90;fontFamily=Helvetica;fontSize=14;fontColor=#FFFFFF;align=center;spacing=5;arcSize=7;perimeterSpacing=2;" parent="oyf0zvh0sAMY3noZJslP-5" vertex="1">
          <mxGeometry x="10" y="34.5" width="150" height="148" as="geometry" />
        </mxCell>
        <mxCell id="8zx2KFzAG-iw0LaA0TS7-21" value="能力アップ" style="rounded=1;whiteSpace=wrap;html=1;shadow=0;labelBackgroundColor=none;strokeColor=none;strokeWidth=3;fillColor=#e85642;fontFamily=Helvetica;fontSize=14;fontColor=#FFFFFF;align=center;spacing=5;fontStyle=1;arcSize=7;perimeterSpacing=2;" parent="oyf0zvh0sAMY3noZJslP-5" vertex="1">
          <mxGeometry x="10" y="213" width="150" height="60" as="geometry" />
        </mxCell>
        <mxCell id="HNqLQNwx-MG5eSBJAj62-1" value="質問の置き換え" style="swimlane;whiteSpace=wrap;html=1;" parent="1" vertex="1">
          <mxGeometry x="440" y="800" width="370" height="279.5" as="geometry" />
        </mxCell>
        <mxCell id="HNqLQNwx-MG5eSBJAj62-4" value="現状維持" style="rounded=1;whiteSpace=wrap;html=1;shadow=0;labelBackgroundColor=none;strokeColor=none;strokeWidth=3;fillColor=#1699d3;fontFamily=Helvetica;fontSize=14;fontColor=#FFFFFF;align=center;spacing=5;fontStyle=1;arcSize=7;perimeterSpacing=2;" parent="HNqLQNwx-MG5eSBJAj62-1" vertex="1">
          <mxGeometry x="210" y="213" width="150" height="60" as="geometry" />
        </mxCell>
        <mxCell id="HNqLQNwx-MG5eSBJAj62-8" style="edgeStyle=orthogonalEdgeStyle;rounded=0;orthogonalLoop=1;jettySize=auto;html=1;entryX=0.5;entryY=0;entryDx=0;entryDy=0;" parent="HNqLQNwx-MG5eSBJAj62-1" source="HNqLQNwx-MG5eSBJAj62-9" target="HNqLQNwx-MG5eSBJAj62-4" edge="1">
          <mxGeometry relative="1" as="geometry" />
        </mxCell>
        <mxCell id="HNqLQNwx-MG5eSBJAj62-9" value="無作為に選んだ人に&lt;br style=&quot;border-color: var(--border-color);&quot;&gt;１、「今幸せか？」を問いかける&lt;br style=&quot;border-color: var(--border-color);&quot;&gt;２、「デートの頻度」を問いかける&lt;br style=&quot;border-color: var(--border-color);&quot;&gt;二つの数字に相関はなかった。" style="rounded=1;whiteSpace=wrap;html=1;shadow=0;labelBackgroundColor=none;strokeColor=none;strokeWidth=3;fillColor=#64bbe2;fontFamily=Helvetica;fontSize=14;fontColor=#FFFFFF;align=center;spacing=5;arcSize=7;perimeterSpacing=2;" parent="HNqLQNwx-MG5eSBJAj62-1" vertex="1">
          <mxGeometry x="210" y="31.5" width="150" height="149.5" as="geometry" />
        </mxCell>
        <mxCell id="HNqLQNwx-MG5eSBJAj62-10" value="言語" style="text;html=1;strokeColor=none;fillColor=none;align=center;verticalAlign=middle;whiteSpace=wrap;rounded=0;" parent="HNqLQNwx-MG5eSBJAj62-1" vertex="1">
          <mxGeometry x="160" y="228" width="60" height="30" as="geometry" />
        </mxCell>
        <mxCell id="HNqLQNwx-MG5eSBJAj62-12" value="答えるのに苦労する質問は後に回すことで&lt;br style=&quot;border-color: var(--border-color);&quot;&gt;答えをコントロール" style="rounded=1;whiteSpace=wrap;html=1;shadow=0;labelBackgroundColor=none;strokeColor=none;strokeWidth=3;fillColor=#B266FF;fontFamily=Helvetica;fontSize=14;fontColor=#FFFFFF;align=center;spacing=5;fontStyle=1;arcSize=7;perimeterSpacing=2;" parent="HNqLQNwx-MG5eSBJAj62-1" vertex="1">
          <mxGeometry x="10" y="213" width="150" height="60" as="geometry" />
        </mxCell>
        <mxCell id="HNqLQNwx-MG5eSBJAj62-13" style="edgeStyle=orthogonalEdgeStyle;rounded=0;orthogonalLoop=1;jettySize=auto;html=1;" parent="HNqLQNwx-MG5eSBJAj62-1" source="HNqLQNwx-MG5eSBJAj62-11" target="HNqLQNwx-MG5eSBJAj62-12" edge="1">
          <mxGeometry relative="1" as="geometry" />
        </mxCell>
        <mxCell id="HNqLQNwx-MG5eSBJAj62-11" value="無作為に選んだ人に&lt;br style=&quot;border-color: var(--border-color);&quot;&gt;１、「デートの頻度」を問いかける&lt;br style=&quot;border-color: var(--border-color);&quot;&gt;２，「今幸せか？」を問いかける&lt;br style=&quot;border-color: var(--border-color);&quot;&gt;デートの頻度に比例して幸せ度合が増加した" style="rounded=1;whiteSpace=wrap;html=1;shadow=0;labelBackgroundColor=none;strokeColor=none;strokeWidth=3;fillColor=#CC99FF;fontFamily=Helvetica;fontSize=14;fontColor=#FFFFFF;align=center;spacing=5;arcSize=7;perimeterSpacing=2;" parent="HNqLQNwx-MG5eSBJAj62-1" vertex="1">
          <mxGeometry x="10" y="33" width="150" height="148" as="geometry" />
        </mxCell>
        <mxCell id="8zx2KFzAG-iw0LaA0TS7-1" value="威厳(ゆっくりしゃべる)" style="swimlane;whiteSpace=wrap;html=1;" parent="1" vertex="1">
          <mxGeometry x="1040" y="199.5" width="170" height="280" as="geometry" />
        </mxCell>
        <mxCell id="8zx2KFzAG-iw0LaA0TS7-2" style="edgeStyle=orthogonalEdgeStyle;rounded=0;orthogonalLoop=1;jettySize=auto;html=1;entryX=0.5;entryY=0;entryDx=0;entryDy=0;" parent="8zx2KFzAG-iw0LaA0TS7-1" source="8zx2KFzAG-iw0LaA0TS7-3" target="8zx2KFzAG-iw0LaA0TS7-4" edge="1">
          <mxGeometry relative="1" as="geometry" />
        </mxCell>
        <mxCell id="8zx2KFzAG-iw0LaA0TS7-3" value="&lt;div&gt;- 「沈黙」を選択 : 誠実性が上がる&lt;/div&gt;&lt;div&gt;- 「多弁」を選択 : 誠実性が下がる&lt;/div&gt;" style="rounded=1;whiteSpace=wrap;html=1;shadow=0;labelBackgroundColor=none;strokeColor=none;strokeWidth=3;fillColor=#FCAD90;fontFamily=Helvetica;fontSize=14;fontColor=#FFFFFF;align=center;spacing=5;arcSize=7;perimeterSpacing=2;" parent="8zx2KFzAG-iw0LaA0TS7-1" vertex="1">
          <mxGeometry x="10" y="32" width="150" height="148" as="geometry" />
        </mxCell>
        <mxCell id="8zx2KFzAG-iw0LaA0TS7-4" value="＜ゆっくりしゃべる＞&lt;br&gt;誠実性/威厳" style="rounded=1;whiteSpace=wrap;html=1;shadow=0;labelBackgroundColor=none;strokeColor=none;strokeWidth=3;fillColor=#e85642;fontFamily=Helvetica;fontSize=14;fontColor=#FFFFFF;align=center;spacing=5;fontStyle=1;arcSize=7;perimeterSpacing=2;" parent="8zx2KFzAG-iw0LaA0TS7-1" vertex="1">
          <mxGeometry x="10" y="214.5" width="150" height="60" as="geometry" />
        </mxCell>
        <mxCell id="8zx2KFzAG-iw0LaA0TS7-5" value="悔いなき選択(言語)" style="swimlane;whiteSpace=wrap;html=1;" parent="1" vertex="1">
          <mxGeometry x="40" y="200" width="380" height="279.5" as="geometry" />
        </mxCell>
        <mxCell id="8zx2KFzAG-iw0LaA0TS7-7" style="edgeStyle=orthogonalEdgeStyle;rounded=0;orthogonalLoop=1;jettySize=auto;html=1;" parent="8zx2KFzAG-iw0LaA0TS7-5" source="8zx2KFzAG-iw0LaA0TS7-8" edge="1">
          <mxGeometry relative="1" as="geometry">
            <mxPoint x="162" y="243" as="targetPoint" />
          </mxGeometry>
        </mxCell>
        <mxCell id="8zx2KFzAG-iw0LaA0TS7-8" value="「死亡率」&lt;br&gt;現状維持" style="rounded=1;whiteSpace=wrap;html=1;shadow=0;labelBackgroundColor=none;strokeColor=none;strokeWidth=3;fillColor=#1699d3;fontFamily=Helvetica;fontSize=14;fontColor=#FFFFFF;align=center;spacing=5;fontStyle=1;arcSize=7;perimeterSpacing=2;" parent="8zx2KFzAG-iw0LaA0TS7-5" vertex="1">
          <mxGeometry x="219" y="213" width="150" height="60" as="geometry" />
        </mxCell>
        <mxCell id="8zx2KFzAG-iw0LaA0TS7-9" style="edgeStyle=orthogonalEdgeStyle;rounded=0;orthogonalLoop=1;jettySize=auto;html=1;entryX=0;entryY=0.5;entryDx=0;entryDy=0;" parent="8zx2KFzAG-iw0LaA0TS7-5" target="8zx2KFzAG-iw0LaA0TS7-8" edge="1">
          <mxGeometry relative="1" as="geometry">
            <mxPoint x="162" y="243" as="sourcePoint" />
          </mxGeometry>
        </mxCell>
        <mxCell id="8zx2KFzAG-iw0LaA0TS7-12" style="edgeStyle=orthogonalEdgeStyle;rounded=0;orthogonalLoop=1;jettySize=auto;html=1;entryX=0.5;entryY=0;entryDx=0;entryDy=0;" parent="8zx2KFzAG-iw0LaA0TS7-5" source="8zx2KFzAG-iw0LaA0TS7-13" target="8zx2KFzAG-iw0LaA0TS7-8" edge="1">
          <mxGeometry relative="1" as="geometry" />
        </mxCell>
        <mxCell id="8zx2KFzAG-iw0LaA0TS7-13" value="" style="rounded=1;whiteSpace=wrap;html=1;shadow=0;labelBackgroundColor=none;strokeColor=none;strokeWidth=3;fillColor=#64bbe2;fontFamily=Helvetica;fontSize=14;fontColor=#FFFFFF;align=center;spacing=5;arcSize=7;perimeterSpacing=2;" parent="8zx2KFzAG-iw0LaA0TS7-5" vertex="1">
          <mxGeometry x="219" y="33" width="150" height="149.5" as="geometry" />
        </mxCell>
        <mxCell id="8zx2KFzAG-iw0LaA0TS7-14" value="言語" style="text;html=1;strokeColor=none;fillColor=none;align=center;verticalAlign=middle;whiteSpace=wrap;rounded=0;" parent="8zx2KFzAG-iw0LaA0TS7-5" vertex="1">
          <mxGeometry x="160" y="213" width="60" height="30" as="geometry" />
        </mxCell>
        <mxCell id="8zx2KFzAG-iw0LaA0TS7-17" style="edgeStyle=orthogonalEdgeStyle;rounded=0;orthogonalLoop=1;jettySize=auto;html=1;entryX=0.5;entryY=0;entryDx=0;entryDy=0;" parent="8zx2KFzAG-iw0LaA0TS7-5" source="8zx2KFzAG-iw0LaA0TS7-15" target="8zx2KFzAG-iw0LaA0TS7-16" edge="1">
          <mxGeometry relative="1" as="geometry" />
        </mxCell>
        <mxCell id="8zx2KFzAG-iw0LaA0TS7-15" value="癌の外科手術の効果について死亡率の代わりに生存率が示された場合、&lt;br style=&quot;border-color: var(--border-color);&quot;&gt;医師が手術を選択する割合は34%増加した&lt;br style=&quot;border-color: var(--border-color);&quot;&gt;McNeil 1982" style="rounded=1;whiteSpace=wrap;html=1;shadow=0;labelBackgroundColor=none;strokeColor=none;strokeWidth=3;fillColor=#FCAD90;fontFamily=Helvetica;fontSize=14;fontColor=#FFFFFF;align=center;spacing=5;arcSize=7;perimeterSpacing=2;" parent="8zx2KFzAG-iw0LaA0TS7-5" vertex="1">
          <mxGeometry x="10" y="34.5" width="150" height="148" as="geometry" />
        </mxCell>
        <mxCell id="8zx2KFzAG-iw0LaA0TS7-16" value="「生存率」&lt;br style=&quot;border-color: var(--border-color);&quot;&gt;変革" style="rounded=1;whiteSpace=wrap;html=1;shadow=0;labelBackgroundColor=none;strokeColor=none;strokeWidth=3;fillColor=#e85642;fontFamily=Helvetica;fontSize=14;fontColor=#FFFFFF;align=center;spacing=5;fontStyle=1;arcSize=7;perimeterSpacing=2;" parent="8zx2KFzAG-iw0LaA0TS7-5" vertex="1">
          <mxGeometry x="10" y="213" width="150" height="60" as="geometry" />
        </mxCell>
        <mxCell id="e5PQraWAcwBJ10CqqT7m-1" value="行動の一貫性" style="swimlane;whiteSpace=wrap;html=1;" parent="1" vertex="1">
          <mxGeometry x="840" y="200" width="170" height="280" as="geometry" />
        </mxCell>
        <mxCell id="e5PQraWAcwBJ10CqqT7m-2" style="edgeStyle=orthogonalEdgeStyle;rounded=0;orthogonalLoop=1;jettySize=auto;html=1;entryX=0.5;entryY=0;entryDx=0;entryDy=0;" parent="e5PQraWAcwBJ10CqqT7m-1" source="e5PQraWAcwBJ10CqqT7m-3" target="e5PQraWAcwBJ10CqqT7m-4" edge="1">
          <mxGeometry relative="1" as="geometry" />
        </mxCell>
        <mxCell id="e5PQraWAcwBJ10CqqT7m-3" value="質問をしてしまった" style="rounded=1;whiteSpace=wrap;html=1;shadow=0;labelBackgroundColor=none;strokeColor=none;strokeWidth=3;fillColor=#FCAD90;fontFamily=Helvetica;fontSize=14;fontColor=#FFFFFF;align=center;spacing=5;arcSize=7;perimeterSpacing=2;" parent="e5PQraWAcwBJ10CqqT7m-1" vertex="1">
          <mxGeometry x="10" y="32" width="150" height="148" as="geometry" />
        </mxCell>
        <mxCell id="e5PQraWAcwBJ10CqqT7m-4" value="自分の意図に沿わない行動をした後、&lt;br style=&quot;border-color: var(--border-color);&quot;&gt;その行動に合う認識にすり替える" style="rounded=1;whiteSpace=wrap;html=1;shadow=0;labelBackgroundColor=none;strokeColor=none;strokeWidth=3;fillColor=#e85642;fontFamily=Helvetica;fontSize=14;fontColor=#FFFFFF;align=center;spacing=5;fontStyle=1;arcSize=7;perimeterSpacing=2;" parent="e5PQraWAcwBJ10CqqT7m-1" vertex="1">
          <mxGeometry x="10" y="200" width="150" height="74.5" as="geometry" />
        </mxCell>
        <mxCell id="TS7yuXRs32aZA_9tLR4I-1" value="ミラーリング" style="swimlane;whiteSpace=wrap;html=1;" parent="1" vertex="1">
          <mxGeometry x="1040" y="499.5" width="170" height="279.5" as="geometry" />
        </mxCell>
        <mxCell id="TS7yuXRs32aZA_9tLR4I-2" value="同じ行動をとる" style="rounded=1;whiteSpace=wrap;html=1;shadow=0;labelBackgroundColor=none;strokeColor=none;strokeWidth=3;fillColor=#F08705;fontFamily=Helvetica;fontSize=14;fontColor=#FFFFFF;align=center;spacing=5;fontStyle=1;arcSize=7;perimeterSpacing=2;" parent="TS7yuXRs32aZA_9tLR4I-1" vertex="1">
          <mxGeometry x="10" y="200" width="150" height="73" as="geometry" />
        </mxCell>
        <mxCell id="TS7yuXRs32aZA_9tLR4I-3" style="edgeStyle=orthogonalEdgeStyle;rounded=0;orthogonalLoop=1;jettySize=auto;html=1;" parent="TS7yuXRs32aZA_9tLR4I-1" source="TS7yuXRs32aZA_9tLR4I-4" target="TS7yuXRs32aZA_9tLR4I-2" edge="1">
          <mxGeometry relative="1" as="geometry" />
        </mxCell>
        <mxCell id="TS7yuXRs32aZA_9tLR4I-4" value="同じ行動をとる人を&lt;br&gt;無意識に気に入ってしまう心理" style="rounded=1;whiteSpace=wrap;html=1;shadow=0;labelBackgroundColor=none;strokeColor=none;strokeWidth=3;fillColor=#f5af58;fontFamily=Helvetica;fontSize=14;fontColor=#FFFFFF;align=center;spacing=5;arcSize=7;perimeterSpacing=2;" parent="TS7yuXRs32aZA_9tLR4I-1" vertex="1">
          <mxGeometry x="10" y="34" width="150" height="148" as="geometry" />
        </mxCell>
        <mxCell id="TS7yuXRs32aZA_9tLR4I-5" value="相手の話したい事" style="swimlane;whiteSpace=wrap;html=1;" parent="1" vertex="1">
          <mxGeometry x="1240" y="499.5" width="170" height="279.5" as="geometry" />
        </mxCell>
        <mxCell id="TS7yuXRs32aZA_9tLR4I-6" value="相手が食いつきそうな&lt;br&gt;話題を振る" style="rounded=1;whiteSpace=wrap;html=1;shadow=0;labelBackgroundColor=none;strokeColor=none;strokeWidth=3;fillColor=#F08705;fontFamily=Helvetica;fontSize=14;fontColor=#FFFFFF;align=center;spacing=5;fontStyle=1;arcSize=7;perimeterSpacing=2;" parent="TS7yuXRs32aZA_9tLR4I-5" vertex="1">
          <mxGeometry x="10" y="200" width="150" height="73" as="geometry" />
        </mxCell>
        <mxCell id="TS7yuXRs32aZA_9tLR4I-7" style="edgeStyle=orthogonalEdgeStyle;rounded=0;orthogonalLoop=1;jettySize=auto;html=1;" parent="TS7yuXRs32aZA_9tLR4I-5" source="TS7yuXRs32aZA_9tLR4I-8" target="TS7yuXRs32aZA_9tLR4I-6" edge="1">
          <mxGeometry relative="1" as="geometry" />
        </mxCell>
        <mxCell id="TS7yuXRs32aZA_9tLR4I-8" value="相手が食いつきそうな話題を振るa" style="rounded=1;whiteSpace=wrap;html=1;shadow=0;labelBackgroundColor=none;strokeColor=none;strokeWidth=3;fillColor=#f5af58;fontFamily=Helvetica;fontSize=14;fontColor=#FFFFFF;align=center;spacing=5;arcSize=7;perimeterSpacing=2;" parent="TS7yuXRs32aZA_9tLR4I-5" vertex="1">
          <mxGeometry x="10" y="34" width="150" height="148" as="geometry" />
        </mxCell>
        <mxCell id="Z88iFCewQsT_L7C9fJfw-1" value="共通点を強調" style="swimlane;whiteSpace=wrap;html=1;" parent="1" vertex="1">
          <mxGeometry x="1440" y="499.5" width="170" height="279.5" as="geometry" />
        </mxCell>
        <mxCell id="Z88iFCewQsT_L7C9fJfw-2" value="共通点を強調" style="rounded=1;whiteSpace=wrap;html=1;shadow=0;labelBackgroundColor=none;strokeColor=none;strokeWidth=3;fillColor=#F08705;fontFamily=Helvetica;fontSize=14;fontColor=#FFFFFF;align=center;spacing=5;fontStyle=1;arcSize=7;perimeterSpacing=2;" parent="Z88iFCewQsT_L7C9fJfw-1" vertex="1">
          <mxGeometry x="10" y="200" width="150" height="73" as="geometry" />
        </mxCell>
        <mxCell id="Z88iFCewQsT_L7C9fJfw-3" style="edgeStyle=orthogonalEdgeStyle;rounded=0;orthogonalLoop=1;jettySize=auto;html=1;" parent="Z88iFCewQsT_L7C9fJfw-1" source="Z88iFCewQsT_L7C9fJfw-4" target="Z88iFCewQsT_L7C9fJfw-2" edge="1">
          <mxGeometry relative="1" as="geometry" />
        </mxCell>
        <mxCell id="Z88iFCewQsT_L7C9fJfw-4" value="人と人、集団と集団が横並びに置かれるとき、その集団の「差分」が強調されてしまう。&lt;br&gt;そうではなく、「共通項」に着目することで" style="rounded=1;whiteSpace=wrap;html=1;shadow=0;labelBackgroundColor=none;strokeColor=none;strokeWidth=3;fillColor=#f5af58;fontFamily=Helvetica;fontSize=14;fontColor=#FFFFFF;align=center;spacing=5;arcSize=7;perimeterSpacing=2;" parent="Z88iFCewQsT_L7C9fJfw-1" vertex="1">
          <mxGeometry x="10" y="34" width="150" height="148" as="geometry" />
        </mxCell>
        <mxCell id="LItR_9ynnI1esaeh7o06-5" value="素早いレスポンス" style="swimlane;whiteSpace=wrap;html=1;" parent="1" vertex="1">
          <mxGeometry x="840" y="800" width="370" height="279.5" as="geometry" />
        </mxCell>
        <mxCell id="LItR_9ynnI1esaeh7o06-6" value="「リアクション」押下" style="rounded=1;whiteSpace=wrap;html=1;shadow=0;labelBackgroundColor=none;strokeColor=none;strokeWidth=3;fillColor=#F08705;fontFamily=Helvetica;fontSize=14;fontColor=#FFFFFF;align=center;spacing=5;fontStyle=1;arcSize=7;perimeterSpacing=2;" parent="LItR_9ynnI1esaeh7o06-5" vertex="1">
          <mxGeometry x="10" y="210" width="150" height="63" as="geometry" />
        </mxCell>
        <mxCell id="LItR_9ynnI1esaeh7o06-7" style="edgeStyle=orthogonalEdgeStyle;rounded=0;orthogonalLoop=1;jettySize=auto;html=1;" parent="LItR_9ynnI1esaeh7o06-5" source="LItR_9ynnI1esaeh7o06-8" target="LItR_9ynnI1esaeh7o06-6" edge="1">
          <mxGeometry relative="1" as="geometry" />
        </mxCell>
        <mxCell id="LItR_9ynnI1esaeh7o06-8" value="素早いレスポンスは安心感を生む。&lt;br&gt;ネガティブであれ、ポジティブであれ、フィードバックがないよりは遥かにマシ" style="rounded=1;whiteSpace=wrap;html=1;shadow=0;labelBackgroundColor=none;strokeColor=none;strokeWidth=3;fillColor=#f5af58;fontFamily=Helvetica;fontSize=14;fontColor=#FFFFFF;align=center;spacing=5;arcSize=7;perimeterSpacing=2;" parent="LItR_9ynnI1esaeh7o06-5" vertex="1">
          <mxGeometry x="10" y="34" width="150" height="148" as="geometry" />
        </mxCell>
        <mxCell id="vj7Scc4Wx4nG3Eql7WIM-3" style="edgeStyle=orthogonalEdgeStyle;rounded=0;orthogonalLoop=1;jettySize=auto;html=1;" parent="LItR_9ynnI1esaeh7o06-5" source="vj7Scc4Wx4nG3Eql7WIM-2" target="vj7Scc4Wx4nG3Eql7WIM-1" edge="1">
          <mxGeometry relative="1" as="geometry" />
        </mxCell>
        <mxCell id="vj7Scc4Wx4nG3Eql7WIM-2" value="「無言」を選択することで&lt;br style=&quot;border-color: var(--border-color);&quot;&gt;相手は勝手に不安要素を洗い出し、いろいろ想像してしまう&lt;br style=&quot;border-color: var(--border-color);&quot;&gt;不安感をあおることが出来る" style="rounded=1;whiteSpace=wrap;html=1;shadow=0;labelBackgroundColor=none;strokeColor=none;strokeWidth=3;fillColor=#61c6ce;fontFamily=Helvetica;fontSize=14;fontColor=#FFFFFF;align=center;spacing=5;fontStyle=0;arcSize=7;perimeterSpacing=2;" parent="LItR_9ynnI1esaeh7o06-5" vertex="1">
          <mxGeometry x="210" y="34" width="150" height="150" as="geometry" />
        </mxCell>
        <mxCell id="vj7Scc4Wx4nG3Eql7WIM-1" value="無言戦略" style="rounded=1;whiteSpace=wrap;html=1;shadow=0;labelBackgroundColor=none;strokeColor=none;strokeWidth=3;fillColor=#12aab5;fontFamily=Helvetica;fontSize=14;fontColor=#FFFFFF;align=center;spacing=5;fontStyle=1;arcSize=7;perimeterSpacing=2;" parent="LItR_9ynnI1esaeh7o06-5" vertex="1">
          <mxGeometry x="210" y="209.9999999999999" width="150" height="60" as="geometry" />
        </mxCell>
      </root>
    </mxGraphModel>
  </diagram>
  <diagram id="GuVU1ZCuxWtuqnXfneeN" name="Agile">
    <mxGraphModel dx="1674" dy="828" grid="1" gridSize="10" guides="1" tooltips="1" connect="1" arrows="1" fold="1" page="1" pageScale="1" pageWidth="827" pageHeight="1169" math="0" shadow="0">
      <root>
        <mxCell id="0" />
        <mxCell id="1" parent="0" />
        <mxCell id="iWxEHjaDBp4yc7IOHVC1-7" style="edgeStyle=orthogonalEdgeStyle;rounded=0;orthogonalLoop=1;jettySize=auto;html=1;entryX=0.5;entryY=1;entryDx=0;entryDy=0;" parent="1" source="vzqyFv9OvBUfj2sghxq7-26" target="iWxEHjaDBp4yc7IOHVC1-2" edge="1">
          <mxGeometry relative="1" as="geometry" />
        </mxCell>
        <mxCell id="vzqyFv9OvBUfj2sghxq7-26" value="Architecture" style="rounded=1;fillColor=#109e81;strokeColor=none;shadow=0;gradientColor=none;fontStyle=1;fontColor=#FFFFFF;fontSize=14;" parent="1" vertex="1">
          <mxGeometry x="310" y="360" width="170" height="70" as="geometry" />
        </mxCell>
        <mxCell id="vzqyFv9OvBUfj2sghxq7-27" style="edgeStyle=orthogonalEdgeStyle;rounded=0;orthogonalLoop=1;jettySize=auto;html=1;entryX=0.5;entryY=0;entryDx=0;entryDy=0;" parent="1" source="vzqyFv9OvBUfj2sghxq7-28" target="vzqyFv9OvBUfj2sghxq7-32" edge="1">
          <mxGeometry relative="1" as="geometry" />
        </mxCell>
        <mxCell id="vzqyFv9OvBUfj2sghxq7-28" value="課題発生" style="rounded=1;fillColor=#999999;strokeColor=none;shadow=0;gradientColor=none;fontStyle=1;fontColor=#FFFFFF;fontSize=14;" parent="1" vertex="1">
          <mxGeometry x="130" y="60" width="70" height="70" as="geometry" />
        </mxCell>
        <mxCell id="vzqyFv9OvBUfj2sghxq7-29" style="edgeStyle=orthogonalEdgeStyle;rounded=0;orthogonalLoop=1;jettySize=auto;html=1;entryX=1;entryY=0.5;entryDx=0;entryDy=0;" parent="1" source="vzqyFv9OvBUfj2sghxq7-30" target="vzqyFv9OvBUfj2sghxq7-28" edge="1">
          <mxGeometry relative="1" as="geometry" />
        </mxCell>
        <mxCell id="vzqyFv9OvBUfj2sghxq7-30" value="適応完了" style="rounded=1;fillColor=#999999;strokeColor=none;shadow=0;gradientColor=none;fontStyle=1;fontColor=#FFFFFF;fontSize=14;" parent="1" vertex="1">
          <mxGeometry x="550" y="60" width="70" height="70" as="geometry" />
        </mxCell>
        <mxCell id="vzqyFv9OvBUfj2sghxq7-31" style="edgeStyle=orthogonalEdgeStyle;rounded=0;orthogonalLoop=1;jettySize=auto;html=1;entryX=0.5;entryY=0;entryDx=0;entryDy=0;" parent="1" source="vzqyFv9OvBUfj2sghxq7-32" target="vzqyFv9OvBUfj2sghxq7-38" edge="1">
          <mxGeometry relative="1" as="geometry" />
        </mxCell>
        <mxCell id="vzqyFv9OvBUfj2sghxq7-32" value="耐える" style="swimlane;whiteSpace=wrap;html=1;" parent="1" vertex="1">
          <mxGeometry x="80" y="160" width="170" height="200" as="geometry" />
        </mxCell>
        <mxCell id="vzqyFv9OvBUfj2sghxq7-33" value="痛みへの&#xa;タフネス" style="rounded=1;fillColor=#109e81;strokeColor=none;shadow=0;gradientColor=none;fontStyle=1;fontColor=#FFFFFF;fontSize=14;" parent="vzqyFv9OvBUfj2sghxq7-32" vertex="1">
          <mxGeometry x="10.000000000000014" y="30" width="72.34" height="70" as="geometry" />
        </mxCell>
        <mxCell id="vzqyFv9OvBUfj2sghxq7-34" value="ひたすら耐える段階。&lt;br&gt;しかし、ただひたすら&lt;br&gt;耐えるだけではなく&lt;br&gt;「相手を観察すること」&lt;br&gt;タフネスはそのための時間稼ぎである" style="text;html=1;strokeColor=none;fillColor=none;align=center;verticalAlign=middle;whiteSpace=wrap;rounded=0;" parent="vzqyFv9OvBUfj2sghxq7-32" vertex="1">
          <mxGeometry x="16.17" y="110" width="143.83" height="80" as="geometry" />
        </mxCell>
        <mxCell id="vzqyFv9OvBUfj2sghxq7-35" value="観察" style="rounded=1;fillColor=#109e81;strokeColor=none;shadow=0;gradientColor=none;fontStyle=1;fontColor=#FFFFFF;fontSize=14;" parent="vzqyFv9OvBUfj2sghxq7-32" vertex="1">
          <mxGeometry x="87.65999999999997" y="30" width="72.34" height="70" as="geometry" />
        </mxCell>
        <mxCell id="vzqyFv9OvBUfj2sghxq7-36" style="edgeStyle=orthogonalEdgeStyle;rounded=0;orthogonalLoop=1;jettySize=auto;html=1;entryX=0;entryY=0.5;entryDx=0;entryDy=0;" parent="1" source="vzqyFv9OvBUfj2sghxq7-38" target="vzqyFv9OvBUfj2sghxq7-26" edge="1">
          <mxGeometry relative="1" as="geometry" />
        </mxCell>
        <mxCell id="vzqyFv9OvBUfj2sghxq7-37" style="edgeStyle=orthogonalEdgeStyle;rounded=0;orthogonalLoop=1;jettySize=auto;html=1;entryX=0;entryY=0.5;entryDx=0;entryDy=0;" parent="1" source="vzqyFv9OvBUfj2sghxq7-38" target="vzqyFv9OvBUfj2sghxq7-43" edge="1">
          <mxGeometry relative="1" as="geometry" />
        </mxCell>
        <mxCell id="vzqyFv9OvBUfj2sghxq7-38" value="読み取り" style="swimlane;whiteSpace=wrap;html=1;" parent="1" vertex="1">
          <mxGeometry x="80" y="385" width="170" height="200" as="geometry" />
        </mxCell>
        <mxCell id="vzqyFv9OvBUfj2sghxq7-39" value="read" style="rounded=1;fillColor=#6666FF;strokeColor=#6666FF;shadow=0;gradientColor=none;fontStyle=1;fontColor=#FFFFFF;fontSize=14;" parent="vzqyFv9OvBUfj2sghxq7-38" vertex="1">
          <mxGeometry x="11.639999999999986" y="35" width="69.07" height="70" as="geometry" />
        </mxCell>
        <mxCell id="vzqyFv9OvBUfj2sghxq7-40" value="personal" style="rounded=1;fillColor=#6666FF;strokeColor=#6666FF;shadow=0;gradientColor=none;fontStyle=1;fontColor=#FFFFFF;fontSize=14;" parent="vzqyFv9OvBUfj2sghxq7-38" vertex="1">
          <mxGeometry x="88.37" y="35" width="69.07" height="70" as="geometry" />
        </mxCell>
        <mxCell id="vzqyFv9OvBUfj2sghxq7-41" value="観察した結果と&lt;br&gt;一時的な心理状態の辞書&lt;br&gt;相手の永続的な心理特性の辞書を照らし合わせる" style="text;html=1;strokeColor=none;fillColor=none;align=center;verticalAlign=middle;whiteSpace=wrap;rounded=0;" parent="vzqyFv9OvBUfj2sghxq7-38" vertex="1">
          <mxGeometry x="13.089999999999986" y="115" width="143.83" height="60" as="geometry" />
        </mxCell>
        <mxCell id="iWxEHjaDBp4yc7IOHVC1-9" style="edgeStyle=orthogonalEdgeStyle;rounded=0;orthogonalLoop=1;jettySize=auto;html=1;entryX=0.5;entryY=1;entryDx=0;entryDy=0;" parent="1" source="vzqyFv9OvBUfj2sghxq7-43" target="iWxEHjaDBp4yc7IOHVC1-2" edge="1">
          <mxGeometry relative="1" as="geometry" />
        </mxCell>
        <mxCell id="vzqyFv9OvBUfj2sghxq7-43" value="書き込み" style="swimlane;whiteSpace=wrap;html=1;" parent="1" vertex="1">
          <mxGeometry x="310" y="460" width="170" height="200" as="geometry" />
        </mxCell>
        <mxCell id="vzqyFv9OvBUfj2sghxq7-44" value="ひたすら耐える段階&lt;br&gt;しかし、ただ耐えるだけではなく「相手を観察すること」" style="text;html=1;strokeColor=none;fillColor=none;align=center;verticalAlign=middle;whiteSpace=wrap;rounded=0;" parent="vzqyFv9OvBUfj2sghxq7-43" vertex="1">
          <mxGeometry x="13.089999999999986" y="115" width="143.83" height="60" as="geometry" />
        </mxCell>
        <mxCell id="vzqyFv9OvBUfj2sghxq7-45" value="write" style="rounded=1;fillColor=#6666FF;strokeColor=#6666FF;shadow=0;gradientColor=none;fontStyle=1;fontColor=#FFFFFF;fontSize=14;" parent="vzqyFv9OvBUfj2sghxq7-43" vertex="1">
          <mxGeometry x="11.090000000000146" y="35" width="70" height="70" as="geometry" />
        </mxCell>
        <mxCell id="vzqyFv9OvBUfj2sghxq7-46" value="UIUX" style="rounded=1;fillColor=#6666FF;strokeColor=#6666FF;shadow=0;gradientColor=none;fontStyle=1;fontColor=#FFFFFF;fontSize=14;" parent="vzqyFv9OvBUfj2sghxq7-43" vertex="1">
          <mxGeometry x="87.91999999999985" y="35" width="70" height="70" as="geometry" />
        </mxCell>
        <mxCell id="vzqyFv9OvBUfj2sghxq7-47" value="" style="shape=image;verticalLabelPosition=bottom;labelBackgroundColor=default;verticalAlign=top;aspect=fixed;imageAspect=0;image=data:image/png,iVBORw0KGgoAAAANSUhEUgAAAaYAAAGsCAYAAACW6gNlAAAABGdBTUEAALGPC/xhBQAAACBjSFJNAAB6JgAAgIQAAPoAAACA6AAAdTAAAOpgAAA6mAAAF3CculE8AAAABmJLR0QA/wD/AP+gvaeTAAAAB3RJTUUH5gURFhoQmb3YyAAAgABJREFUeNrsnXdcU9f7xz83Awh7BVAQUNyboqKi1lFtK61djioOqh1UbX/ddtLW9tvW7mVrW9tC66ijQy22St2ioiJOxAGCgswwQ8i6ye+PC5gFZNzkBjjv14uXcHLvOc+Nmg/POc+gtFotCAQCgUBwFnhcG0AgEAgEgi5EmAgEAoHgVBBhIhAIBIJTQYSJQCAQCE4FESYCgUAgOBVEmAgEAoHgVBBhIhAIBIJTQYSJQCAQCE4FESYCgUAgOBVEmAgEAoHgVBBhIhAIBIJTQYSJQCAQCE4FESYCgUAgOBVEmAgEAoHgVBBhIhAIBIJTITD3QoqiuLaVQLArVRGJwwDcDsC36cvHxJ9CMP9vPJtuEwDwaGXKWp3v6wBoAMibxmuavgy/rwZQBuAmgDL/wpQqrt8XAoFt2usDSJnbKJAIE6GjQaeJ3QBENn310vk+CMD9/PiKGt3rqyISewG4CMCFa9t1UAAoBSNUBaa+/AtTlFwbSSBYAhEmQqeHThP7AxgMYEDT16CmP0PbuO1TfnzF84aDVRGJHwJ4ketnsgANGIG6COBS05+XAVzwL0yRcG0cgWAKIkyETgOdJqYA9AYQ0/QVDWAYgEArplMBGMiPr7iqO1gVkegD4AoAMdfPywJFAM4AOA3gbNOfV/wLU8z7T08g2AkiTIQOC50mDgYwDsBo3BIjbxaX+JMfX/Gg4WBVROKTAL7h+vntRC2A401fxwAc9y9MKefaKELXgggTocNAp4n7ghGi5q8+Dlh2Ij++4oDuQFVEogCMdzGI6/fEQVwDcBDAfgCH/QtTrto2HYHQNkSYCE4LnSYOBTANwFQAU8AEJTiabAAj+PEVGt3BqojEOwH8y/V7xBHFAA4A2Atgt39hyg2uDSJ0LogwEZwGOk3sDmAiGCGaBmAg1zY18Qg/viLFcLAqIvEfAHdxbZwTcBHA7qav/f6FKTKuDSJ0bIgwETiFThOHALgXwH1gvCI3rm0yQQmAvvz4CqnuYFVE4kAwQQN8rg10IhQA9gDYDmCHf2HKTa4NInQ8iDARHA6dJu4PRojuAxO40BH+8bzDj69INhysikhcDWAp18Y5MScBbAOw1b8wJZdrYwgdAyJMBIdAp4mjAMwBMBdMTlFHQw6gDz++okh3sCoiUQwmfNyHawM7AOcBbAawhYgUoS2IMBHsBp0m7g5gNoCHAcRybQ8LrOfHV8w3HKyKSHwBwEdcG9fBOA9gA4B1JHiCYAgRJgKrNJX5eQhAIpgzo872DyOWH19xXHegKiLRBUAOgCiujeuAaAHsA5AK4A//whSpjfMROgFEmAisQKeJbwOwBEACOve2VgaA8fz4Cr3/GFURiQ8C+J1r4zo4DWDew7X+hSmHuDaGwB1EmAhWQ6eJfQAsBLAYwHCu7XEgc/jxFZsNB6siEg8AmMC1cZ2EiwC+B5DqX5hSzbUxBMdChIlgMXSaeCCA5WBEycPG6ToiBQAG8OMr5LqDVRGJt4GJQiP/GdijEUzAxDf+hSnHbZ2M0DEgwkQwCzpNzAOTb/Q0gMlc2+MEvMyPr1hlOFgVkZgCYBHXxnVSjgH4AkzouZprYwj2gwgToU3oNLEngMfBCFIE1/Y4EfUAevPjK/QKnFZFJHYHEz7uzrWBnZhiAKsBfE9ad3ROiDARTEKniQMB/B+AZQD8uLbHSfmeH1/xhOFgVURiMoC3uTauC9AA5hzqMxJy3rkgwkTQg04TRwJ4AUyEnTOWB3ImaADR/PiKc7qDVRGJ7mCa8YVaNSvBUlQA1gH4yL8w5SLXxhBshwgTAQBAp4l7A3gdwHyQ2m+WkM6Pr5hmOFgVkbgAwC9cG9fF0AL4C0Cyf2HKea6NIVgPEaYuDhEkVriHH1+RpjtQFZFIgWm2N4Jr47ogWjCRfCv9C1NyuDaGYDlEmLoodJo4HMBrYLbsiCDZRi6AIfz4Cr1IsaqIxHEASKIodxCB6qAQYepi0GniIABvAngMgJBrezoRT/PjK74yHKyKSNwCYCbXxnVxaDAlj5L9C1OKuTaG0D5EmLoIdJpYBOB5AC8B8OLank5IFZjwcb0qBVURiT3BVDFw5drA9ihQ1uFQQzH6uvphiFsA3Hmd7vcWOZg8qA/8C1NquDaG0DpEmDo5TYmxiQDeAdCda3s6OZ/x4yueMxysikhcBeYXAqfmr7o8LK6+tfO4xDUKce7dMdxNjEgXb67NY5NqAO8C+Mq/MEXFtTEEY4gwdWLoNPEdAD4FMIRrW7oIKgCD+PEVV3QHqyISvQFcBSDm2sC2eLH0EH5U5Jl8bTw/ANNE4ZjoEYZBbgFcm8oWlwE851+YkmbzTARWIcLUCaHTxBEAPgHTfoLgWLbx4yvuNxysikh8AsAaro1rDZlGhbAb68269gXRIDwTOLwzbfXtAvAsyYFyHogwdSLoNLErmOTY1wCIuLanCzOJH1+xX3egKiJRACAbTtq9N1NWirsr/jX7+gcEYfiq2+2dSZxoMOdPb/kXptRzbUxXpz3d4XFtIME86DRxPIALYPbOiShxy2dNZ3stNBUdfZ5rw1rjZGOZ0dhPfuNxKPhevOMZbfTan+oi7JZeNznXfUU7sFpyBpmyUq4fyxL4AJ4DkFMVkUiiKJ0c4jE5OXSauBuYgpYPcG0LQY8l/PiKnwwHqyIS0wBM59o4Q+4r2oFDtH491FPdHmwJeihQ1uG2kj/0Xh/PD8C2sHv1xi7IJRhftkPvmpkevXGXVyTEgg71+9I/AJ7yL0zJs3kmgsUQj6mDQqeJKTpN/DiYUGQiSs7H3a2M7+XaMEMKlHVGojSeH6AXiRfp4o0lrvqd4w/RElSoG/XG9jcUGV3zf3WZ6Fe8CS+WHsIe6Q3INB0iEO5uAOerIhJfbNqGJTgRRJicEDpN3AfAPgDfoXO3Me+oaACsNBysikj0hBOGjZ+WVxiNTROFG41FCo1DxsvVspbvZRoV3pBmt7rOj4o8zJLswe1Fv2O15AwKlHVcP3p7uAH4EMCxqohEEtnqRBBhciLoNLGAThO/DOAcgNu5tofQKimGFcebWAEgiGvjDMmRVxmN9Xf1NxorULUtJEdNnClFUcYF6vO0crwhzcZtJX/gvqIdHUGgYgCcqopIfLsqItHpE6W7AkSYnAQ6TdwXwGEA76MDVBHowsgAvGE42NRA0CmDHz5uvGA0NsY9xGjMVI6Tbk7ThtpLRq9/4B+Hoh4J+MlvPMbzjfOfDtESeHSMyD4BgGQAJ6siEodzbUxXh+ytcgydJqYALAXwEUi0XUfgU358xU0T4+/ACf/+TEXOPSAIMwoDb+26ZgqUdfhTXWR0zRj3ELjzhLjfOwr3e0ehQFmHtPprSGm4iDytHEtcozpaUMRgAJlVEYlvgun/RHNtUFeEeEwcQqeJQwH8C+BrOOGHGsGIMgCrDAebzice4do4U1xWVBuN3evV02hsa90Vo7GJ7rf6IB5qMF0b9efqHFyQ3wqsiHTxxrKAYTgR/jC2BExBou9Art8Ca3ABs3NxoCoisRfXxnRFiMfEEXSaeA6Ab0Hamnck3uLHV0hNjH8EwCnzKfbLjAUlR14FL54LhroFwoMnwM/VOSa38e7yimz5/sv6Mybnf0OaDUizMZ4fgEe8ByLOvXuLhzTFs4fR9TKNCj9X57R4VFGUGxI9BmCEKBixJrYXOSYOwNmqiMTl/oUpKVwb05UgeUwOpqkK+Bdg2lIQOg6t9WS6A0A618aZokLdiH7Fm6y69wXRILwaNBKA5VUjXhANwhTPHkZCI9Oo8FTJAZNbggATwv6q/0hnFCgA2AAgiVSNYAeSx+RE0GniQWC6nhJR6ni8ZEKUeGBqFjotL4gGmYyca4soyg3PBA5v+XmP9IbRNV94x2JLwBS9c6hmPm68YLLSxM/VOa2KEsAEStxd8S9WS87ACZkHILsqIjGGa0O6AsRjchB0mngxgK8AuHNtiyENci083Mjfbxsc4MdXTDQcrIpIXAQghWvjzOGCXIJTjeXYLytuUxweEIThDfGoluTb1ryuS6FzWrbsmvs8fVl/BnlaOQD9qhLNGFafiKLc8HXgRJSoG/C/mhMt9wLAO57RWBYwjOu3zRQqAC/5F6Z8zrUhHRlSxJVj6DSxB5hE2QSubTGkQa7Fb/ul2LhPiW1v+xNxap2R/PiKk7oDVRGJIgBXAIRaNyV3VKgbcVZeiZsqKc4qKgEAfjw3xLqHGJ0LGfZwApg+Th+FjDc5d6asFCcby0yKysjrv+mJj+48pkoiHQq+15lbcGwFsJhs7VlHe7pDgh/sCJ0m7g3gTzhhxemz15R4bk099p3XAAB+2y/FkrtI41sTbDAUpSaeRQcUJQAQC0QmAxNM8XNdjtHYj4o8REq8TQYsxLqHtHpG9IBblF5O1Y+KPNwljcQUzx4tJZF0gzBONZY7szDNBDC4KiLxIf/ClBybZyPoQc6Y7ASdJp4O4AScUJQa5FpEL69tESUAePwrOc5eU3JtmrOhANNiRI+qiEQxgJe5Ns7etFXz7g1pNu6u+Bf3Fe3AX3V5RjX1TDHPt5/R2CzJnpYzpaGugXqv3VAZB0BWqBtNnnlxRH8Ax6siEmdzbUhng2zlsUxTwuzrAN6Gk4YQA8DWgw2Ys0qmNzZpMI9s6enzCT++4gXDwaqIxK8BLOPaOEdxQS7B/oailhDv1ljiGoW7PCNbkm4BRkh0E2z3SG9glmSP0b3N/Z8AYLf0On6uy8Ej3gNxv7d+YdnmLrwPCMLwXEC0M3lUHwJ4lSTkmgc5Y3IgdJrYG8AvAO7j2pb2aJBrcd+bVXpeEwB8/5Qb2dJjqAIQxY+vqNEbjEjsCyAHTH+fLoVMo8JRWSk21F5qM4CiOfChuWvuA4IwzPPp1yJY7YlTs6jJNCq9ChWGLTcApwuSSAMwz78wxemLA3INCRd3EE3tzo/AyUTpSI4c5TXGv8R5uFH4NMlYgMiWXgvvGopSE6vQBUUJANx5Qkzx7IEfQ+/ApdA5+MI71qg+3gOCsJZovGtNxVv/VBe1VB3PlJViimcP/CO+yyiM/U91ET6vPK23ni6vVh4xsqm9wrMOJh5MOaM+XBvS0SHCxAJ0mng0mPykQVzb0kyDXIvk1BqMf7Ee3RKq8NTqauw6qX8OMLSnC75/yjjH5bk19WiQm+dJd1LywTRn1KMqInEcgPu5Ns4ZEAtEWOA3ANvC7sU/4rvwgoj5pz/Pp1+r9+Rp5fBsEptY9xBsCZluJE4fN14wWY38r7o8o55SALDM32m8pWb6gxGnyVwb0pEhwmQjTaWF9sGJ2h0cyZFjxDIJ/rf51uH1NzvVmP6mFHeskGDrwYYWL+rhiZ6YNFj/n8G+8xr8tl9q0ZqdjFf48RV6bmNVRCIFJ0+m5YpY9xC8GjQSRT0S9KqW93Qx7u9UqtPfKdLFG097GQuLYf8omUaF/9WcMLruC+9Yo1wpJ8EPwL9NeW4EKyDCZCVNHWZfA/AbmIZjTsPGfY24XGra49l3XoM5q2TollCF5NQanMlXkC09fTIBbDExPgvAKK6Nc2bceUK97Td3nhDveEbrXfNyVYbF/Zl+rs4xCrqIotzwkE9vrh+5LYQAUpp6PJEDegshwQ9WQKeJ+QDWAkjk2hZTlNfQuP356lbFyZBmj8kwEKKLRumN58dXHNYdqIpIdAFTK6+ndVN2XVqrj9fcxt1U8VjdqhGmAh4A4Ce/8UYRewCTqKvrcXnxXPSiBDniVwCP+hemdMnf9ExBovJYhk4TuwPYDOag02kxFQ5uDV0sSu9PfnzFg4aDVRGJzwL4lGvjOioyjQpvlh8zKUKGGFaVaA4P12U8PwDbwu7VGytQ1uGdiuOtRgt+4R2Lh3x6cylQ/wF4kFSKYCDCxCJ0mtgfwA4AY7m2xRyeWl2Nb3bq1R1F3xAKd9zGNxpvi+yvfTC0pwvXj2Nv1AAG8eMrLusOVkUk+oIJhiDtSWwkU1aK96pOmAxiAIzDxVsLKzcsVdTadYZEUW5ICZrKZe7TSQDT/QtTKmyeqYNDhIkl6DRxGIBdADjvfNYcMdfeFltrW3qbVrhjwlA37Dgmw8dbFO1u+U0azMN/q5wmkdFerObHVyw3HKyKSPwYTtoyvaPSXE9PN9Q7zr273tacTKPC7UW/G50t6bbjAEzX2GuP1rYBHcRlAFP9C1Ouc2WAM0CEiQXoNPEAALsBhNk6l63kl6jx+Oe1KK7U4p1FIsyc4NHm9aa29PqGUDjwiR+CfPlokGtx+LwcqemN2HTYON9p0mAePk3y6uweUx2A3vz4Cr3fZKsiEiMBXALT0ZTgQEwVjwX0q5rLNCrMvfmvSQ9siWsU4ty7A2Dq/Rlew7E4FQO4078w5YLNM3VQiDDZCJ0mHgJgL4BAW+eylSM5ciz5RKrn4cwZx8fLD3u2KRymtvSWThfgq2X6u1P5JWr8dUSGH3YqcblUi++fcsPDEz27QvDDa/z4ivcMB6siEjcAmMu1cV2N1lptGIpJa+JlSnRWS84w3XZ10BU5DqgEMNm/MOUcVwZwCREmG6DTxDEA/oUTiFJ7wQyvzRZi+X1eCPI1LkrQ2pbeoY+8MHagcaR7g1yLsmoavbp1ieLzRQD68uMr9LKPqyISR4ApwtsC5e0OKsCrluftLgOfr6F83OUAQHmKVHAV0i2VEbUAFCq+VtooBABtrUwEmqa0MoWrRlLvo62R8qHp0gnMbdJawMPG7nfpBS8YttEAWi9R1FweSZcvvGOxwG8Al49aC8ZzyuTSCC4gwmQldJo4Fsz2HecZfA1yLbwfqjTr2k0r3HH3KHcjL6e1Lb2TqwO6gkfUOgLvR3nTru4HEA6gR9OfbvTVm2Jtg8KbcnNppDzdGilPNxnl5V4KHlUBZusPAGqa/mwEU4lc2/TVnB/IA/PvRwDAE4AvAA9tTYNYWy/z0ErlXlq50gONSnetQuWlrW3wovNKXOlLxZ6a/FIxfb3cF0rzg1Q6CwXKOqyuOqMnTlsCpui16jAVRm5KvHRZUvyfXtReW32lHEgdGHE6xrUhjoQIkxXQaeJxYAoyci5KzSSn1uhVcpg0mGeUd9RM3xAKnz/pgTtH6G9TmNrSe222ECsX+XL9ePbHNVhJ+Qwtgu+IGnj1l1Eu/tVwCaqAe0QJKF4hgEIA1wEUUBQlt3E1q9BqtXwA3cCIY7i2QdFXW1kbpq2TBWokdf701RIP9bFcP/rMtR6aitpOf+7VHMXXV+BrJCCmtvEMxeuvOkbYmrf19khv6BWgdRJhAphfbO7xL0zZy7UhjoIIk4XQaeLJAP4GwNnmsymO5Mgx/sVbKRDNZ0u6zf4MWTpdgMeme7ScP7W2pVey3t/kFmCHRRTWQAVMuI7ACXWUKLwKbiEVcAs5D0pwBkyi7I0pv34oUlGuI9WUMFpFCfsqKdcIFeXaTc4TiRU8d28VhEKaEvDVlJBHUwKeGgKKpgQUTQmgtbKbCQUt+Fo1+Fq1VgC1lq9VawRalYavVdNCqFSuGlmdm6axQqhVlLhoFYVCreqyQKvKFmoVJ/YuXCHTarV+AIZCTQ/XlNUM0pRVB2kl9WJVRo6Xat/ZnprCck+u33q2kWlUaNCojc6CTAlTUY8EvXYb029uQ55WbtQu/oJcgpSaHAx1DeR6K0+XRgB3+xemHODaEEdAhMkCmrbv/gOz7eJ0DFhSqScq2V/7IKqbEL/tl+Lxr1r/Jf+jxa6YP8UDQb58vS29OeP4eDfRu2OfJVF8wGd4GdXt3iLKd0QdROElcA06CYp39O8rZy5+dmyXK00Jeygo10lKniimkXLvI+N7hdXzfPwaeR5CmhKABp+iKed6D/haNfigtXytGiJNg8pLU1vtTtcXibSyKy6axixXrWIfX6u6cU+fYdJnR985ABptrKaoMkZzo6I7fbUkULn7VBB98kq4VqGy3RgnxNRWnq4wvVd+Qq9bbhTlhtd8R5oVifdXXR6meYZzkYxbB2BaVzhzIsJkJnSaeCQYUXKa7TtDPv29Di/+pGj5+aPFrnjuIcbcs9eUmPNuXas5SX1DKLyzSIS7R7nj5R9rcPsQl3ZDzZ0Wn6GVVNi8Aso3pg5u3fPhKt4H4PCkdZ+oaAj6qilhtIznObmR59FXyvcJqeEHeMl4np2qLqS7RqrxpSX1nnRtqUjTcNldI90r0Kqy+VBf3jf/eTWA27X1jZPo/NKedHaeWLH1cCR94XogzPz/7uyYynPS3cqrUDfiw8qTRkEUS1yj8HbQ6FZFp9kTM/SyHEiXECciTGbgTCHhbWG4nQcAdb8HwsONMqsEUYf1kAReNBVy72V0f6CK8oi6Abdue0Hx90z59cNKJeU2Tclzi5XyvG+X8n0i63k+PrWCABdNF6tPzIMGPmqJ0ktTW+tJ1xZ4auoOuGjkmS5a+e49C15yB3CXplhyh6awPFyZnu2n3Ha0r7ZK2qHPqQy380xVdvi1+iL+r07/M/4BQRh+DL3DaD7DChJRlBu2hEznSpwm+hemZNs8k5NChKkd6DRxXwAZcHJRasZwO2/TCndcr6D1PCmA8ZB0r1s6XYAPlvh2nAg8V7GCCn8khwqaWg3P3jnge+wAcGDius8GNvLcH5LxvCZUCYKGSXne7g08L4GzbcVxDV+rhoemXu2pqZP5q8vPuGvqD4o0st/3z3/2LIAxWpniPk1hebRq9yl/xa97B2oq61y5ttkaDCPtAKY6RKx7CEIE7ni18ohRcq1hSSOg9QoSUZQbToQ/zMWjVQIY61+YcoWLxe0NEaY2aOo6mwEglGtbzMVwO88UzSHjzWdPult+Tk2zGAXfXQ2PnqfAd/9tyq8fXlFTLiOlfJ9Havl+YySCkB4NPC+hiurQv+w7HKFWCQ9NvSpAXXrDh64+6knX/izQKk/sWfBShLZBMVuTVzJClZETpEj9r7+mtNqda3vNpbXq5a1hKnepQFmHWaU7jXKigNa9KwdxA4w4mfdwHQgiTK1Ap4kDARwG0M/WuRyJqe28ZkyFiZfX0M4dccdzARU6+yIVniiBZ59s8EWpk9Z9cpOGYEQd3/fRWn7AyDJhWEgjz6Nz/QPkGJGmQRusKir1oSUnvOmatXyoT+6b/3wQlOoFdH7pKMWG/f7KTQcHahWqDvG+t1YFQhfDIrFA6zX5mnGCkPKLAG7vbIVfiTCZoKl1xV4AsVzbYg2G23kAk9f0/TM+Hef8yG9kCdX72ULKZ3g+XAI3br14cs/nWUfvaeR7PlgpCJ5SxQ8KkPJ9utZBEUd40rUaf7pcEqgu2yOipX9MCw/fljzhvnFaSd1C9elr/eRfbe+pPp0fzLWd7WEqMVcX3T5PgHneVmuVJBzMCTDlizpNW2kiTAbQaWIBgO0A7ubaFmsxtZ13Za2f84sSz1VLRT52ngpPrIEobAco3s8T130W0cDzeqxSEHJvlSAoqI7v5+QP0bnxpqvV/ury8kB16Q4PTf0P++c/ew0a7XxNYfkM5c4TAfJvdw7RShud2AVnIvIyZDeRI69CtYbxhAyrlwOmSx8ZYlh3T6ZR4efqHDziN9DR4eT/gknCpW2eyQkgwqQDnSamAPwEjjvP5peose9Mo9UN+Ext5zl1Qz/3iDqq3+u5VMC4ArgEfH//pi9Plqv5c2v5AYtLhT2G1vIDXGnKqT/ruhx8LQ0fWqIIUd0460NLfhJpGjbsWfDSMG1tw1L1yau9Gt/b1IfOK+mwPapMFXU1hWE1ieb8qAcEYfggOM7RRWDX+hemPOb4d4t9iDDpQKeJ3wXwGpc25JeoEf96DS6Xam0KSjDczusbQuHij04WWOgXe5M38H834Nn3OPhun01a94mPlOf9RKWg24wil17d1RSn7a4JZiLQqhCmzL8ZqC7Z7qmp+27f/OcroVQ/TV8pHtf4wZZQ1aEL4VzbaAmtnUe94xmNAlWdnhelG8FnKGYchZO/4V+Y8i5X7x1bEGFqgk4TLwDwC5c26IpSM9aKk+52Xmu18biCCr7rGtXvtZvwiNoOSvDd+HVfTq0V+D9ZLgiNLReGelhb0ofALRS0CFIVNwSpizN91FXfHpr/9L/QaB/XFFU+1PjFtkDlH0f6OnsCb2vdbpvPku4r2qEXXt7cGqM1MeOoQvlC/8KUXx29KJsQYUJLUdY94LDhW4NcixHLJCYrM5grTvklalwpVuHOESLkl6jR59FqJwp6oECFzrpM9V1RCbfQdaB4P8et/3pxlSDo8ZvCyEHk7Khz4U1Xq7urCi74q8u/z0hYvhZAguZGxUL5d/8EKzbsH+CMbT1MlTEC9KP1/AtT9F6rikhsVcw4jNhTgQmGOMzF4mzQ5YWJThP3BJAJQMy1LbtONmL6m6YDa9oTJ11va+fbnrhzhAjJqTVYMceH86RZKuSefGrAyhKIwtauPLht6783ip+oFHR74rpLVG8FT9Qx/+EQzMJV06gNV+ZdDVSXfDc+JHDNqimzZ2nKax5rXLXV6TyoPdIbeLkqQy80XFeUDBsUjucH4Iug200m3poKPXcw5QBG+RemFHJlgC10aWGi08Q+AI4AGMi1Lc1YI06mtgCbxYlLKPHkQmrQ+zchivh1xd6tvx8srUyoEHZ/qsglKlJBdZQSEwQ2cNXKtWHKvAKx6uZXw/08f/12+sJ7NDcqHpW9u6mbaldWL67ta0Y3mdbwjMjQoxrPD8BNTYNRjlMU5YYDYQ9xKUrNnAUQ1xHDyLusMNFpYj6Y9hV3cW2LIZaIkylRAjgWJu8hFbzh3+TDI+qP/Jrq1fN3bnmsTBj6TIkwIpwkwnZtRJoGbTdV4fVgVfHn395xz5ph4h7L6PySWQ3P/RBJny1wilyo5nynZf7D9AIXWtuy04XD+nmtsR3AA/6FKRqbZ3IgXVmY/gfgVa7taA1zxMnpRMnFX0EN++Ys5T/2GPhub8Wt//rBSkG354pcevXrbNW7CbbhrpFqwpT5lwLVJZ9mJCzfCqX6DfXpvLiGp9YM1pTVOGVZe3OqRxgm6ToJK/0LU97k2ghL6JLCRKeJ7wfwJ5c2lNfQWLenAddKmXy4e2LdjMSkLXF6bbYQWw6qnUOUKAGofq+dpnrMy4fQ75UJ677oJREEv3nNtX8s8ZAIbSHSNGh7KnIzA9Rlbx+c/3+XtA3yD5VbM6Jk7/4WDZVztY03VYlcF8OcJidjhn9hyg7bp3EMXU6YmqqFnwTAWbbprpONeObbBiNRmTOOjx+e9dMLVmhLnAzhQpQo8R2F1NAvbsJVvHLiuk/za/kBH1x36R1fJQgiVVQJZuOvLleGK6+m+dCSl/fPfy5SU1mXLHslpbsqPbsn17Y101YlCMMKEE5ILYAR/oUpV7k2xBy6lDDRaWJPMBF4nAU7tFVkFWDEacMr/npj5oiTw0XJxU9JRf94mvIb9c+3pw5/mXL5yovFwl5JN10ifEkeEsEaKGjRXVlYE6rKXxMfFvJB8th7l6rP5t/fkLR6sKa8hvOK5qZaaABOUy/PHM4DGO1fmNLAtSHt0WWEqanc0CYAs7iyobUzIUM2rXA36h7bljg5WpSoyMdyqD4vFEDo9/S4dV+NKBeG/e+6a+9eJNKOwAauWrk2XHE1P0hV9Nrh+U+d1Eobv5R//Xe4/Lt/BnMZXm4q+OEF0SC8GjSS67fMEtb7F6bM59qI9uhKwrQcwFdcrW8qgXbOOD6yr2qMhGrpdAG+WmZcZsyUODlUlEQ96nkjN+TCo/cPd21anVam9Vld6NJnerVATLbtCKzjp65QRiiv7PSlK5fum//8HfSVm8ukj37RT1NY7suVTbrh5E6Qq2Qtj/kXpqzl2oi2aE93OkUkFZ0mHg7gY67Wb5Br8dhn1UZ5Rhte8cfJ1QGYM868AqV3jhBh59ueenM4SpSonk9e4I3ftwue/R4Yu+E70SVer6zT7mPvJ6JEsBfVArHLafex9xe49Ds1dv03fvw+3e/33vn2Xrfl954HR78IR7p4Y0vIdCxxjeqoogQAX1ZFJA7i2ghb6PAeU9O50klw2PAvObUG/9usavnZcKtu68EGzFkla/m5vSoPu042AoBjRMklUM4bueEsvId8P3H9F0er+YEfXXMdcGc935m7CxI6G150Dd1TcXGXH1354v75z42ic288KV306WBNGfdnTx2UHDCVIZzyvKkreExfgUNR+vHfej1RAoA/MhRokN9649ek6WeO33GbW5tz3jlC5BBRorrPvMK7PeMgfIY/PHbDGmG+64AD59xHTyeiRHA09Xxf/jn30dPzXQccGLt+tRu/f48HvXe/e9Dl/jFXuLatgzIQwJdcG2EtHdpjotPECQDWcbV+cyFVU8wZx8e7id7464hMr6mfU/RN4rmAil57khJP/mvWXz+nXlW4fXnVddB9pGMswRnwpGs1vRUXtvV2lT+95d4liaqMnPsanvg6pqO0eXcyZvsXpmzh2ghDOm3wQ1Nx1rMAPG2dyxbaiqbrG0IZBUMYhoo7HPfIWl7sHzkQhb10+7rPhUUuPVMKXPuFa0CcJILzwAONSMWl62HKa4kH5j/TqCmp+lg6/+MBdF4Jx/+BOhxVAIb6F6YUc22ILp1yK49OE/PA9FbiVJQAZtvtylo/9A0xFm5DUfrhWW4bflJhcy7z4tL3HJHIZ8Zu+P6+HFHMznzXgUSUCE6HBnzkuw4MzxHF7Izd8P1Dh5QVM73+emO/68MTcrm2rYPhD+DnqohE5/Is2qFDekx0mvgFAB9xbYcu+SVqvJ5Sh02HaZOvvzZbiJWLfLkxjuKDil6bRQVN/fOuzWt+LkLglnzXgWNIOSFCR0CkadD2UuQcDUPlrH9nLn9Etff0A9Klq2Og7lB1S7nmWf/ClM+5NqKZTreVR6eJBwI4BcCVa1sMaQ4bb02cPlrsiifivRzbP0noq+SN+fs0PPu+MWHdF8Iil15rClz7hZHqDYSOBAUtIhWXisKU+UkH5/+fjL5W+l79Q/+L1lZJne5zwEkp8C9McZryT51qK49OEwvBbOE55T9GDzcKG17xx0eLTZv34k8KPPZZtV7Enl3xGljJm3D4MDz7zh29fs3Yy25DN11z7U9EidDh0ILCNdf+YZfdhm4avX7N7fyeIQ/7/PdeJn9oZCnXtnUQvuDaAEvoUMIE4DUAMVwb0R7PPeSNTStMp19sOkzjvjerkF9i38rKVPeHrvDGbN9f0Mi777aNKR9cFN32epkwzCnbDRAI5lImDPO4KLrt9ds2pnxUJFDd47VxxSESUt4uEgBOXQnCkA6zlUeniYcCyAIg4NQQC+Cq/h3V/60zVOSj6fdu/m5NPsTrLrsNHa2mOmQGO4FgEoFWhb7ys8fCNCUJ/z60fLFi3b57Gt/Z2CEqrXLAa/6FKe9xbYQuneKMqSkK7yiAUZwZYSWmCruaKuLKDhSo29ZmUcHTv52w/uurN10ifspzHeQ0ba0JBLaJUlzI764sXHxw7lNRqgPnnpQ+9uUI0CQoQodaAJH+hSk1XBuiS2c5Y1qODihKANCrmwAHPvFrqZf30WJX+4gSzwW8sf8cp0LufXXc+m8UBa79thJRInR28lwH9Spw7bd13MbVSuHkYa95//VGJiVyIcp0i9WmRCkuOXUi14a1hdN7THSauAeYuk+c5yzZQoNci+/S6tuskWc1Qh8VL273Kbj3XDZm/TcT8l0HvlsuDCU1xghdhiBVsayXIuf1owlL92kKy7+tu+etGG19Y1ffv24A4y1V6g42idI2AP0yVi7iJHikM3hMq9HBRQlgIvbsIkougXLe+IPH4d5zfuyG72ZeFMV8SESJ0NUoF4a6XxTFfBi74bs5vIigBd7p/zvOC/KV2T5zh+YHQ1Fq4jUA3gA+4drA1nBqYaLTxLMA3Mu1HU6LW6iUN35fJty6zRq54YfnzoliV9Ty/TtMcAiBwCa1fH/BOVHsipEbfniOF+I3x2vn2yd4kUE1XNvFEUoAHxoOxiWnjgZwR9OP8+KSUydzbagpnFaY6DSxB4DPuLbDaXHvWcOL23UcrsGzYjb+/NFZ9zFPkkoOhK5OI8+DOus+5smYjT+v4gV6P+T95xsn+b1Cqm2fucPxs39hSomJ8VcMfv4mLjnV6XquOa0wgXE3Q7k2winx6F3NG/vvydx6evZtG1NWnxeNTFBSTplzTCA4HCXlivOikQm3bUz59hJd/7DX769ldTFxogG8bzgYl5w6HMAMg+F+AF7k2mBDnFKY6DRxFIDnuLbDKfHoXc0bm3Zq783S+Q+n7/7pvGjkLCJKBII+TeI06+H03T/tq70x3+uP17O7kDit8y9MKTQx/nIr178Wl5zqNOWKACcVJjBbeOTT1hCP3tW8MWlZx8ur5z579MSP50WjZqgop/PCCQSnQEW54Lxo1Ixnj5748URDWVfxnLQAPjAcjEtO7Qdgdiv3iAB8yrXhujidMNFp4rtAAh6McY+s4Y1JO1Wu4s9+/ODhH3NEI+NpisQ5EAhtQVMC5IhGxj9+8PCPFS6a2V5bXzvN6+YvtX1mp2Wzf2GKqdYgrwBtFsm8Py459XaujW/GqYSJThO7oIMVG3QIrkEy3pi0M3Dxm3vn9j+/zxHF3KsmokQgmIWaEiBHFHPvndv//J7y95zjtePNrE4cSr7KcCAuOTUcwHwz7v0kLjnVKQKonEqYADwOoC/XRjgVAm8VL+6/M3AVJ8Rs+OmTHFHMTLJ9RyBYhopyQY4oZmbMhp8+4QV6J3hte+MU5SVScW0Xy/ztX5iSbWL8VcCsbqAxABK4fgjAiSo/0GliLwB5AMRcvylOA1+k4Y0/dBLu4QkjN/zw3Bn3sU8SUSIQrEeoVWKY7Mi3J+Y99rHmWtm6uruTY7VypbP9gm4tY/wLU47pDsQlp3YDkA/Azcw5igD0zVi5qNGehnakyg8vgojSLSg+eKO3nYB7eFLshu8fzRGNeIKIEoFgG4znNOKJ2A3fP87rGbzca/MrWeA708eg1ew1FKUmXoD5ogQAYQCe5fphnOJvhE4TdwMJD9eDivklCz7D3xyz/puJl9yGPS/jeTrF3xWB0NGR8Tx5l9yGPT9m/Te384dGvuG5eulJrm1igXcMB+KSUwMBPGHFXK/EJacGc/kwzvJh9yYA0sSuCar/W2co8ZTvx637SpzvOvBdUmaIQGCXWr6/IN914Lvj1n0lFt4x/FvRiw+d5domG8j0L0zZb2L8GVj3ueoJ4A0uH4hzYaLTxP0APMq1Hc4C1f2hK1TE4l0T1n916bprn89IQVYCwT6UC0Pdr7v2+WzCb1/nuS6ZtstlRmxH7YT7tuFAXHKqL5h2QdbyeFM0HydwLkxg3lRzIkY6Pz7DyqjBH52+a8v3X9x0ifj5hktUINcmEQidmRsuUYE3XSJ+vn/H2i/c3088w+/fo9L2WR3KaQD/mhh/EoCPDfMKwUTzcQKnwkSniQei9WzkroWLv4I38rdLf1/LW3oDQX/kuQ5yqhIhBEJnJc91UM+rtP/v24tykjxTnztL+XgoubbJAv7nX5iiF+IWl5zqAeB5FuZezJXXxLXHlIy2s5G7BhQfvDF/n4FLwCPJJ099nSsaHsu1SQRCVyJXNDz27VNnVvOCfZd4bX01u4NE6l0E8IeJ8ccABLAwvxDA61w8GGfvPvGWbkEN/y4LHr1fHb1+zYIrrkNmasjOJoHgUDTg44rrkJmj169ZxO/TPdnjk0ezuLbJDD7wL0zRayPf1MLiJRbXWByXnNrb0Q/G5a8FxFsCQIXNuUwF3/XXhHVfCAtc+70o5fsQVSIQOEDK9+EXuPZ7ccK6L3jCu0dsd/JgiHwAG0yMLwbQjcV1+ODAa+Kk8gOdJu4NIBddPejBI6qaF7f78J2bf1p+WRB1tMC1X3euTSIQujqRiks3+6rzxvw7/dFP6+5beYemsNyWIAJ78aR/Ycoa3YG45FQBgMsA2D6fpsFUg8hna0JnrfzwCrq6KPFcwBu1JXfL5dyninniDUSUCATnoMC1X/dinnjD1ps5z3utfzEHAqf7qLoJ4CcT4wlgX5QA5rOajWAKs3G4MDVVeVjg6HWdDSr6h5MQhT3/8ens5Xmug8ZybQ+BQLhFnuugsR+fzl7OCwt8yePzx52tMsRH/oUpepGDccmpPAAr7LjmI02VJBwCFx7T02CiPbosVLf7r1LiKX/fvu5zt3zX/svlPPcuf9ZGIDgTcp47le/af/nt6z4XCqdG7xBOu421bSwbkQD43sT4TAAD7LiuCMAyRz2kQ8+Y6DSxJ5jqtc64Z+sYXALlvNuPHpq147fFWepuR665DujBtUkEAsE0PRUXbwyhisb8NWXhD7V3vDpZW1XPdWftV/wLU/Q61Db1UDoFYLid15YA6MFG5XFnO2N6DF1ZlADwRv52BkKfx68q3L684dKHiBKB4MTccOnT47ra4yvK33OZ50/PnObYnFoAa0yMT4f9RQlgcqMeccSDOkyY6DSxAE5QTp1LqJ5LL8B70Hdj16++66rroPtIF1oCwblRUwJcdR1039j1q+8UDIn8wXXhlIscmvOlf2FKjYlxRxZcfb7pPMuuONJjmgmACw8hH8A2ACsBzAOzleh43LpLqd7PXp24/oujRS5R70j5Ph0itZxA6OpI+T68IpeodyZu/DxD9NwDF3jd/Bo4MKMBwJeGg3HJqZMAOLJSTC8AD9p7EUf+yr7UzvPXAThr8HWeH19Rr3sRnSbOBXAYgEOrdvNGbsiB0GdZNT/w+5vCSFKclUDoQNwURgb6qcs/oXw9HvX84f/+rLvnLUeKQRmA1f6FKaYKzHLRnmI5gK32XMAhwQ90mngwgHMs2awBk0R2tmnOMwDO8uMrCi2w534wNaYcEg1HRT6WQw1Y+fHYDWvcz7qP/rKB5028JQKhg+GhqdMMlR17+sjDTypkr6W+oPjtYD8bp6wHUNz0dbPpqwhAic54qX9hisrUzXHJqaMBHOXo7RiUsXJRjrU3t6c7jvKYrA0zrISxF3SBH18ht8UYfnzFX3Sa+FUA79v9yV38lFSfF65NWv/5vzdd+p8iokQgdEwaeN68m8LI1+/a8nXMPy8tvl/5T1ZPbW2Di4lLlWDEpVlobjb9fEN33L8wxdYtQU4KrDbxBID/s9fkdveY6DSxNxjl92zjMhWAHNzygM6B8YJK7PXgTbalAlhozzV4o/86Dv+xC4ZvTP3wjPvY++y5FoFAsD/DZEe2nZ676Hl15qVP6+d8kAVGbFoEyL8wpdzeNsQlp0aDCRHniloAoRkrF1klrs7gMS2EvigVQ38b7hyAXH58hcqKuc0iO2+qV3RUer2Jlx4DEAUgzh7rUgHjbsB3xK7x674ceF00Yrq9no9AIDiO6y59po9f92XKoflPn/Qr+Hk3RVGZHJjxMsdvgw+AuQDW2mNyR3hML4DxiJrPgqrs8jYByM6bKgTQH8AwAEMADG366g7g4eio9E0m7AsEcAJAJKvGUDzwbj924P8OZcz7p8b94BW3wVH2em4CgeBY+sjP5z0kpie+P3nmpwAepihKY/OkbdBUoDUEQCiAfgBSwH13huyMlYtus+bG9nSHk+rirLwjeVO7gxEfXREaiNa9QDmA26Oj0o8bvtDUG+ooAG+27KOi/u881e+1l2I3fBeX7T7uNRXlYvukBALBKRBqlYiWHf5f5rwnTgIQUxT1g7VzNdWg6970FQambUVo01e3prEgcC9EpojNWLnouKU3dXhhys6bKgIwCLdEqNkLsqZDYymA2Oio9OuGL9Bp4rsB/A02crsE3irexMwdEzenvnLFbUjmTWGkLydvHoFAsBvdVQU1feTnYvfPf+4NAE9TFFWt+3pccqo7GFHpDkZgejT9aShAHfm31h8yVi563NKbOpQwZedNjYTxNlwfsJsIfBrAuOiodKNDOzpN/DSAL2xdgLot5TgVMn1h9MbUD86JYu+nKacrm08gEGyEr6UxpDHzr+y5i176+9TVqR9sOxILfQHqCuXX6gAEZ6xcZFGktFMKU3beVG8Ag2EsQl5svmNtsA3Ag9FR6Ub7wnSaeA2YUEjr8Own4cXt+nXCxh92nReN3FYtEHfk34YIBEIb+KkrlIMbT9ynueJ3BEAegK6YPD8nY+WizZbcwGlUXnbeVD6A3tA/CxoGtgMNLOc+AO/BdGTL8iabp1gzMW/Y11fAd18pEQTvJKJEIHRuqgViF4kg+M2clXPHxCWnroSJskFdgAUALBKm9rCLx9QUmLANzNmQyHHvj8U8Eh2VnmI4SKeJ/cAEQ1iW2e03soQX++dXcRu/LzvlPn4t6bNEIHR+3DQy7W2yQ49Sl73XgcnH7GoRuGoA3TNWLqow9wau2l7MATACzi1KAPB9dt7UcYaD/PiKagD3Aqi2ZDLeoFV5X2cdXFsp6PYCESUCoWsg57lTlYJuL7j2LnUB8BrX9nCAAExOE2vYU5g6AkIAf2XnTe1p+AI/vuIKgIfA5GC1CyWeUgivgb9uuHx5bqFLn/5cPxiBQHAchS59+jfyPBeD2dI6zbU9HLCAzclYF6amyDpHVt61lQAAadl5U40iaPjxFfvAnDm1CzXg7YIn/1n3R5kw9DkFT0S8JQKhC6HgiagyYehzrr1LfQC8zbU97VFz/TKU0lo2pxwRl5zK2i/k9vCYHrbDnPZmAIDfmoI19ODHV3wP4NO2bqZC7smHR9SvZ6ql80uEEeFcPwyBQHA8JcKI8EaeZyKY8/XTXNtjSM31yyg8vBPHPnseF1L+h+qCXLaXmMXWRPYQptl2mNMR3AXg81ZeewnAztZupPq9VpJ69timcmH3/2vkeRBviUDogjTyPKhyYff/c+1dKoSTeE2NVeUoPrmvRYyK9m4CXc+0dSrK/I/t5R5gayJWo/Ky86b2A8C6DDuYJ6Oj0tcYDtJpYi8AR8DkX916XwLGF1Gjtrw3dsMa92z3uI9I0AOB0HVx08i00bKMF3mXPT8FcB5MmTSH0lhVjqr8Cyg9cwTy4sttXnvb8o8g8g9ic/meGSsXFbR3kaOj8mawMUmjjGbZLIv4Ojtv6h2Gg02dcO8FoFfSnur/ev6Z8qKfKwXdkogoEQhdm6YIvSTX3qUUgFWOWrfZM8r68X849fWLKNiZ0q4oAUBV/gW2TXmIjUnYFiZW+g39tOYKqiQKlk0zGz6ALdl5U40O8vjxFQVg3FUlAMB7UCW8Bv2z9L/tC667RHW13AUCgWCC6y5RUXKe+xIAG8E0B7QbNdcvWyxGupSeOcK2SfezMQlrwpSdN1UMYAwbc+1KK8GaLy+xZZo1+ALYkZ031d/wBX58xREAiwGAGvDulZOlN3+qEgQtI5F4BAIBYCL0qgRBy5q8ps/suRatkJstRm6hfRE5PRFhk29l88iLL6OxitW+hnFxyakhtk7CpscUz8Z8RddluFGgxpZ1Zcg4aPdGkG3RG8Dv2XlTjcoK8eMr1sN/zEeUz7Bjz+3dNrJI2GuwFfMTCIROSpGw12AV5ToVTCO9elvnaw3fiLaL0zSL0W3LP0LMktcQOmISggaO0LuG5e08Cix4TWwKEyvbeDnna1q+X/X2BYvOm05nVWH3zpssPhImAvja1Au80dvkEHh+WyMIeK6B703KhxMIhBYa+N78GkHAcxkrF9UD+Nle6/BdXBEy9h79Ma9AIzHSDXAwDHaoyjvPtlk2awErwtTUM2kaG3Ndya1r+f5GgRr/7Chq9dpGGY2Mg+VY/WkuoqPS8cjsLEjrWe/Q/lh23tTndQe0Wq0LgO6T1n3iWiYIG611yv5dBAKBK7SgUCYIGz3x148Hg/nl1rzwZysw9Jr63LPISIzaou7SSbZNmhiXnOpmywRseUzjALizMdGutBK9n9959TKKrstafi66LsPunTex4umTGDtkL5Y/cgZrV986X+zV2y6dMz7Mzpuq+2vJQwD+kPK8l0oEwaw8N4FA6FxIBMHuUp730oyVi64A2GWvdQyFqSL3VJvXl53PtPejuwEYb8sEbAkTK94SACQ+3sto7KuPc/DHpkI8mnAE907KwIqnLmB3mun6qsNj/Ntbwtr3aWN23tQhTT/fufLgtv8qBd3upym7dg4hEAgdFJoSoFLQ7f7Jv6wSAPjGXusYbudJsvdBWmrUpBtKaS3y/tuCq3/om8L3sksLqbtsuZmtT1XWhOnue8Owc3sxso7dajC7O626VSHSZdb8YLbMMIUngB21DUcXAcjddePGo8Uek7rZc0ECgdCxKXbp2a27quBxCvgOQAmYzras4xvRD6VH/m75+fzGL9Bz6my4evtBUVeN8gvHW92y6zbSqtZz7THVlptt9piy86YGgek+ywoidz7een+4VfeOiLV788iI+sZT8wH8VM0XP6KiSB9AAoHQOirKBdV88SMZKxfRsGMQRECfoXAL7dvyM11fiat/fIMLKf/D1T++aVWU+F6B6DY8zh4mDYlLTu1u7c1sbOXZpIymCAt3x6qvBrV7XY9IAWbND8aqrwZhU1osxk+0q8cEAKio/evjies+61EmDBti+2wEAqGzUyYMG3L7r5/GAPjJnutETbWshirfKxDDFq2Ai6ePRfdZgNU7aWwIEyvbeIZh4dOmd8e0eD+j62bND8bXPw/Djn1x2L5nEl59eyimTe+Ovv29IXK3e9T2ieio9EsNPM8lNYJAV3svRiAQOj41gkDXBp7nkoyVi/IA7LfXOr7hffWSZ9siIHoShi1awXadPEOs1gY2zpgms/EEh/aXYcVTFzBrfjBGxAYispcnVrw5BBcvHMGNArXetXET7PpmtsWvk39Z5Z0v6Hafxm49FgkEQmdCAx4qBd3um/zLqpcVV7EOTH6kXYgYNx1uvgG4lr65pYp4M3yvQIiHjEbw4Fh4hjikO88d1t5oU3Xx7LypEQAK2HiCFU+fNBng0CNSYCRMX/88jAtxUgPo/tSRe+JOu4/dKuX7kKRaAoFgFp50LT1cdmSm9orvfgBlAOx+QC0tvY6GyhIIXEVw9fI1S4xopQJ8F1Y3g/plrFxkVDPJ3tXFbYpVb6ZRRrcadWcoSgBTEYKDIq//RkelV8j4XnNIpQcCgWAJDXxvvozvNSdj5aIatNHbjU08Q8IRPDgWAX2GtipKtFKBmuuXUXxyH85t+grHPnic9dp51txk61beODYsv3TRsha/NwrUmDLqIGJGe2DCpGAMjfazV/6SLusn/vpxcJ4g5A5S6YFAIFiCFhQqBCF3TPz142DVFWwAS1W4LUUprUV9SSHktRJU5Z03Ga1Xd/Mam2dP42BFNKKtwsSKx+TuwUTXbVlXZtF9WccakHUsH48u62FvYVICSKMhmFjNF9tdAQkEQuejmi/2pyEYBeBvAHIwFRLsSrMQScuKUHkp26xK5NLS6wgeHMuWCVZ5TFafMTW1hJCwZX0zl3PrUJAvxZ5/b5qVVAsAq74ahGnTrQ6ZN4d/oqPSpw/bkLLtjPtYVpohEgiErscw2ZHtZ+Yl3heXnPoHWGxFrotSWouS0xlmC5EhfK9AjH72EzZNCspYuahCd6A93bHFYxrLpuXN9O3vjb79vTFtene89QGNSxdrkX+1HpkZFa0K1cDBvvYwRZe/Jv+yyiWfHzDK3gsRCITOSy0/YNTkX1a5KK7iT9hJmACgaO8mq++l6yuhlNaymd80FsA2S26wJfjB7h/SInc+hsf448E5EVj15QgcOTcZP2+OwbOv9ELMaA8AQMxoD4SF27WOqhbADjXlcnuZMIyzOHUCgdDxKROGBakpl9sBpIGJ9GUdF08fvSoQ7REQPQm9H1yqN1ZfUsimSRZv59kiTDFsWm4OzUK18NEorF0/FnuOT8BLb9i9R19mdFR6iZTvs6iR50GSlwgEgtU08jx4Ur7PooyVi6oAHLLXOr4RpoWJ7xWoV7Q1cnoi+t+biODBsfDud6uBoLSsqN01LMDizuZOJUzN/ZXMDQX3D3BF3/7ebJthyF8AUMv3Y6VtPIFA6NrofJbYLWzcMDy8uXHg6Gc/Qc+ps1vGdZsEeodGtXxfeSmbTXOGxSWnWhTKbJUwZedNDQPAWmG6RhmNPzYVtvRXqqxQmLxm9ae5uKzTSNBB/Dvx14+HSwQhPRy9MIFA6HxIBCE9Jv768XAAu+21hnf3nno/C9zcW0LAPQJvFTivu3QStJL5vPUMDmsZlxdfhlJqWRpPG3gBiLLkBms9JtbOlxplNN56ORvvvHoreqQgX2p03aH9ZVi7+gbmxGfij02s7n+2RSWAszKe50wpz0foqEUJBELnRcrzEcp4njMzVi46C6DYHmuI/IP0tuyqr11s+d7Qm6ovZT5PvbpF6I+ze84UbcnF1goTa9t4h/aXmRUW/vUnl1q+f+fVy9i98yZbJrTFnuiodK2M5zVBTRoCEggEFlBTAsh4XhOafrSb1yQeMrrle0n2Pr3XAqIntXzfUM5oo2HQBMvnTMMtudhaYbJokdZolNF6gtMaGQfLjUoTrXjKIWWJ9kz+ZVVglSBomL0XIhAIXYcqQdCwyb+sCgSw115rGHpGul1tdb0j3XOmwH63HBuWz5kc4jG13yzJDC5drNUTnGnxftixL84oWVYc5GayO+3JTNbzew3Zq6TcJkh53naNRycQCF0LKc/bXUm5TYAd22AYnjM1VJa0fO8RFNryvW5ZouZzJr5XoN41LDDckostFqbsvKmeACIsvc8U5WVyvZ+XLO1rMiepb39vvPr2UDz7Si+98dKbjWyY0RqF0VHpeUqe2ygZz4vs4xEIBNaQ8bwESp7bqIyVi4oA5NljjbbOmbxCmI9w734jEDk9sSXQwTeiX0v0Xv97E9k0p1tccqrZAXPWeEwD2LL0ZKZ+v5D2Qr/veSBM7+eiGw1smWKKfQAg5XlPJudLBAKBTdSUAFKed3Mvu/32Wqe1cya+iytGv/w9hsx5CqEjJrVUeeC7uNqzeaDZXb+tESZWtvFMYdjF1hCRSF8g+g+0W0tgAMic+OvH3er5vj1tn4pAIBD0qef79pz468fdABy21xq650xuoX31Wlq01XeJVipQeHgn8v7bwqY5/cy90BpXgDVh8vHR75X1z44iPDin9V1Cw/YYnl52jeDO1IAXJeV52z2Dl0AgdD2kPG9vDXhRADLttYZfZH/0n/s8vLpFmFX7jlYqUHn5dEsHXN1qECzQx9wLrRGmgaxZabB1986rl1FS3Iip07sbbesVXZch+aUzemORvTzZMsWQRgDnVJTr8nq+n907TRIIhK5HPd/PRUW5juABXwKoA8D6L8Eunj4I6DPUrGslV87iyt+pei3ZTfVrsgG7CpP51QHbwVRV8LWrb2Dt6hsAmAKtvXp7Iv+qFFnH9M+TekQK7FmOKDs6Kl09bMN8cr5EIBDsApPP5Dn5zMpFn8clp54AMIULO6Sl13Ep7ddWW2SwWGm8v7kXWnTGlJ03lQ+WIvIAICzcHY8ua73ST9axBmxZV2YkSgCw/Hmztyut4djkX1a5NfI87LoIgUDo2jTyPPpN/mWVG4DjDl+7qhy5O1Jw5vs32uzbxGJpooi45FSzzl8sdQfCALB6sLM4qQ+uF0jNbgoIMPlOdm4MeAKAu5Tvw1o9QIIdOPzPre93bgByzNiqn/kkENn0i1tAMDDgNq6fgtCFafqMcQdwylFrNjcSbK9nU0D0JISNnGyUqGsDfDA183Lbu9BSYepl4fXtInLn460PojFoaAE+ez+/3esfXdYDi5PM3qq0ltM0JYyo5gd62Xshzrh4CnjlYevvX7MH4KKu7eF/gCO7gCNWFmbe+q3x2MwngYExwG0TLJ9PlxoJkGhFEfrPt98Sy9b480cgdZVl8945D3jyLdueyRKssdGe/GV591ZHU80P9KIpYQSAs/ZeyzCwoTXCJs9Bt+FxbDYK1KUPOoIwAYw4LXw0Cvc8EIaTmRKczKzEscOSlqoQMaM9MGFSMEaPEzuizYUKwFUF5fpMp+6/lHXAtvvPHnWsMO3eDHzzun3mbharsdOB2UntiwSBwBKNPA+egnKdwgc+AxN0JbLHOqYCGwyxsyA109uciywVJrvm9PgHuGLa9O723qZrj9zoqHT1bRvmOrwRosOQN5r2HCzh9x+AabNtm8McLp4CPl8BlDmgovyRnczX0ncd82wEAgAlTxRzauUiOi459QIAVuOzm8nd+InJcb5XILqNnOIIQWrGrDpHTuExORk5ANBIudt9v5AzTu63fY6yQkY07HlGY08vqS2+eR0oLwbmP+v4tQldDp3PmnOwkzDxvQL1vCW+VyB6Tp2NwL7D20y0tQNh5lxk6VaVWZPai9NZVfhlbR5mTNln+2StkwsAMp4nqxUMnYoju9iZx9btwLb49i1uRKmZrd8ywkgg2Bmdzxq7HYr59tavBkTXV+Ja+mZc2bURxSf3oex8JqSl19mMwGsNszTEUo8pxN5WG3I6qwpns6uxdeN1o9YXduLC5F9WeZ/m+/o7+lkdQukN6wMHDDm0E5iZBLixvC3+7VvArg0Of2uM+OZ1oEdvErlHsCv1fF//yb+s8lZcRfs9gKxE5Gdc/46ur4Qkex8kJrpbBERPglDkAc+QcLh6+8ErJIItz8qscxpLhckhXgQHYqTLRRXlGt3I8+icHWuvnrd9jmbKCoGcE7ZHs+mye7NziFIzn68AvtjOvvgSCE008jyEKso1GsBVe63h5htg0fWGjQV7P7gUwYNj2TCF3TOmpnYXdutLVHRdhuNHK7Bze7HJhFoHck1NCe+gO2vFh50sf+hn7mVPmC6e4nb7zhRlhcyZ3Li7ubaE0EmhKQHUlDCaB3xnrzX8IvtjUOJraCgvRn1JoZHwOBCXuORUMYCKti6y5NOXdW/JWjHqEWk30aiKjkpvGLF+Vl8afMpei3BGQa55SaiWsGsDMPcpwMLfyIyQNzLeiTPy66fAiInEayLYBRp8SkUJ+3r3LuUrrobchJnbXZbg4ukDF08f+IY3VZS7NxGNVeWou3kN8hoJ6orz2qyLV33tIlseE5qejzVh6sbmG/VowhGLPaNnX+mFodF+GB5jt+Of6wCgpFwjNBTfXmtwR3aGfeY9f9x2j+LkfttCwsdOB8beCQweZSySpw4ClaXWe2P22LIkEJrQUPzmzxwPADdgB2Eyhcg/SK/3Eq1UoLGqDA2VJZCWXkfFuWMtkXwqWT2bS3cHcKatCzgTpvZEqbmA65Z1ZS1jDkiwvQ4AKsq1mxadzGGSNwL//mb+9QNjzfeudm6wTZjkjYxXYg3BEcAzq9oOUGgWlFFTgI1fWXeGlZNFhMkeLFoBPLCEays4RQsKKsq1G6XVuoMRJtZcE0vgu7jCMyQcniHhCB4ci6g7ZkEprUV9SSHktRI2l2p3e8USYbJ7lNqjy3qgT39vDBzsi7Bwd1zOrdMTJgdwHQDkPFGgrRM5HTknzPdIgiOA6fPMF6acTCbaz9pKENZ6SwNjgZc+N38b0TeAKdFTX9N+ZGJwBLDguVs/9x5s3bMRCGYg54kCtRTlg6bPIGfBkrYZFuDX3gVOI0zT4v3Qp783RsQGwD/AoQlfutwAADnPwyEp0A4lc6/51971MHOmYgm2lCiyNq/q6fesO9t6/A1GmEyJDxf1/whdHjnPw0dJuQ6hgCKubXEAvu1dYIkwtatytrA7rbqlwvijy3pg+Ah/eHjomxcotrtg3QAANQSdK1Rc3mjZ9lX/aOag/8555t9nbYkia/Oqlr5rvYj4BnSIAp+EroMaAiENQS+BHZNsbYVWKtjKZWLVY2J1e2tavF+rrS6YRoE3jMYd4ElVAQBNCTpX5IOlJYh6DmD+HBJrvjBZW6LI2ryqUZz0VCMQ7AJNCfg0JQgTAEfttYa09DoaKkv0xuQ1EjRWl+uNqWT1JiP0hj3+DlstMHzbu8ASYWI16mDVlyPw1Asy7N1dYla7CwBY/Wkuho/wx20jAiByt4t2VAGAmhJ2rqrilmyV3TnvVli0pdt5WQcsF6aCdivgm7bR1vB0gnOQuor9VhnJaztcoIqaEvJUlDDIFSi3fTbTNFSW4Oof39h0v6OEyZIPYNbPXcLC3bHw0SgcOTcZq74ahJjRHm1ev3b1DSx/5Aw+W3WBbVOaafaYOo8wWbpVNkQnIKh5O89ctn7LbBtawk0rgh6GcBK0RCDYDZoS8NSUMADt5PfYgkcgq4HVttDuVp4lH8AeFlxrESJ3PqZN746168diU1psm+3WAWBErN2C5qoBQA1B54kVP2vhzoBh9JmlImDptqE150sBpLEwoXOhhoBSU0IfAJU2T+b8+LZ3gSVbeXYTJl369vdG3/7emLuoJ05mSrB5fYGjShRpo6PSmz2mziNMv/9g/rVjpxsHFFi6nXcu0/ycphorcyO6RZh33f19rZu/NV74gpQmItgFmhJQakrombFytiIuOVUNy+uYdiTa3X1zOmFqRrdpYMbBchzYU2rvnKaWSIxOUyfv4inL8oOGjzUeszQ6z5ISRXKZdc/lZreSjQQCJ9CUAGoI3Zp+bIAdjk4MiZyeCJ+wKACA5Op5FO3dBICpLN7/3kQAQO6OFHvU1Wt3p86SrTwve79RrRE3IQivvj0Ue45PwBvvsfxb8C1aam50mqoPlvZL6tFK12NLt/POHzfvOrmVnjCpWUfoZGhBQU21xGLXOGJNgZt7S6UHc6qPS0tZy/1tV3cscQ0cHkK9e+dNnMy8teU6fUYYHpxj5jaO5agc/Xx2xdL26cERrUfUWbqdZ2uJIgKhC6Km+M35k3Y5u7A1ok7VyJpZ7UZ4WyJMLmxZpcvl3DoU5EsBAEHBbi0FWn9Zm2cURr5lXRmefaUXFj4aZQ9TOO21wTo5Jyy7fvz01l+zdDsvJ5MJA4/sz/W7QCB0GGhK0Px57PBfkl29TQfKCUUOPcFpwRJhYn3/xJT4PPtKL4weJ241t+mz9/MdUcy142NJCSIAGBjT9uuWJNsCTCXz9oTJzcp/9PJGsp1H6HTQaElTYbWUtzkIXNxavpdk7wOazphYylsypF0nh7N8ndNZVSbF57P387F1Y0Gb954/Uw07YOVJvBNSI7G8gvbAkW2/bul2njmVzK0NYqjpChG1hK6GluI1H27TjlhPbW3wke20+1slZ+FnGQdaT3BuL/ouN6fWHiYpuXovWMfc4ANdHh7Grg3mlCiytnpDdQUpttpZIG0vWqDBd6ijUF9iWXI7yz2Z2oQzj6m2tn0diBntgT3HJ2DP8QmYFn9rD9TBrTA6Hmy3T7cWc6ICx05v/xpDJOTvn9D5cEQ0sFuo6ahmvosbAqInISB6EiKnJ5q8pq0Ot2zjFAk7MaM9sPy5/nD3EODDd863JNTOTohsKdw6Y2Z4q0VfCTrYo326tWz9FpiZ1PZ5UHcroiwtSeIlEAgthAwbi/qgUACAl06iusg/qCV3SZfgwbFstlQ3G6cQptkJkS3ReLMTIpF1zLgWnjjITe/nKomCy75Nzou92qdby8n9bYuINZF75ibxttfaokYCJI7h+h0iEAAAFLR2XyN0xCSuH9MsONvK8/GxLfq8skLBlenOjSXt0x1Be5XNre0Ma805GoHgxPBBa7i2wUGo27uAM2HqoxPufSW3ruX7oOBbntHJzEo0ymhczq1DRbnc3iZxE7DPJpaWIHIER3YyFc5bI6SHdedMH/9f2/MSCB0MSquxu8skLb1u8svBtJszaslWHg07VX/IzqrCe2+eBQDUVt8KitiyrsyRgQ4dv2utpSWIHMXV821H0Y2907oq41++Crz0ufXRffl2a59CIFgMH+pmj8luSZrXDmwzO4jBLbQvPJrOo5oxdQ5lDywRJinsVFgw61iDxRXEC/KlbCfZduweTJaWIHIk7ZUosjRHqpmcTGDFw8ATb1jWGO7UQeC/P6wTw47Erg2W57O1RwdswtdR4GvVzVtcdjs8tySyTl58GfLiW+e0rUX02QPOgh8ie3lytXRrdOxSEpb2QXIk7ZUochMx+SzWdDItKwRWPgoMjAWmz2POrAy9M3kj8/7I6oFvXuf63SDoYo8Ots10sBwpgZZuLkXklMcKht6TDdS0+15YMFk9HFCKnUN8m7+hoO14FcYtaZ/OBe2VKLp7HhO4Ye0ZWU6m84TJEwgWQkELgVbZHNHVmT9nzcISYbJ79IEpZs2/1a20/0AfeHoxR0G6QRIs0eIx8bVqqKkOdORkaft0Lvj3N0Z8WstpchMBC55jghoIhC4GX6uGAKrmz1iHFILkewXCt/cQvTGVrN4RibTt1kKyRJhYrb4dKHbFqq8GAdDf1gsUu3KVn0Rl5031jI5Kl/K1aq2aEnYcl8nS9umAbd1Yrcn/KSsErl1su0TRuLuZLT9nPSsjEOwEX6vWCrQqaVxyqgh2PGPSxbf3ELODGRqrys26zkxq2rvAEmGqs+DadmnuUOtkeAOQCqDWKtCB9vL277D8HmvzhwAmCm7sdMu9tKwDbQsTwFSKyDnlXNtywRHAM6vat51AsBIB1FqBVlULwMoQ0/axRVxE/kFsmtJusVNLItE6V78i0wQAAF+r7jiJbtaUIAqOsL0Iqqk27O2x9VsmEKEt3ERMCPhAx5dBMcnMJ4EvthNRItgVvlatEWhVEthRmGglJ6cxpqhp7wJLPCaHFaorui5DzvkaXMmt0yv2GtbDw969mLoBOCfQqjqOMFlTguihx2xfd6iVpXzaK1EEMB5Z8vfAz6vYD3c2l4GxwIJniSARHIJAq9IItapywCWQa1scQLsekyXCVGNva09nVeHrT3PbyWnKt2cXWzEA8LVqh/RDsRl5o3UliHr0tn3tkB6M52VpFN2RXeadbbmJgCffYhoUOjogwpbzNwLBCvhaNc3XqosAF7Gj1tQt4upgatq7wJKtPLt6TL+szcMjs7PMSrT97P18/LI2zx5mhAKAAGqHtza2ipwT1oVX9xzAzvp3PWz5Pe2VKDJk3N3Amj3Mlpo9CY5gBOmvy0SUCA5HALWKD3U+gDCHrWlto07bqWn//WBxMmv5Y1Nhq63UW8NOLdbFAOCmaahFR0i4tbR9OgDcOY+9tuT9o6277+xRy864QnoA858F7lnIFG/99VP2agIufZfxIMmWHYFD3DQNtS5axTkVYOV/qvZRO88ZU7tbeZRWa17dwNP50xYCSGXbwiqJAlNGHbTq3keX9cCy56xom9A6v0VHpc8dsPG3UxdFt9ntHwiBJQ7/w/xpbkWHF7649f3gUdbX2CMQWGZA46nsENWNh5RXg94HMMde69BKBRqrmPqjLp4+cPHkJJd33uG3F25s6wJLPCZWA9mbOZkpMRrrESnAzLnhGBrth0CxG8LC3dEoo3FofxlWPHWr8Oba1TfYFqZIABBqFSUUtNEdrvpDV0N3y23abK6tIRCsgoIWQq2iREtRMgA2hsu2Dd/FFZ4h4Vw/ckl7F1giTBWOsHhavB/e+iAaInf9QuYidz6mTe8Oab0K77x6q7Dg5dw6NrfzegGAi1ZRyNPSoCmn6KNIIBA6MTwt3fyZ0wCgp73Xo5UKVF4+jeprFyHJ3tcyHhA9CV7dIuATFmVv8WJVmErtaWkzM2aGG4mSLoOH+en9zHKV8aDsvKnuS4+qLvNBa2kIiMtEIBDsCh+0VqhVXVZcDaHBpKzYjZrrl5H7+3eg6yuNXpNk74Mkm/k+IHoSIuKms51Y28zN9i6wJCqvHLB/71/DFuqGGIqQtJ71ALqeAq0qm69tt8kigUAg2Axfq4ZAq8oGYJccmGZqrl/GhZT/mRQlQyTZ+3AmdRXbpYgAoDFj5aL69i4yW5iio9JVAFjv2mfY/kLWYCwIl3PrkHGwHH9sKmxpKNhMbk67AR6W0kuoVWSLNA0dI2ScQCB0aESaBpVQq7CrMNFKBXJ//86ye+orcSZ1FeiWouesUGTORZYeolwHEMKmlYFi/XqFGQfKUV4mx5XcOlwvkGJ3WtvpU1vWleHVt9m0CP33LlyxI2LT31VVgiBWn5VAIBAM8aJrqvYuXFEXl5zaz15rVF4+bdJT8u43AkJ3L72zJl3o+kpUXj6N4MGslQgz60jIUmFqd2/QUvwDXNEjUoAbBYyntHa1BcmXTVRJFGxWJB8EAO4aaTFYFmECgUAwpOmzBgAG2muN6msX9X4OmzwHYaOmgO/S9Ll5byKU0lpUF+TiWvpmPREryvyPTWEyy2OytJ245aphBqPH2ZZPUlnBqqs5CABEWtkVezwrgUAg6KLzWTPIXmvoekRuoX0RMW76LVFqwsXTB8GDYzFs0Qq9cd326ixwzZyLLBUmy8ozmEn/gZYnecWM9sCs+cFY9dUguLuzGtY9IDtvKuWiacyyx7MSCASCLi6axqy45FQKAEu1wvQxDGAIi72jzetF/kEIGXuP3pi09Dpb5pilIZZ+ottFmJq70pqiR6QAo8cFtHSvjezlac/q4gDgAaCnq1axR6Rp0DTyPCwVbwKBQDALkaZB46pV7FHDszeYzx7WsabdhZuvfpFzkX+wxXO0gl2EySw3zFKaI/OmxfshPNITffp7I7KXJ5fdbIfztar9fnRlfSPPg5OaHQQCofPjR1fW87WqQjUwxVFrVl+72O6ZUVXeeb2fDbf9bMAsDXEKj6lvf29k5021+n6Wqz8AwEgAOz3p2jIIQYSJQCDYBU+6tgyADECMvdYwrIcnyd6HQr8g/eAH3devnEXdpZMtPwdET2LLFDXMjFOwaJsqOiq9AUCxJffYi8u5dVj9aS5mTNmHOfGZKLouY3P6EXsXrpCLNA2XuH5OAoHQeRFpGi7tXbhCDjsLk1toX72xor2bcOyDx5G7IwVl5zNbvvL+24LcjZ/oXevHVpscoDBj5SKzet1ZEzVwGU19i7jE3V2gF1qec74GYeGs9RcZkZ03lVp6VLpXoFXfqyY18wgEAssItGq4a6R7mwIf7Np3JXLCvUaCAzSXIdrX5r1+kawVyjb7F31rDvZz2bLSXKokCuzeeRN/bLrVgycs3B09Im8Jxp5/WU2x8gXQW6hVnPSiq5W2TkYgEAiGeNHVSqFWcRJAfwD+9lwroM9Qo0g7c+j94FI2W2PkmHuhNcJkt+2tRhmNjIPl+GVtXsvW3OXcOkwZdRArnrqAd169jCrJrZylmXNvVcDdnVaNRhmrHdFjedDkeWrq6uz1vAQCoeviqamr40GTB2CsI9aLnDADYZPNb/UUNnkOm4m1AHDB3AutESazVc8SGmU0xg7Zi+WPnMFn7+cj53wNACYwQtczunjhVm28qL5eenOcOikxay0zmbh/wQslXnSNXSIRCQRC18aLrrm2f8ELJXCQMPFdXBExbjqGPf5Om96TW2hf9J/7PCLGTWfbBLOFyZrDk3NsWws09VuK92upjXcltw7TpncHANwZ363lPOn0ySrETWBKsQ8YpO9i5l2ub3mNBSYAgKembq9Aqx5JzpkIBAJbCLRqeGrq9jb9GOfItT1DwuEZEo6oO2ZBWnodaqUcirpqCFxFcA8IsVerCwC4aO6FFntM0VHppQDar5tuBVPu6t7yvW5gw/ARt7Zfd6Xd6jHlH+CKafG3+jMd3Mdq8fM+2XlTQ1w08uPumnrSA4NAILCGu6Ze7aKRH49LTg0FYLfire3hGRIO3/C+CB4ci4A+Q+0pSoUZKxdJzb3Y2qoGdvGaBg721fv5dFYVAH3P6EaBGpdzbx37xMaJW77POtbAdtj4RBet/KCnpo7VSQkEQtfGU1Mnc9HKDwJgLUnIFDXXL9ujp5I1mL2NB1gvTGetvK9NDCPt8q8y/aQMPaOC/FvCG9xNpDdH89kUS0zau3BFpb+6/Iw9npdAIHRN/NXlZ/YuXFEJO1d8yEvfglNfv4isH/+HwsM7IblyFkop6z3szOG0JRdbe3Byyl7W654n7dxejAfnRABgPKPm86fN6wtQerMRWzdeb2mX0czJzMqWsyk2zAEAd039QYFWPZ6cMxEIBFth8pfqDzb9ONle6zRWlbdUBpcXX0aRTpVwt9C+COwXDZ/w3vAKiWCz5FBrWFQU29pPWrtV3mbOkxhhyjrWgCqJApUVCpQUN95a/FgDso6Zro7EcuPAiOy8qQOePSLd6qmpfamGHyC0fUoCgdCV8dTUqtw10q1xyamDAITbPGEr1N1sPaC4WaiamyN59xsB/6jB8AgKhW94X/MWsIyTllxsrTDlgqnvxFqphWYMI+2mjDpo8Ryns6owPIa1fLW79y944dOoTX/eqOEH9GL7eQkEQtciQF16Y/+CF07HJae+YM91LGlVUXfppFF9vLCRk+EZwopuVmasXGRR3wyrzpiio9JpWLhnaC6G50mWMmt+MNw9WN1ymw4APnT1UXs8L4FA6FrofJZYXorBAgL6DkPY5DlGdfLMQZK9D2or2mW0gsU7bLZ8gh+FnRLDdM+T2iNmtAcmTArG0Gg/9BvgA5E7n21zxmfnTfX8vyO1qSJNw1zSn4lAIFiLSNOg8aRrU+OSU31g5/wl3/C+8A1nutUqpbWoLylERe6pdmvjNeMVEsGWKQ4VpmNsWW3I4GFte0yPLuuBPv29MSI2wKhfU5VEgZOZTAUIloIgXADcI9Aq/whWFZUXuPYLsddzEwiEzk2wqqhcoFUeoIFZsO3z1yJcPH0Q0Gco1IrGFmFyC+0L34i+KD3yt9H13v1GsBkQYbFW2PLGHGHLakMMeytNi/dDbJwYvXp7tXl29MemQrzzKhN50iNSgPETg9nyoB7cu3DFb8M2pBwHMMNez00gEDo3PrTk+N6FK5RxyakPcrG+7rlTyLCxCB0xqaUCxPmNX4CuZ2onBA0axeayGZbeYLUwRUel38zOm3oDQA82n6CZVV8NgoenAAMG+ZjdxVa3RfuNAjVOnZSwVaJoenbeVNHTR2rWetK190j5PmQ7j0AgWIQnXavxpmvWxiWnuqPp7NrRVJy75by4+QS0fC/yD24RJQDwCOzG1pI5GSsXVVl6k60fsHbzmqZN7464CUFtilLGwXLs3nmr3cX4ifp96Q/sKWXLHA8Ad/OhPu5HV1j8JhMIBIIfXVHFh/o4gLsBuDl6/caqcj3xUStupeDUFOo3jWApGg8ADllzk63CtJ8t69tDt6VF0XUZZkzZh+WPnMGKpy60vCZy5+PZV25FdG9ZV6bXJsNGHty/4IUysbr0PwpaRz02gUDoBFDQQqwu/W//ghfKAMzlwgbaIMruWvpmlJ3PhOTKWVz5O7VlnMVW6gBw2JqbnF6YTmdVYfWnuRg7ZG9L7byAQFe9ig+67S6GRusHTjQHQrDAA9l5Uz3d6fpNHnQdq42fCARC58aDrqPd6fpNTdF493JhA99F30mj6ytx9Y9vkLvxEz1PisVW6gAXwhQdlZ4LgNWS3oZ8/WluS4mijANMMUJDz2j71lsHesNj/BEz2qPl583rC9gyxR3AQy5a+d5Adaldn5lAIHQuAtWlZS5a+V4AD4GJ9HU4Iv8gs3KaWGylXpyxclGBNTeycYh/gK2nMMX0GaEt369dfaNl2270uFtVxXenVett2enek3WsocXTYoGFexeuqAtUl2zjQWPPxyYQCJ0EHjQIVJds27twRR2A+VzaEjV1VpuvR05PZLOV+n/W3siGMFm9uDlMvEM/bejQfsZZ6dvfW88z2v9faav3nM02L1nXDCZl500N89BIf/RVV7J2eEUgEDovvupKhYdG+mNccmpPABM5tSW8L4Y9/o5Jzylk7D0IGcpqzYR0a29kQ5isXtwc/ANcMWv+rWi7Pf/eisKbnRDZ8n3K90xR1yqJQk+kAOCz9/P1gidsgAKw6MCC57KCVUV26UlFIBA6F8GqonMHFjyXBWAxmM8QTvEMCUfMktdw2/KP0H/u8+j94FLctvwjRN0xi+0q49wJU3RUegGAq2w+jSG3T7nlAe1Oq25pBjgi9lYc/o0CNR5NOIIpow62JNnqohsgYSNLsvOm8vzoip+FWqU9H5tAIHRwhFol/OiKn+OSU/kAHuHaHl1E/kEI6DMUwYNj7dG59mzGykVWdyhkK1HUrl7TbSMC9BoI7t3NtFevrFDojWcda2h1Dt0ACRvpCeAuN43s+1DltRKbZyMQCJ2WUOW1EjeN7HsAdwEItXW+DoRNmsCWMO205xOK3PmYOfdWwtfWjdfxaMIRzInPNGoU2BYsbecBQNLehSvUgeqSv/ha89cnEAhdB75WjUB1yV97F65QA1jGtT0OZrctN1NarXnJohTV+tZodt5UdwAS2DGb+XJuHebEZ1p0T8xoD0yfEYqJd4SYXdbITDQAej575E7vHLeYzHJhKOt9qQgEQscmSFUsGyjPilVdETcCuAInOF9yEDIAARkrF7XaN6M93WHFY4qOSpcBMK+WupUYRuG1xbOv9MLPm2Owdv1YPDgngm1RApj37Yn9C144H6wuOkYqQRAIBF0oaBGsLjq2f8EL5wEsR9cRJQDY3ZYomQObxUjT7P20ulF4hkyL98OqrwbhyLnJWPhoFJsdbFsjKTtvqoevWvIpqQRBIBB08aDraF+15NO45FRPMNF4XYlttk7AZj+QHQC+tufT6kbhAUxri8THe2HUGDHCwh2+m+YP4BGhVvF9mCr/fC4/epijDSAQCM5JmCr/vFCrSFcASwF42zxhx0EDFpwUVs6YmsnOm3oCwAh7PvXqT3MBAMNH+LPV0sIWrgHos+zojMVZ7hO+U/BEXcldJxAIJnDVNGpjZAefoC57/wwgDwBrpbo7AEcyVi5qtzNve7rDdgfFP2FnYVr2HGt1nNigJ4AH3TSyH8OVeS9dcRvcm2uDCAQCt4Qr8/LcNLIfFfCei64lSgAL23gAu2dMACNMTgGL9fHa44W9C1doAtUla9w0MhIFQSB0Ydw0Mm2gumSN4mqIFsBLXNvDAX+xMQmrwhQdlX4RQA4X70Yzu3fexIwp+/DI7Cxczq1zxJKjsvOm3iXSSL8KVV0r5PLZCQQCt4SqrhWKNNKvANwHYCjX9jiYUxkrF122fRr2PSYA+M1R78Ll3Dr8sjavpUQRAJzMrGxJut26scBRpry1d+EKZZDq5hciTQPxmgiELohI06ANUt38QnE1RAXgTa7t4YAtbE1kD2Fizbi2eO/Ns5gTn4nP3s9vKVEEADPnRt4yZF2ZSa+pUUZj986bbG73xTZ5TSndVIWs1T4iEAgdh26qwusijTQFjLc0nGt7OGATWxOxLkxNzQOz7f0OhPW4lWz72fv5Lf2Y+vb31qtGrus1VUkU+GNTIebcexArnrqAr5si/Fjirb0LV9QEq4o/ddU0Eq+JQOhCuGoatcGq4k/3LHhp9sCwwAe5tocDMjNWLrrG1mT28JgAB2zn3fNAmN7Pf/9Z1PK9bjXyLevKkHGwHL+szWupPN681cdyE8HY7Lyp94o00p8ilFdYVTwCgeDcRCiv5C7qP/A3AJNyiiofAfAT1zY5GFZ3yuwlTOsB+9bp8Q9w1Wuvrus1xU0I0itftPyRM/js/XyT8+zcXgQW+eCTuP/kgeqSj0mEHoHQNWiKxPv4iZiJjwH4LGPlIjpj5aIlAN7m2jYH0ABgA4Bf2ZzULsIUHZVeDDt3tgVa95qKrsvQq7enWXPkX5WyWXV8IIBHjsx/6qdeiouWVZwlEAgdkl6Ki5kZCcu3A+hJUdTx5vGMlYveArAEQGcrWdYA5jxpJgBxxspFCbb0XjIFq5UfdMnOm7oAwC/2fod+WZun5w3Nmh+MLevK2r0vZrQHHnmitz2qR5QC6P30kfjx50Ujt1ULxC72fg8IBAI3+KkrlIMbT9x3cP7/TQWwhqKoK4bXxCWn3g1gK4CO3IWgAcDfYLbsdmasXNRoy2Tt6Y49hckDzIe0ea6LlVRJFJgy6qDZ19tRkHRJjo5Kf2f4hpQ/z4li76cpvj3XIhAIHMDX0hjSmPlX9txFL6eXFn03bW/aCiQkmdwpiUtOHQGmb52Ya7stQN5k8wawIEa6cCZMAJCdN/V7AI+x+EaZ5L03z7brJU2L98OMmeGOqq8nA9D/mSN3ia64Dcm8KYz0dcSiBALBcXRXFdT0kZ+L/X3W0g/67PgtvlqpoAHMQULSDlPXxyWnRgH4F4Azly5rFqMtAP7OWLlIao9FHNKPqQ3W2nl+APq5S4bMmh+MTWmxWPXlCEcWfXUH8MmBBc9fDlPmrxZqlY5al0AgOAChVokwZf7q/fOf6/3FpXO9q5UKFwAiAH9h/ZonTN2TsXJRHoCxAI5bspYDkAP4A8BcMGdGD2WsXPSbvUTJHOzqMQFAdt7UcwAG2/tBDL2mWfODMXNuJPr257Ti/JTnM+44e8Olz7ErboOjuDSEQCCwRx/5+by7fWUTnomb8VvvHRvHa4w/R98FkIyEJKMX4pJT3QFsBhDP4SMowbQ/3whgu8UitH4ND0AkEpLyLbqvCU638gAgO2/qUwC+tOpmC2huve4kgtTMRQDDnjpyT/wF0YjN1QKxkGuDCASCbfipK1SDGk/OTp+7LGb6/p2L9pXd7NHKpSkAHkdCksrwhbjkVD6ANQAedaDpzWK0GYwY1Vp0NyNGcQBmA3gIwAdISLLqs90ZhMkbwE0A5vVFt4EqicIebdRtZUV0VPqHwzak/HXGfex9XBtDIBBsY5jsyLbTcxe9tKvkxq937ds5qp3LdwGYiYQkkx5JXHLqmwDesqO5bItRt6ZXGgB0R0KSVZWyORcmAMjOm/odgMetnqBj0whg6LNH7my45tL/VKFr3xCbZyQQCJwQobhc2l+TF/PrA49/13fHxmk1SqU56SCnAExHQpLJCK245NRHAHwP9vrjqQHsASNGv1shRhSAWAAPgxGkbiau+g4JSUnWGugswjQMwGmrJ+j47AcweenR+5aedR/9ZQPP295BJwQCgWU8NHWaobJjTx+at1T2xPGDK37My+1nwe3XANyFhCSTbSHiklPvApPrZO3OUrMYbQHwZ8bKRZbVWrslRrOavnq0c8cwJCSdtfa9dAphAoDsvKmHAIyzaZKOzePRUek/DN2QmnZBNGo6yW0iEDoOfC2NQY3Hd56Zu/Dx09WS36P/2RprxTSVAO5DQtIRUy/GJafGgAnVNjd82NFi1MwhJCRNsOX9dCZhehDA7zZN0rGpDfadO2HuzmplvuvAQzdcogK5NohAIJhHD2VeZS9Fzvg/Zi97b3Da5jtLGmXWVnFoBDAPCUl/mXoxLjm1F5hcpz6t3K8BswOzBcDWjJWLKi22YP2aGDBCNA/mi5Euc5GQZFOhbmcSJj6AqwAibZrIudCA+S2oAkBJ0/flAMqaxsqafq4AUDq81+45AORj16/2PieKXS3l+5AtPQLByfGkazVDGjOXHZq3VPHUycMvfnslZ4CNU2oALEdC0remXoxLThUD2A5gtM71+8GI0R9W1aW7JUazAPSy+P5b3ADQCwlJalveAKcRJgDIzpv6LIBPbZ7IvkjBlFKqBCMsZU3f6wpP8+uV0VHpGksm12q1PwJYGb0x9bPzolEPqCm2zjsJBALbCLRqDG48/mf23EXPZ0rKN47e9ac1W3it8R6A19vIdfoAQA64FyNdXkBC0ie2TuJswuQN4DoAH1beItvIArAaBt5NdFS63J6LarXaAADfzPrju+ez1N2OXHMdYI0rTSAQHEBPxcUbMYKSsd/dk/hj3x2/TZQo5GwXZU4Fk+vETnmY9WuGgImkexjslz6qBdADCUn1tk7kVMIEANl5U98H8DIrk9nG3dFR6f9ysbBWq50GYOTt6z4/kiO6bWeloJsb128GgUDQJ1BdIh/YeGr6rrlPTZh3ZM/CP29cY8vrMGQ3mFwn6z7wb4nRLACWRApayodISFrBxkRc18ozxRdgajNxyVkwiW+cUHXfiINaaV3ogfnPKHopcr8mTQUJBOfCTSPT9lLkfn1g/jPyv4qu3WNHUQKAaQAOYP0a83Mc168ZgvVr3sH6NblgPs9eh31FSQXms9shONxjAoDsvKlrADxh80TWkxAdlb6BrckkM2IoAIFgStoHgwn3FAMIafozqGm8+XUvCF3gu3prxubKG/PePZe34YJoZByH7weBQNBhUOOJjHej+y8YFtpnfb+/fxuj0lh0lGwtBQDuRkJSrslX16/pD8YrmgNgkIPfkp+RkLSYrcmcbisPALLzpvYGkAuAi2SeQgC9o6PS24wqkcyIcQcjLEFgRKdb05/BTV+BuCU8YljhffJCwmp9Pvll713bf37msiDqaIFrv+4cvB8EAkGHSMWlm33VeWO2zHryq5h//5hwtb7W14HLVwGYgYSkDAC6YjQbDiiG3Qo0gP5ISLrK1oROKUwAkJ03NQXAIlYnNY+noqPSv9YdkMyIEYCpshuOW56OyBHGuEy484rHU2/+fPvmb7Mvuw3dWiYMs3tNQQKBYJpgVVFDX/nZmbvnLh/xaOaBhesLrvSxfVaLaQTwA4DJ4E6MdNmEhKSH2ZzQGc+YmnkXjBI7EgmAn0yMzwXTv34UgJ5wkCgBgPLgrj6qY3sfPDj//xSRiksfedK1jn5PCAQCAE+6lo5UXPro4Pz/02wqzLufI1ECmM+fp+EcoqQFsNLRi3ImTNFR6VcBbHLwsl9FR6XLdAeazode4up9AADpZ8kj6KJr7x1LSErtozi3ledwvSYQujY80OijOLf1WELSrxdqq1cuydwfw7VNTsJmJCTlOHpRrisPvA3HeU0yMHlLhkwH17+ZaDSoe/nRaE215MdXhw9Z2r/xdCan9hAIXYz+jacz37xt2LIKhfzn2//bPpw284ijk8OJtwRwLEzRUemXAaxz0HI/Rkelm6orxUpcvq1o62td65OfHPZQj75f9kD5g1GKC9e4tolA6ApEKS5c682vemhir8HfTN379wCJQu50Td04ghNvCeDeYwKAZDAx8vaEBmBURkMyI2YMgPFcvwEtRl7PD2j45r3R/zz4xFPdlYWP9FDmWV6gkUAgmE0PZV5ld2XhI789+Pgzj2UeiDlTLRFzbZOTQAN4g6vFORem6Kj062CaZNmT36Kj0gtNjHN6tmQKZcZ/UYq0zXcfnPdUr3DFlWeDVMUy22clEAiGBKmKZeGKK8/uS3i6z2e556ZtuZ4fxbVNTsQPSEi6wtXinAtTE++AadVrLz40HJDMiOkPwClbnctSvhimzNy/7PD8p4p7KXJe96GrbKrkSyAQ9PGhq9S9FDmvH57/VHlaceETr505PpRrm5wIGTg6W2rGKYQpOiq9DCbEgyX+iY5KN9Vp8UUA7CZnsYh01csx6kvn3j+asHRfP/mZT9w1UoeknhMInR13jVTTT37mk6MJSw+ekFS88+Ch3SO4tsnJ+AwJSSVcGuAUwtTEp2DaSbDNKsMByYyY7gAWcP3AbaLVoO7Vx2Pp4sJvMuc9/v3AxpPfCbXsFCAmELoqQq0SAxtPfpc57/G1V+prV49P3zaKRODpIQHwEddGOI0wRUelSwG8yfK0x6Oj0g+YGH8WgJDrZ24XtQp1LywaoZGUp56Y99ibQ2SZv7poFVxbRSB0SFy0CgyRZf56Yt5j796QSVNG/vvHbQoNyRk04B0kJNVybYTTCFMTPwI4x+J8prwlX3BbQNYitDKpsO65+SM0NVVbsuYtfnZgY9ZW4jkRCJbBeEpZW7PmLX6+TN64Yczuv4bVqpTO/8upY8kF8A3XRgBOJkzRUek0gGdYmu4ygL9MjD8JwIvrZ7UETU2VW93zC2I0VRXrd8144PGBjVk7BFoSD0EgmINAq8bAxqwdu2Y88HiZvPG3kf/+EVMsa/Dk2i4n5FkkJNk7dccsnEqYACA6Kn0vgD9ZmOpjw7bnkhkxrmBqUHU4NJVlnvWvJ40Sq+kNq0bdtnBg44k0PhEnAqFN+Fo1BjaeSPt+wrglfIHL5tv/2x59QyYlomTM30hI4qRxqimcTpiaeAGALYcppWBaFhuyCEzl8A4JXVzoV/fKo7HTgsM3fTZm5JLBjce3k209AsE0Qq0SgxuPb/9szMglvcWhv8Wlb4u5VFfjx7VdTogKwHNcG6GLUwpTdFR6PoAPbJji8+iodL1PbMmMGB4YwevQ0MWFfnUvPTJyUkD3db9NnbZ4cOOJLSQggkDQx0WrwODGE1t+mzpt8bBuPdeN3f1XNBGlVvmcy2RaUzilMDXxAYB8K+6rA7DGxPiDALgqY88qdHGhX92KxTH9XN1/OzU38bHBjSfWE3EiEBiaRGn9qbmJT3p7eK+P3fXnCCJKrVIEpsCBU+G0whQdlS6HdedBa6Kj0k2FOzpd+SFboIsL/epeTByhqanaljX3kReGyo5+K9I0kIQMQpdGpGnQDpUd/TZr7iMrimUNW0fv+isuT1rny7VdTszTSEiq59oIQ5xWmAAgOio9DZYFQqgAfG44KJkRMxnASK6fh23okhu+dc/MG6mRlG89Me+xj4Y0Zq4i5YsIXRUfuko9pDFz1Yl5j316s7Fh023//j6aBDq0yQ4kJLERaMY6Ti1MTSwHYK6ip0ZHpZsqpdGpvCVdNNWV7rXLZ4/SlBaty5z3xMYBjVkvkcKvhK5GkKpYNqAx66XMeU9sulJf+8vQnVtHlMsb3bi2y4lpAPPZ6pQ4vTBFR6XfhHk9k7QAPjYclMyIGQbgTq6fw55oZVJh7dMPj1bnXfz+aMLSc33k554gLTMIXYUeyrzKPvJzTxxNWJpzrLLsuyFpW8aQnkrtkoyEpOtcG9EaTi9MTXwH4Gg71/wZHZV+ycS4UzQCtDdahZxX98KiWNXJw+8fnreMH6m4NDNKccGa4BECocMQpbiQH6m4NHPfvGWuW67nvzt291+jSJmhdskG8CXXRrRFhxCmpkTZxWg7t8lUa4tIALO5tt9haDSof+eZEfK/f3v2wKwnpkSpr00d2Jh1TKB1imRuAoE1BFoVBjZmHYtSX5u6a+6yuz6+eOap2YfTR5Don3ZRAliIhCSnPoumtGZW1qUo7jtEZOdNfRGm22MciI5Kn2g4KJkR8zWAZVzbzQUut999xSPp5exCZeOSB//5+6c814EP1vH9+FzbRSDYijddTUcpcv7YFj9jia/I66flJw8P/eXa5b5c29VBeB0JSf/j2oj2dKdDeEw6fAog08S4KW8pEIyX1SVRHvinT33ykxMieILtp+YmPj+g8dS7waoiezZjJBDsTrCqqGFA46l3T81NfFHo4rZtXPq2iUSUzCYLJgpbOyMdSpiairwmQn9L7xyAf0xc/jQAEdc2c4n6Sk5I7fLZY+ib1zcfS0g60Fd+dk5PRW4RBbLhQehYUNCipyK3qK/87JxjCUmHz9VUbRz49+a4szWSQK5t6yAoASQ6+xZeMx1KmAAgOio9F/oBDR9GR6XrfdJKZsR4AljKta3OgKa2yq12+azRyswDHx2cu3xQX8212IGNJ4+QZFxCR0GkadAObDx5pK/mWux/854atvl63gfR/2wdU61UuHBtWwdiJRKSznNthLkIuDbASr4EMANAbwC/mXh9MYAAro10Gmga0veej3Gder/HP4ufGbGv/MaDrxw59EK+64DllYIQkutBcFoC1aXyXoqLX38Yd/snw7v3/GrZiUOD1+bl9ufarg7GEdhWe9ThdKjgB12y86aGAZgSHZWuV0VcMiNGAKbGXg+ubXRG+GGRVV4rv7nECwh67vZ1n4uKXHqmFLj2C9eAxEUQnAceaEQqLl0PU15LPDD/GcU1af2Hd+5LG3SlvtbX4cb8vYv5854OmQ5ZB2AYEpIKuDZEl/Z0p8MKU2tIZsTMB/Ar13aYw+pLRejv44EpIY6tL0m5uGg9X/4oSzhs1Na7tn77a5nW5+urroPuk/J9OtzWLqHz4UnXanorLmwLFzQ8teWhpMQdxQX3z8vYM0Kp0dg+uSUoFMD6rcCeQ8zPcx/oiOI0FwlJv9k+Dbt0KWGSzIihAJwBMIRrW9pj240KLM5mEq8/HxyKBb0c3ybK5fa7r3g8/uJVytP7ibHrV8cXufR6p8glKlAL5/+7JnQ+KGgRpsyrDFPmv3EkYdnOaqXiu2UnDkdtLLzq+K4ACgWwJgU4nq0/3rHE6RckJC3i2ghTdLZw8fa4Gx1AlC7UNLSIEgA8c74Yqy8VOdwO5YF/+tQ+/fDtdMGVrUcSltX3Uly8fYjs2E4vuoakzhMcihddQw+RHdvZS3Hx9kPzlspPVVVuHpS2eQInogQANXXAtULj8Y1/3trac27y4cS18Nqjs3lMBwBM4NoOc1h9qQjJl8r0xp7vGYBnBvSAu8DB5z0UBdHMR867PbjoAuXu8czY9d/MLhGGv1Lg2q/DdvsldBwiFZdKu6muv38kYenmGqXyy3cvZA385OLZQVzbhcIi4NV3Tb+2JAGYPJ5rC1tDCWA8EpKOc21Ia3SZrTzJjJgoAFe5tsMSfs0vxTPni/XGHhB74MuRfRwvTgB4IWE1Xm98dokf1nP1pHWf/FfDD/ym0KXP9GqBmITlEljHT12hjFBe2RlM1S779+Gnp52vqXry7v07BxbJGpynVcXp88BHX5t+7cXlwPDBxuN/7wLCQk2/5hiWISHpG64WN4cuI0wAIJkRkwpgIdd2tIZMzeyQ6YrOntJqzD6uX2v1AbEH3o+OgthN6HgjKQpuDyw4L5q1JI9y9/i/ceu+Gl0uDPvfddfevRSUm/P/IyA4Pa5auTZccTU/SFX02uH5Tx2vViq+/DDndOSqnNODnTK5zlxxUiiA9P3Mdp/ha45jIxKS5nH0TplNVxMmEZiSRU53ziRT03j6xBVUyFX4YmQfRHreSh/aU1qNV7ILkae6dbQTJeRj8/j+etc5Ep5foMzz5Q/PC/oM2r4y4++v04pKXy4W9kq66RLhS4IjCNZAQYvuysKaUFX+mnlRvT58cuSU5RkVpfFzDqcPr3D2NhXtidOAPqaDJZJfAPr1dpSVOQBikZAk5e6NMo8uJUwAIJkR0xvASQA+XNuiy6NHc/FnBVOqzpToFEjlmH0o10icfh7TB4N8PTiz22XUhGvuy18v4vn4vzlx3afFtfyAD6679I6vEgSR7T2C2firy5XhyqtpPrTk5f3zn4sokjW8sfjY/oj00qJwTg07fR4oKjYv0q4tceoXBVzK0x8bFQ0kJQKuDtHcBgCjkJCU44jFbKXLCRMASGbE3AfgL67t0MUw2CFKyMdXI3shNtC7ZUw3hFyXzaN6OTzXSQ+BEO6Ln812nTQ9j3L3XDFh3Rd9JYLgN6+59o9t5Hl0nH8YBIcj0jRoeypyMwPUZW8fnP9/V2pVyvd/vXa593OnjkarHJ2XZMjfu25tuy1/FBgzov172hInXRwrSgDwMBKSNjlqMVvpksIEAJIZMW8BeJNLGzIr6zDE16PlTMmU8DSLjqmzpmZ2ju2jJ2BcwfMXN3i+8L8Lgr6D90Po8r+49V/PrhR0e67IpVc/Gc+zs6UeEGzAXSPVhCnzLwWqSz7NSFi+tUGtTj5cUTJu0dF9Q8q4bnneWo7Se68DEWHt368raKZwfK7Te0hIes2RC9pKVxYmCsDvAB7gYv0LNQ2YcDDXKMrOlAB9PjgUX10q1dvGa4Zzb8kEgt4DyzyefbuAHxqx6Ux50bdP/vd3Upkw9JkSYUQ48aC6NiJNg7abqvB6sKr485S7Hvy+l3/Qk+drqh9cdHRfX6eoBF5WAbz/GVBRZfya2B94+2XAx4xfAjf9CWw3kc/keFHaAeB+JCRx7H5aRpcVJqClyvgRODgYwvC8yDDKLrOyDk+dyDcpRLr8FB2O+3qIOXnvzMFl9KR89yXPlfGCuq15+Pdv/y6UaxdVCLs/VeQSFUki+LoWrlq5NkyZVyBW3fxquJ/nr99OX3hfvrRu8TNZR7rvKC6M5No+AOZtw5mzBdeauDlelHIAjEZCUr0jF2WDLi3jpINZAAAfWUlEQVRMQEt79ZNwYLXxCrkKr2TntQQ7AMYBD6aCHXRZ2S8Yy/qF6c35700JzlUzATdD/DwxPsiXs6i9FigKrpPiL4sWLKvg+YvXrjy4beu/N4qfqBR0e+K6S1RvBU/UMf/hEMzCVdOoDVfmXQ1Ul3x3V4/Q75In3DfzmrT+kbfOnQz59drlvk4R/m0Yxt2M2N+059SWwDiPKFUDGImEpDybZ+KALi9MACCZETMOwB4ADoskaw4PNxSn5ig7U683YyhKbZ0/LQn1wYuDIrjJedKF4sH1rgcvih5KlPDEIT8CWBe3/uvHqwRBj98URg6q4/t11BYrBBN409Xq7qqCC/7q8u8zEpavBTCvsKF+SfLZk0FOI0gAUFsHpGw0Pk+aMh546F7TrwGmgyGcR5RUAO5EQtI+Ry7KJkSYmpDMiHkYwEZHrilT0/j84g18ck2iN/5TdDh2FElMipLhmVTzWVVbmIrw4wyKguvE6ZdFDz9ewQvu9jso3g/j1315V63A/8lyQWhsuTDUg+RBdUwoaBGkKm4IUhdn+qirvj00/+ldaq3m8Xxp/f0rz2UFbyi40sdpBAlgSgp99o2xkOiWE6qtA978wLTn9Ok7QLDOVvreQ8CP6/WvMTeaj10SkZCUavs03EGESQfJjJjXALxr80QWYqounilMlSPSzX9qD2cLlBAOj73uvujpYn54r/0QCL+ZtO6TQCnP+4lKQbcZRS69uqspjr08glkItCqEKfNvBqpLtntq6r7bN//5iga1+tmzNZIxL2UfizxcUdqdaxtN8syr+oIj9gcS5+lXY1AogL92mg5kEPsDq97UP2/SjcjjprLDm0hIWunoRdmGCJMBkhkxPwF4xNHrmqqLp0uUkI/9U4cY1cgL2J5ldG3W5EGI9HQzGURxcEJ/ThNyTcHv0avK/ZH/uyoYMCyfcvf8ZsqvH55p5HnMq+UHLC4V9hhayw9wpSnSqNCZ4Gtp+NASRYjqxlkfWvKTSNOwYc+Cl26rViqePFheEvHcqaMD8qV1TuCit0FZBfDcG8z3/aKAJxL1PaDWtvl0GRUN/N8T+mOb/gT69eFClH5GQtJiRy9qD4gwGSCZESMEsA1MiwyH0tpZUVvlhwyF6QGxB9aO6d/qnOO8XLBtktNVZAIAUO4eareHEs+7xN1RwQ8J/RsU75eJ6z6LauB5PVYpCLm3ShAURM6iuMWbrlb7q8vLA9WlOzw09T/sn/9svkqjWZgvrbs39dpl8ZeXzg1uUKs7Ts7a6fPAqTNAwkx9z8fUNp81wRCOYzeAe5CQpOLaEDYgwmQCyYwYdzDBEKMdvbapunjNHpAp3jtXYHRGZegVGYpXW/M5C4K+g8tEs5fk8/sOuszz8U9deXBbxu7r1+9r5Hs+WCkInlLFDwogHXUdgyddq/GnyyWB6rI9Ilr6x7Tw8G3JE+67XaKQJx6XVPR689yJnickFcFc29kqtXVAzuVbP3cPaTtR9uhJ4Ou1+mNzHwDGj2ndg+Jm266ZLACTkZBUx5UBbEOEqRUkM2ICARwC0N/WuSxFN1Tc1LlQgVTeIiymgh/Geblg4/iBcBfwkVlZh+lHrui93ixcMjWNa1K5023t6UK5uGhdp96f43rnQxJ+9x7HIXRJnbTuEwkNwYg6vu+jtfyAkWXCsBCSuMsuIk2DNlhVVOpDS0540zVr+VCf3Df/+W71KtW8y/U1MesKrgT8cPXiIKf2jloLAweYqDtDL6m163UDGGrrgKUvGc9nakvPMeQCmICEpAouFrcXRJjaQDIjpgeAowBCHb12gVSOPGmjyWCFR48yQvT6kEhEerq12rdp7Zj+uFDTgEeOXjHpgTWLmtOElLcDLyBI5hY/J1cwPLaCHxp+gnJz3zzl1w8L1ZTLSCnf55Favt8YiSCkRwPPS6iiSA1ZSxBqlfDQ1KsC1KU3fOjqo5507c8CrfLEngUvRchpeuaV+tq4P4uu+X916fygSoXc+d/c0+eBlA2mt96aMQxeUCiAVV/eKrYq9geeXXrLu2otEIK7rbwbAMYiIcnx7a3tDBGmdmiqRn4UAPflUsCEmPfYebrl588Hh+KhcLHJnKfPB4diQa8QyNQ0fr9egWfOFyNKyMfxu4cDMK7N91N0OKZ28+ekCaGl8Hz9Fa7TZ+UIR4yr5IdGnqHcRNsBHJm47rOhjTz3h2Q8rwlVgqBhUp63ewPPS0BT5GhKF75WDQ9NvdpTUyfzV5efcdfUHxRpZL/vn//sWQBja5TKB/OldUN2ldzw++7qxb6FDfXO05yvPdqrVQeYjsADbuUi9YwAEufeKj9UVgH89ofxNh53W3iVAMYgIalDNT81FyJMZiCZETMEwD44sDpEaxRI5YjZe0FvbOfYPhji62FSnHTPmy7UNOBqvayljJEpT6sjnD8ZQnn7Kl0n3HVZGHt7NT8kNJ8X1H0PgP+m/Pphg5Jym6bkucVKed63S/k+kfU8H59aQYCLBs67A2UPeNDARy1Remlqaz3p2gJPTd0BF40800Ur371nwUueAO4qaZTdcamuJmxj4dWA3wrz+tWplM7/G4ohhudDYn9gxt2ASARcvATsOcRsuz38oH4Eni6FRUCI+JYndekq8O1PxoEQrzzb+hz2pQ7A7UhIOs3F4o6ACJOZSGbExIKJfOE8BHbUP6dNhoCbKmP0fM8AvDok0uQ8L2VdxY/FtS0/63pTHRaKgqBX/wqXKfcWCvoPkfC79cij3D3/A5Axad0nfBqCvmpKGC3jeU5u5Hn0lfJ9Qmr4AV6drfq5u0aq8aUl9Z50balI03DZXSPdK9CqsvlQX943/3ktgInl8sZJV+prw09WVQRuLLja40RVRbDGzP/vTonh+Y+poqunzzNN+8xtN2EqadbxLSt0qQMwDQlJmVws7iiIMFmAZEbMeAC7AIi4tMNwC063RJEpL0gyI8bkPIYCZyqBt6NDubhCMGBYoXD0xAp+aKSEHxJ2gxcUchIU78R3Wfsvbc457kFTwh4KynWSkieKaaTc+8j4XmH1PB+/Rp6HkKYEoMGnnG0rkK9Vgw9ay9eqIdI0qLw0tdXudH2RSCu74qJpzHLVKvbxtaobsweOangiZuIAjVYbe10mHXG9QdrtUl2N/4bCq90Pl5eGqrUdquh02xh6S7oVHHQpqwDyC2/9PLCvccVwhQJYv5XxsHThNjS8S4gSQITJYiQzYiaCyXPi1HMyrPiwJNQHcUE++N/5YqPCr6aEqUKuQv/dZ43Go4R8vB8dYRR0sae02qmqRtgCv1uPemHM2ALh8Fgp5eNfwfP1L+YFBF0EX3AOwAWKoiom/7LKXUW5jlRTwmgVJeyrpFwjVJRrNzlPJFbw3L1VEAppSsBXU0IeTQl4aggomhJQNCWAtSWVKGgZwdGqtQKotXytWiPQqjR8rZoWQqVy1cjq3DSNFUKtosRFqygUalWXBVpVtlCrOLF34QqZVqsNBDBIpdHcViZvHFTSKAvKl9YF7C0r9tlVUhRZ2FDvvOGXbGDYakLXsymrAC7kAoePGXeSBUyfFf20Xl+YuA0J7zKiBBBhsgpn2NaTqWm8deaa3lacKVrbymuvxt6SUB8siuqGQb4eLSWTxnm54NUhEc5Rc49leH6BSkGfgTcEg2Oq+d3D6yhf/yqet18N5eNbXKZWFVytrig7XpxftbsgVyVVUwPVlDBKTQm7qylBiJoSBqgpoY+aEnqqIXRTU0JXNSUQ0pRAoAGfR1MCngY8qlmwKGjBg0bL16o1PNAavlatFmjVKoFWpRBAJRdoVVKBVlUr0KokAq26VKBV3RRoVXmeAm3OPVGD3UZ0jwzs6RsoFrm49SiXN3aXKBUB5fLGgNy6Gs9D5SW+J6sqepQ0ypw/co5tzAl6aAvDRoDNUXpV1VyeJwGADEyeUpcQJYAIk9U4gzgBrbdbB9quGNHWfbo8IPYwCqjoKOHlrCB0AT84tIbfo2cFv0dPKT8sUkF5+zaAx6+hXN1klJtISok8GihPLxnl4VUC5kOkDoAUQCMA3TePBkABLZEXngAEANzB/DvyglbjDbVaBKGLrrDwNVqtZkPh1cmX6mpE52qqvC7WVosLGup9lFy3H3ckhUVtJ8aa29a8NWbcCcwx6BtaVgH4enN1ngQw/5buQ0LSfq4M4AIiTDbgLOJUIVdhc2EZUvMrW7bxloT6YGm/sFYj7AwLxy4J9cGdoQFGVSdM0Sx4acWVyK6SYm7P4E6zzWc1PB4oLx+a5+1XS7m5KcAXaCgPLzkAUB6eKkroQoPHA0ABGub91TZIXbQqJU8rb3TVNtS7aRvq3bWyBndtY8P0gL9O/KM3//o108Ccb3Y9auuAQ0cZb6i97bSVH5neqjOkXxTjCelG2k0ZDyxO4PppdZEAiO9KnlIz7emOc534OhkB27Mym3o57QWHeU5iNyGW9QvT69HUHoVSud7PcUE+mBLih/1TvfFzXkmr1c6bAyQAtAjhnxX5GOflgsW9QzpMHhTraDTQ1lbz6dpqfxtnqgCQbmJ8DteP6HB0BamZ7f+0LUxPJLbeGr1fFDBuNBAzjAl2uHQVWPkx10/ZGqVgzpTOcW2IM0KEqR0Ctmedk8yIGQsmz8nhFSKsxfBsqreXe8v32VVSk/foRv9tu1Gh51kdrlficPZ1RJ0vxmuDQzFW7Ns1tvrY54+A7VlqvZH1a1wBzOTaME4wPDO6lMdE37XW4yhYzFRzOHUOkDTVkAwIAHpFGJ8RVdXo/3zbMK6ftpkbYM6UOmXyLBt0qtwOexGwPesKgDgAHeIfUoXcuABxT083FEjlmHsox2R/p5+iw/U8smF+XljZz7huZ56KxuLs6+i/+yxWXyoyuRahTdabGLsTTpA/53B8vJk6dYZs+oMJTGgNV1dGuO65k/kaMwKQK5j+S3/vYs6q/t6lH1o+KprLiDtdroIpM9QhPku4gpwxWYBkRowYwE4ADm9ZaQmGEXkPiD3w+pBIo+RcQL/duykq5Cr8e1OCry6Vtno2pRvhR2iTYgDhAduz9CMa1q/5DV1xKw9gBGjF28Zbc5Z0hjVVLVwXbhNmdTkOpnVFpyrIag3t6Q7xmCwgYHtWBYCJcPJD6qv1Mr2f/V0EJkXpAbEHNo9vu7Gg2E2IBb1CsH/qEPwUHY4oofH50o/FtZhwMBe/5pdy/ejOziYTouQJ4B6uDeMMV1dgzoPG4+15TS3X/dm2KM2401lEKQ3AJCJK5kGEyUICtmc1AJgBIJVrW1qjSKb/H/rH4lojUXq+ZwC+HNnHZFRfZmUd9pRW6425C/i4r4cYx+8ejp+iw02ue5u/FwCm3t+e0mrI1G1H/3VBfjMxdg+Aru1q3jaEKS+kS0UV06KiPSaOYzwiQ/pFMXlLcx5wBlH6HkxIuMzmmboIJPjBCgK2ZyklM2IeAVAE4DWu7THEMCLPkOaq5K3x3rlCHK5XIkrIx2uDQ82KxHtA7NHieW24VtrS3PD5ngGIFfuQcHMgP2B71gkT43O5NoxzXF2ZSuCGOUob/2Sa95kqJ9QsNsFipk/Spau3gh1MBUJwRzISkt7h2oiOBjljshHJjJiFANYCcJoQtQKpHN9cKjKKzGutHJEuphoPRgn5eKpfCO7qHgAPAQ8T088ZeWDNDQ8N23bozrGoVyBGBHh3ysoSZvC/gO1Zr+uNrF/jA6AcQNer4mAKUzlKurXrFAomGm/TH/p9lJwTJYBHkZD0K9eGOCMkwdYBSGbETADwJwBbc1xYJbOyTs/7aa1KhC4FUjnSiivbzHMyjOob5+WCbZOGAGBq7s0+nt/mGs0iFR8a2OFacNjAkIDtWef1RtavWQLmlxoC0Hplh0/fYYqybvrjVpBEvygg+UWuLW6NcgAPICHpCNeGOCtEmByEZEZMXwDbAfTj2hZdZGoa6SVVFifGmqo20Ro/RYe39ICSqWkcraxDZkVty3ZeW4zzcsF70b06e0Tf+YDtWUOMRtev2QVgGtfGORVffGfcrK81uC262hpnAcxAQlKhzTN1YkhUnoMI2J51GUAsmOgbp6E5aKE9UcqsrMO2GxUtAQvN1SbaisYDGO9najd/vfWmhPjh1SGRuDGdCZR4QNy66ByuVyLI7dZO1q/5pcisrOtsgRPGQQ/r1wQBuINrw5yO++PNu65fFCByOm97O4A4Ikq2Q4IfWCRge1atZEbMDADvAniFa3ss4ffCcvxYXIuo88VY1CsQsyOCIXYTtgjb1G7+Js+WXhsc2qroNd97Xw8x3per8MOVYiMv6gGxR0sFiQKpXK/X1ANiD9we7Iu+3u4Y4uvRkUshmYrGmwXyi6FpxP6mSw4BjCDNuNsZPaV3ALyFhKQuVHXXfhBhYpmmPJVXJTNiTgP4GUxlaafmQk1DS6BEnopG8qUyJF8qw8p+wZgY7IdBvh64JpWb3NIbK/Y1a43WyhfN7XmrusSZ6nq91/6saNA7z2oWqtv8vTrS1t/xgO1ZpqqOPsy1YU5FWQWQttu4cV8zYn8m38ncpFvHUQNgIRKSdnBtSGeCCJOdCNietVkyI+YCgN/hZOdOhngI+FgS6mMUxZd8qQy4VIYloT6oUqqN7lvZL9jsenkVcpXJM6cxOhF6de2cZRkKVXPzxObzLSdls9HI+jXhYEpcERQKJl+ptT5LzYJ02xBnyEcy5CyAB5GQZEa5c4IlEGGyIwHbsy5IZsSMAPAjgNlc29MakZ5u+DCmN5b2Mx2R11qzwtkRweZMDwA4UlFjNPZ8zwC97bkFvULwULgYRyvrkFvbgN03q3G4XtnqnM123ddDjAs1DbhaL4OnUIAQNxf09HRzhq0/LYCNJsZnAVa2we1suLoC5ZWmX1uSAMSNckZBAoBfASSRpFn7QITJzgRsz5ICmCOZEZMB4GM4Ub6TIZGebljWLwyzI4LbjchbEupjUXXxHUXG3lKs2MdorDl4YkqIH5b1C0OFXIWzNVLk1jaYtCcuiJmjp6ebUcfeKCEfaZMGcVkF/VDA9qybJsbncWWQUzLldv0tvLkPmE6sdQ7kAJ5BQtJ3XBvSmSGHrw4iYHvWlwDGAnB6t9+ciLxFUd3Mnq9CrjJZ0XyMGYm2Yjdhi0gN9TWOwhrmx5RBchfw8XzPAL3X8lS0kacmU9MI2J6Fl7KuYvWlImy7UYELNQ2wE8be0vo1fQDcZq8FOyQRYUwTvynjgW8+ZBJqnVOULgAYSUTJ/hBhciAB27NOAogGsI5rW8xBtz7e5lG9MM6LCevWLT9kDqa28Vb2Czbaanv0aC7eO1eAbTcqUGBQVkmmpo3ELUrI10vQNWWToad2rWneH4trkXypDIuzryM1r8Qeb58azPmiISTowRQJM5nuss4pSABT724kEpLO2zwToV3IVp6DCdieVQ9ggWRGzG4A3wDw5Nomc2jeXsusrIOnhWc3P101rjo+IkD/A6jFq6poANNxmhGe+8N8WxXB+8N89X5mIgSv6439WdGA9+Wqlu28UrnxmVXzdiDL7GmqRm8IqY1nCuc8RwKYqLvHkJC0lWtDuhLEY+KIgO1Zv4LxnjpU2ZLYQG+LvKUCqdwogCFKyDeql3e2xrirbp6KxifXJFicfR2Ls68bvW5oh9hNiCWhxiKj67FJVcbRhXbC1DbeEAADHGUAwWb2ABhGRMnxEGHikIDtWVcBTACTjKu0cTqn5FB5jdHYol6BRmNjAr2xc2wffD44tGXLsD2az5d0WdrPuLCnrseWUW4cYajbdp4llAD+MjGewPZCBLvQCOApAFORkHTd1skIlkO28jgmYHsWDeADyYyYfwD8AmAo1zaxydZC490sw208gDnPig1kKo8v6BWiF41nKmzc8HypmUhPN2we1QuvZBe2RPAdrldiT2k1poT44VJdo9E9PdkvJPt3wPYsfQVcv4YCEyZOcG6OgUmYvWLzTASrIR6TkxCwPesMgFEAVoI5OO/wVMhVKJHrh3eP83Ix2sbbdqPCqD6ebjTeq0MijOY2PF8CmACJ1ZeK9ESpmdnH8/Ho0VyTAmeHfKfNJsZiAfRieyECaygAvApgHBEl7iEekxMRsD1LAeBNyYyYrWDKGcVwbZMtiN2E2D91iF618ZkRxlUadM+PTNXHOympM7rH8HxJpqZN1vLTxVTI+sQg1mNPGsAU8zREAIAGwHnWL8GIgwAeR0LSJa4NITCQthdOimRGDB/AcwDeBiDi2h42aPaIdD2UCzUNRomxujwg9sDZGuM6fVmTB+lt5a2+VNRqD6m2WNkvGMv6sdpw7gqY3ksKo1fWr3kUwA9sLkawiVoAKwB8j4Qk8z4ICaxA+jF1cCQzYnoB+BrA3VzbYg/2lFbjy4tFbZYeMiRKyMfxu4frjY3657RV4qXbS4pFfgMwL2B7lvF/rvVr3gXwmh3eSoJl/AFgORKS7JLERmib9nSHbOU5OQHbs/IBTJfMiJkJ4DMATt1P2lKa86PaC3bQxdT5kqEomQqOqDVRiNYOEXkAk0RbCOBlE6+9ASACwHx7LExol3wA/4eEpL+5NoTQOiT4oYMQsD1rK4CBAD5FJwmO0EU32GHbpCHInTYUm0f1wsp+wUbh46Zq7BmSp6Kx7YZ+RGC+QTUJAHpNCllmhWRGTJLRKLNltATAAXstTDBJI5hfCgYRUXJ+yFZeB0QyI6Y/GO/pLq5tcRQFUjnOVNfjQk0DHusTalSYta0zpgfEHvB3EZiski6ZYdf4Es3/t3fvIVaUYRzHv6RmJpU6lXbTlNYuZBSTlSYSKFFZU5H9UQNl2eVAGFbQPwWCWGCRhBANZFLgRBckmDAL06yIMJvISgS7YFZW2piXrazdlf54jqLNrrruOeedOef3geEs8+LZZ8/i/s6ceZ/3BW7wkvTt3EgcDcGaq9VwW39LgUe0s2xx6B5TE8sCfxoWUG2ua3Htr84uHlz7Tbcz73oy84yTeMo/p96l/QlM9pL089xIHI3C+mZGNPClaiVfYYG0wnUhcrDD5Y4+yisxL0mXARdis/e29/HpSu34/v1YNOG8Hj/+686QYxtyi3UwsCwL/Hwzlr2DnwZoT5/a2gLcA1ysUConXTE1iSzwh2BTX2cDNV/KoKzW7/iTX/f8S3tHJx9v3cn2fzv3X1XVaUZeTzYAE3IrQgDE0TSs90lvFPumHZgPLNAGfsWmj/JaTBb4Z2KrR9yBmjl7tKl9D4P792v0JoLvA9d4SZqfchhHFeB5169LSXVg/WFzCSu9b2aThlMwtags8M8H5mBbuuuXVxxLgDt66HGaDzzqusAS6QIWA/O02Gq5KJhaXBb4F2BXULe4rkX2e8JL0sdzZ22h11exNxPSsy4s4OcRVr51XYz0noJJAMgC/xKs4fNWdAVVBDO9JF2cOxtHA4H3gEmuCyygLmyfq7laaLXcFExykCzwx2L7P4VAQ2+wyEE6geu9JH03NxJHw7Aep3NdF1kQe4AXgafVi9QcFEzSrSzwRwKPYKsQHPmWtFJLu7Eepy9yI3E0Butxati0wQLaCTwHPEtY2dbXJ5PiUDDJIVWnmd8LPEiTrcNXEluAy70k/Sk3EkeXAatpktXle+F7bOHiRYSV3a6LkdpTMMkRyQK/P3b/aTa2YaE0zpfYlVN3PU43Yitht0KP0ypgIfAWYWWv62KkfhRM0mtZ4PvAA9gq2a32bt2VFdg9p+56nGZhf7Cb0V9ADCwkrHztuhhpDAWTHLUs8IcCM4D70Y34RnjJS9K7uh2JowXAQ64LrKHPsQkNSwgru/r6ZFIuCiapiSzwrwTuxnpsar4fuew3x0vSubmzcXQM8Drl7kfbjV0dLSKspK6LEXcUTFJTWeAPxsLpTmAy6omqhxlekr6cOxtHg7Aep4muC+yFvdWaY2ApYeXIl3+XpqVgkrqprst3G3A7cLHreppIB3Ctl6QrcyNxdArW41T3/Tr6aC0WRq8RVn51XYwUi4JJGqK6eWEI3IRtxSF9swuY6CXp+txIHLVh4XSy6yL/5yvgDSyMNrouRopLwSQNlwX+ucDNwHSgrlvENrkfgSu8JN2SG4mjicBK3G9xsgabzr6UsPKd41qkJBRM4lQW+Gdhm+FNA6ag6ee99QXW45RvNI2j6diEiEb+5/wb6zdaDrxJWNnSx+eTFqRgksLIAn8QcBVwHXA1MNZ1TSXxDtbj1JUbiaOHgWfq/P03YkG0HPiAsLLH9Qsi5aZgksKqTp6Yil1JTQFOc11Tgb3gJel93Y7E0UJgVg2/18/YUkirgVWEle9d//DSXBRMUhrVlc8nHXC0ua6pYB7zkvTJ3Nk46ofd5wmO8nk3Ax+xL4y0x5HUmYJJSisL/OHABGB89bgUGOq6LsdCL0lfyZ2No+OxYBl/mH/fjk1Y+LT6uEbTuaXRFEzSVLLAb8Nm+l1UPcYBI13X1UAdwFQvST/MjcTRqdhWGaOrZ34B1mGLxK6rHhu0QKq4pmCSplfdumMccAG2pl8bcD5wNtDPdX11sAPrcdqQG4mj0cAYYB1h5XfXhYp0R8EkLSsL/AHYH+lRWEjtO0Zie0+NAAa6rvMw9gLbgE3YvaDNwA/AZ16SfuK6OJGjoWASOYQs8IcBw4HTq4/DsPtYQwGv+ngitsvvccAJ1a8HYKF2JA2uO7GA2YX1Af1TPdcO/HHAsQMLoa3Yx3C/Adu8JNVHb9JUahZMIiIijdAKu2KKiEiJKJhERKRQFEwiIlIoCiYRESkUBZOIiBSKgklERApFwSQiIoXyH8ACi3Im/zk4AAAAJXRFWHRkYXRlOmNyZWF0ZQAyMDIyLTA1LTE3VDIyOjI2OjAyKzAwOjAwJca4twAAACV0RVh0ZGF0ZTptb2RpZnkAMjAyMi0wNS0xN1QyMjoyNjowMiswMDowMFSbAAsAAAAZdEVYdFNvZnR3YXJlAEFkb2JlIEltYWdlUmVhZHlxyWU8AAAAAElFTkSuQmCC;" parent="1" vertex="1">
          <mxGeometry x="258" y="107.42" width="229.33" height="232.58" as="geometry" />
        </mxCell>
        <mxCell id="vzqyFv9OvBUfj2sghxq7-48" value="" style="shape=image;verticalLabelPosition=bottom;labelBackgroundColor=default;verticalAlign=top;aspect=fixed;imageAspect=0;image=https://dic.nicovideo.jp/oekaki/49766.png;" parent="1" vertex="1">
          <mxGeometry x="318.5899999999999" y="169.63" width="108.15" height="108.15" as="geometry" />
        </mxCell>
        <mxCell id="iWxEHjaDBp4yc7IOHVC1-8" style="edgeStyle=orthogonalEdgeStyle;rounded=0;orthogonalLoop=1;jettySize=auto;html=1;" parent="1" source="iWxEHjaDBp4yc7IOHVC1-2" target="vzqyFv9OvBUfj2sghxq7-30" edge="1">
          <mxGeometry relative="1" as="geometry" />
        </mxCell>
        <mxCell id="iWxEHjaDBp4yc7IOHVC1-2" value="構築" style="swimlane;whiteSpace=wrap;html=1;" parent="1" vertex="1">
          <mxGeometry x="500" y="160" width="170" height="200" as="geometry" />
        </mxCell>
        <mxCell id="iWxEHjaDBp4yc7IOHVC1-4" value="新しい事象に対応するための段階&lt;br&gt;徹底した準備で迎える" style="text;html=1;strokeColor=none;fillColor=none;align=center;verticalAlign=middle;whiteSpace=wrap;rounded=0;" parent="iWxEHjaDBp4yc7IOHVC1-2" vertex="1">
          <mxGeometry x="16.17" y="110" width="143.83" height="80" as="geometry" />
        </mxCell>
        <mxCell id="iWxEHjaDBp4yc7IOHVC1-1" value="準備" style="rounded=1;fillColor=#109e81;strokeColor=none;shadow=0;gradientColor=none;fontStyle=1;fontColor=#FFFFFF;fontSize=14;" parent="iWxEHjaDBp4yc7IOHVC1-2" vertex="1">
          <mxGeometry x="10" y="30" width="72.34" height="70" as="geometry" />
        </mxCell>
        <mxCell id="iWxEHjaDBp4yc7IOHVC1-6" value="準備" style="rounded=1;fillColor=#109e81;strokeColor=none;shadow=0;gradientColor=none;fontStyle=1;fontColor=#FFFFFF;fontSize=14;" parent="iWxEHjaDBp4yc7IOHVC1-2" vertex="1">
          <mxGeometry x="87.65999999999997" y="30" width="72.34" height="70" as="geometry" />
        </mxCell>
      </root>
    </mxGraphModel>
  </diagram>
  <diagram id="-WGOKUU8Wnjo9iY9hRrj" name="20231212輪読会">
    <mxGraphModel dx="1674" dy="828" grid="1" gridSize="10" guides="1" tooltips="1" connect="1" arrows="1" fold="1" page="1" pageScale="1" pageWidth="827" pageHeight="1169" math="0" shadow="0">
      <root>
        <mxCell id="0" />
        <mxCell id="1" parent="0" />
        <mxCell id="fjcCqMtbcdCZExDdsmOK-1" style="edgeStyle=orthogonalEdgeStyle;rounded=0;orthogonalLoop=1;jettySize=auto;html=1;entryX=0.5;entryY=0;entryDx=0;entryDy=0;" edge="1" parent="1" source="kDPKA1E68ma3KcYAmQbF-1" target="vJ1_ie6EBMIHjG-oIAPY-1">
          <mxGeometry relative="1" as="geometry" />
        </mxCell>
        <mxCell id="kDPKA1E68ma3KcYAmQbF-1" value="&lt;font color=&quot;#1a1a1a&quot;&gt;書籍を読んでくる&lt;br&gt;&lt;/font&gt;" style="rounded=1;whiteSpace=wrap;html=1;shadow=0;labelBackgroundColor=none;strokeColor=none;strokeWidth=3;fillColor=#CCCCCC;fontFamily=Helvetica;fontSize=14;fontColor=#FFFFFF;align=center;spacing=5;fontStyle=1;arcSize=7;perimeterSpacing=2;" vertex="1" parent="1">
          <mxGeometry x="40" y="80" width="150" height="70" as="geometry" />
        </mxCell>
        <mxCell id="Tm9lm75lwOxnOOCXiqBy-9" style="edgeStyle=orthogonalEdgeStyle;rounded=0;orthogonalLoop=1;jettySize=auto;html=1;entryX=0;entryY=0.5;entryDx=0;entryDy=0;" edge="1" parent="1" source="bb7gL4KQ3JCyR0m-g5xu-1" target="Tm9lm75lwOxnOOCXiqBy-1">
          <mxGeometry relative="1" as="geometry" />
        </mxCell>
        <mxCell id="OcERMqa2ZdiTpExtFHXh-2" style="edgeStyle=orthogonalEdgeStyle;rounded=0;orthogonalLoop=1;jettySize=auto;html=1;entryX=0.5;entryY=0;entryDx=0;entryDy=0;" edge="1" parent="1" source="bb7gL4KQ3JCyR0m-g5xu-1" target="OcERMqa2ZdiTpExtFHXh-1">
          <mxGeometry relative="1" as="geometry" />
        </mxCell>
        <mxCell id="bb7gL4KQ3JCyR0m-g5xu-1" value="&lt;font color=&quot;#1a1a1a&quot;&gt;「どんな内容でした？」&lt;br&gt;&lt;/font&gt;" style="rounded=1;whiteSpace=wrap;html=1;shadow=0;labelBackgroundColor=none;strokeColor=#E6E6E6;strokeWidth=3;fillColor=#E6E6E6;fontFamily=Helvetica;fontSize=14;fontColor=#FFFFFF;align=center;spacing=5;arcSize=7;perimeterSpacing=2;" vertex="1" parent="1">
          <mxGeometry x="410" y="520" width="150" height="70" as="geometry" />
        </mxCell>
        <mxCell id="D9l5sbA5J0m1VTILzABz-5" style="edgeStyle=orthogonalEdgeStyle;rounded=0;orthogonalLoop=1;jettySize=auto;html=1;entryX=0.5;entryY=0;entryDx=0;entryDy=0;" edge="1" parent="1" source="bb7gL4KQ3JCyR0m-g5xu-2" target="D9l5sbA5J0m1VTILzABz-1">
          <mxGeometry relative="1" as="geometry" />
        </mxCell>
        <mxCell id="bb7gL4KQ3JCyR0m-g5xu-2" value="&lt;font color=&quot;#1a1a1a&quot;&gt;書籍の内容をどのように活かすか？&lt;br&gt;&lt;/font&gt;" style="rounded=1;whiteSpace=wrap;html=1;shadow=0;labelBackgroundColor=none;strokeColor=none;strokeWidth=3;fillColor=#CCCCCC;fontFamily=Helvetica;fontSize=14;fontColor=#FFFFFF;align=center;spacing=5;fontStyle=1;arcSize=7;perimeterSpacing=2;" vertex="1" parent="1">
          <mxGeometry x="410" y="80" width="150" height="70" as="geometry" />
        </mxCell>
        <mxCell id="vJ1_ie6EBMIHjG-oIAPY-5" style="edgeStyle=orthogonalEdgeStyle;rounded=0;orthogonalLoop=1;jettySize=auto;html=1;entryX=0.5;entryY=0;entryDx=0;entryDy=0;" edge="1" parent="1" source="iehUZSZI-QqMd1YV-SBp-1" target="vJ1_ie6EBMIHjG-oIAPY-1">
          <mxGeometry relative="1" as="geometry" />
        </mxCell>
        <mxCell id="JlZ_3YZfe7_UhdxtGSQF-1" style="edgeStyle=orthogonalEdgeStyle;rounded=0;orthogonalLoop=1;jettySize=auto;html=1;" edge="1" parent="1" source="iehUZSZI-QqMd1YV-SBp-1" target="bb7gL4KQ3JCyR0m-g5xu-2">
          <mxGeometry relative="1" as="geometry" />
        </mxCell>
        <mxCell id="iehUZSZI-QqMd1YV-SBp-1" value="&lt;font color=&quot;#1a1a1a&quot;&gt;担当の割り当てを&lt;br&gt;「チーム」にする。&lt;br&gt;&lt;/font&gt;" style="rounded=1;whiteSpace=wrap;html=1;shadow=0;labelBackgroundColor=none;strokeColor=none;strokeWidth=3;fillColor=#CCCCCC;fontFamily=Helvetica;fontSize=14;fontColor=#FFFFFF;align=center;spacing=5;fontStyle=1;arcSize=7;perimeterSpacing=2;" vertex="1" parent="1">
          <mxGeometry x="210" y="80" width="150" height="70" as="geometry" />
        </mxCell>
        <mxCell id="vJ1_ie6EBMIHjG-oIAPY-1" value="行動の一貫性" style="swimlane;whiteSpace=wrap;html=1;" vertex="1" parent="1">
          <mxGeometry x="110" y="200" width="170" height="279.5" as="geometry" />
        </mxCell>
        <mxCell id="vJ1_ie6EBMIHjG-oIAPY-2" value="自分の意図に沿わない行動をした後、&lt;br&gt;その行動に合う認識にすり替える" style="rounded=1;whiteSpace=wrap;html=1;shadow=0;labelBackgroundColor=none;strokeColor=none;strokeWidth=3;fillColor=#F08705;fontFamily=Helvetica;fontSize=14;fontColor=#FFFFFF;align=center;spacing=5;fontStyle=1;arcSize=7;perimeterSpacing=2;" vertex="1" parent="vJ1_ie6EBMIHjG-oIAPY-1">
          <mxGeometry x="10" y="200" width="150" height="73" as="geometry" />
        </mxCell>
        <mxCell id="vJ1_ie6EBMIHjG-oIAPY-3" style="edgeStyle=orthogonalEdgeStyle;rounded=0;orthogonalLoop=1;jettySize=auto;html=1;" edge="1" parent="vJ1_ie6EBMIHjG-oIAPY-1" source="vJ1_ie6EBMIHjG-oIAPY-4" target="vJ1_ie6EBMIHjG-oIAPY-2">
          <mxGeometry relative="1" as="geometry" />
        </mxCell>
        <mxCell id="vJ1_ie6EBMIHjG-oIAPY-4" value="（記入したくもない）&lt;br&gt;「自己紹介シートに&lt;br&gt;わざわざ時間をかけて&lt;br&gt;記入したのは&lt;br&gt;&lt;br&gt;わたしがこの人たちと仲良くしたいからだ」" style="rounded=1;whiteSpace=wrap;html=1;shadow=0;labelBackgroundColor=none;strokeColor=none;strokeWidth=3;fillColor=#f5af58;fontFamily=Helvetica;fontSize=14;fontColor=#FFFFFF;align=center;spacing=5;arcSize=7;perimeterSpacing=2;" vertex="1" parent="vJ1_ie6EBMIHjG-oIAPY-1">
          <mxGeometry x="10" y="34" width="150" height="148" as="geometry" />
        </mxCell>
        <mxCell id="Tm9lm75lwOxnOOCXiqBy-8" style="edgeStyle=orthogonalEdgeStyle;rounded=0;orthogonalLoop=1;jettySize=auto;html=1;" edge="1" parent="1" source="D9l5sbA5J0m1VTILzABz-1" target="bb7gL4KQ3JCyR0m-g5xu-1">
          <mxGeometry relative="1" as="geometry" />
        </mxCell>
        <mxCell id="D9l5sbA5J0m1VTILzABz-1" value="相手の話したい事" style="swimlane;whiteSpace=wrap;html=1;" vertex="1" parent="1">
          <mxGeometry x="400" y="200" width="170" height="279.5" as="geometry" />
        </mxCell>
        <mxCell id="D9l5sbA5J0m1VTILzABz-2" value="相手が食いつきそうな&lt;br&gt;話題を振る" style="rounded=1;whiteSpace=wrap;html=1;shadow=0;labelBackgroundColor=none;strokeColor=none;strokeWidth=3;fillColor=#F08705;fontFamily=Helvetica;fontSize=14;fontColor=#FFFFFF;align=center;spacing=5;fontStyle=1;arcSize=7;perimeterSpacing=2;" vertex="1" parent="D9l5sbA5J0m1VTILzABz-1">
          <mxGeometry x="10" y="200" width="150" height="73" as="geometry" />
        </mxCell>
        <mxCell id="D9l5sbA5J0m1VTILzABz-3" style="edgeStyle=orthogonalEdgeStyle;rounded=0;orthogonalLoop=1;jettySize=auto;html=1;" edge="1" parent="D9l5sbA5J0m1VTILzABz-1" source="D9l5sbA5J0m1VTILzABz-4" target="D9l5sbA5J0m1VTILzABz-2">
          <mxGeometry relative="1" as="geometry" />
        </mxCell>
        <mxCell id="D9l5sbA5J0m1VTILzABz-4" value="相手が食いつきそうな話題を振る" style="rounded=1;whiteSpace=wrap;html=1;shadow=0;labelBackgroundColor=none;strokeColor=none;strokeWidth=3;fillColor=#f5af58;fontFamily=Helvetica;fontSize=14;fontColor=#FFFFFF;align=center;spacing=5;arcSize=7;perimeterSpacing=2;" vertex="1" parent="D9l5sbA5J0m1VTILzABz-1">
          <mxGeometry x="10" y="34" width="150" height="148" as="geometry" />
        </mxCell>
        <mxCell id="Tm9lm75lwOxnOOCXiqBy-1" value="相手にしゃべらせる" style="swimlane;whiteSpace=wrap;html=1;" vertex="1" parent="1">
          <mxGeometry x="640" y="415" width="170" height="280" as="geometry" />
        </mxCell>
        <mxCell id="Tm9lm75lwOxnOOCXiqBy-2" style="edgeStyle=orthogonalEdgeStyle;rounded=0;orthogonalLoop=1;jettySize=auto;html=1;entryX=0.5;entryY=0;entryDx=0;entryDy=0;" edge="1" parent="Tm9lm75lwOxnOOCXiqBy-1" source="Tm9lm75lwOxnOOCXiqBy-3" target="Tm9lm75lwOxnOOCXiqBy-4">
          <mxGeometry relative="1" as="geometry" />
        </mxCell>
        <mxCell id="Tm9lm75lwOxnOOCXiqBy-3" value="人間は&lt;br&gt;話すよりも&lt;br&gt;聞くほうが&lt;br&gt;大好き&lt;br&gt;&lt;br&gt;好きな話題なら&lt;br&gt;猶更" style="rounded=1;whiteSpace=wrap;html=1;shadow=0;labelBackgroundColor=none;strokeColor=none;strokeWidth=3;fillColor=#FCAD90;fontFamily=Helvetica;fontSize=14;fontColor=#FFFFFF;align=center;spacing=5;arcSize=7;perimeterSpacing=2;" vertex="1" parent="Tm9lm75lwOxnOOCXiqBy-1">
          <mxGeometry x="10" y="32" width="150" height="148" as="geometry" />
        </mxCell>
        <mxCell id="Tm9lm75lwOxnOOCXiqBy-4" value="我々はしゃべらない&lt;br&gt;質問は短く" style="rounded=1;whiteSpace=wrap;html=1;shadow=0;labelBackgroundColor=none;strokeColor=none;strokeWidth=3;fillColor=#e85642;fontFamily=Helvetica;fontSize=14;fontColor=#FFFFFF;align=center;spacing=5;fontStyle=1;arcSize=7;perimeterSpacing=2;" vertex="1" parent="Tm9lm75lwOxnOOCXiqBy-1">
          <mxGeometry x="10" y="214.5" width="150" height="60" as="geometry" />
        </mxCell>
        <mxCell id="OcERMqa2ZdiTpExtFHXh-4" style="edgeStyle=orthogonalEdgeStyle;rounded=0;orthogonalLoop=1;jettySize=auto;html=1;" edge="1" parent="1" source="OcERMqa2ZdiTpExtFHXh-1" target="OcERMqa2ZdiTpExtFHXh-3">
          <mxGeometry relative="1" as="geometry" />
        </mxCell>
        <mxCell id="4aRErcCBaJDCj75JPHU4-7" style="edgeStyle=orthogonalEdgeStyle;rounded=0;orthogonalLoop=1;jettySize=auto;html=1;" edge="1" parent="1" source="OcERMqa2ZdiTpExtFHXh-1" target="4aRErcCBaJDCj75JPHU4-6">
          <mxGeometry relative="1" as="geometry" />
        </mxCell>
        <mxCell id="OcERMqa2ZdiTpExtFHXh-1" value="&lt;font color=&quot;#1a1a1a&quot;&gt;まとまっていなかったら&lt;br&gt;&lt;/font&gt;" style="rounded=1;whiteSpace=wrap;html=1;shadow=0;labelBackgroundColor=none;strokeColor=#E6E6E6;strokeWidth=3;fillColor=#E6E6E6;fontFamily=Helvetica;fontSize=14;fontColor=#FFFFFF;align=center;spacing=5;arcSize=7;perimeterSpacing=2;" vertex="1" parent="1">
          <mxGeometry x="410" y="650" width="150" height="70" as="geometry" />
        </mxCell>
        <mxCell id="4aRErcCBaJDCj75JPHU4-5" style="edgeStyle=orthogonalEdgeStyle;rounded=0;orthogonalLoop=1;jettySize=auto;html=1;entryX=1;entryY=0.5;entryDx=0;entryDy=0;" edge="1" parent="1" source="OcERMqa2ZdiTpExtFHXh-3" target="4aRErcCBaJDCj75JPHU4-1">
          <mxGeometry relative="1" as="geometry" />
        </mxCell>
        <mxCell id="OcERMqa2ZdiTpExtFHXh-3" value="&lt;font color=&quot;#1a1a1a&quot;&gt;キーワードを&lt;br&gt;かいつまんで&lt;br&gt;オウム返し&lt;br&gt;&lt;/font&gt;" style="rounded=1;whiteSpace=wrap;html=1;shadow=0;labelBackgroundColor=none;strokeColor=#E6E6E6;strokeWidth=3;fillColor=#E6E6E6;fontFamily=Helvetica;fontSize=14;fontColor=#FFFFFF;align=center;spacing=5;arcSize=7;perimeterSpacing=2;" vertex="1" parent="1">
          <mxGeometry x="210" y="650" width="150" height="70" as="geometry" />
        </mxCell>
        <mxCell id="4aRErcCBaJDCj75JPHU4-1" value="ミラーリング" style="swimlane;whiteSpace=wrap;html=1;" vertex="1" parent="1">
          <mxGeometry x="10" y="545.25" width="170" height="279.5" as="geometry" />
        </mxCell>
        <mxCell id="4aRErcCBaJDCj75JPHU4-2" value="同じ行動をとる" style="rounded=1;whiteSpace=wrap;html=1;shadow=0;labelBackgroundColor=none;strokeColor=none;strokeWidth=3;fillColor=#F08705;fontFamily=Helvetica;fontSize=14;fontColor=#FFFFFF;align=center;spacing=5;fontStyle=1;arcSize=7;perimeterSpacing=2;" vertex="1" parent="4aRErcCBaJDCj75JPHU4-1">
          <mxGeometry x="10" y="200" width="150" height="73" as="geometry" />
        </mxCell>
        <mxCell id="4aRErcCBaJDCj75JPHU4-3" style="edgeStyle=orthogonalEdgeStyle;rounded=0;orthogonalLoop=1;jettySize=auto;html=1;" edge="1" parent="4aRErcCBaJDCj75JPHU4-1" source="4aRErcCBaJDCj75JPHU4-4" target="4aRErcCBaJDCj75JPHU4-2">
          <mxGeometry relative="1" as="geometry" />
        </mxCell>
        <mxCell id="4aRErcCBaJDCj75JPHU4-4" value="同じ行動をとる人を&lt;br&gt;無意識に気に入ってしまう心理" style="rounded=1;whiteSpace=wrap;html=1;shadow=0;labelBackgroundColor=none;strokeColor=none;strokeWidth=3;fillColor=#f5af58;fontFamily=Helvetica;fontSize=14;fontColor=#FFFFFF;align=center;spacing=5;arcSize=7;perimeterSpacing=2;" vertex="1" parent="4aRErcCBaJDCj75JPHU4-1">
          <mxGeometry x="10" y="34" width="150" height="148" as="geometry" />
        </mxCell>
        <mxCell id="mOaVPU31h0OK8rvFDCxf-5" style="edgeStyle=orthogonalEdgeStyle;rounded=0;orthogonalLoop=1;jettySize=auto;html=1;entryX=0;entryY=0.5;entryDx=0;entryDy=0;" edge="1" parent="1" source="4aRErcCBaJDCj75JPHU4-6" target="mOaVPU31h0OK8rvFDCxf-1">
          <mxGeometry relative="1" as="geometry" />
        </mxCell>
        <mxCell id="mOaVPU31h0OK8rvFDCxf-7" style="edgeStyle=orthogonalEdgeStyle;rounded=0;orthogonalLoop=1;jettySize=auto;html=1;" edge="1" parent="1" source="4aRErcCBaJDCj75JPHU4-6" target="mOaVPU31h0OK8rvFDCxf-6">
          <mxGeometry relative="1" as="geometry" />
        </mxCell>
        <mxCell id="4aRErcCBaJDCj75JPHU4-6" value="&lt;font color=&quot;#1a1a1a&quot;&gt;ほかのチームが補足&lt;br&gt;&lt;/font&gt;" style="rounded=1;whiteSpace=wrap;html=1;shadow=0;labelBackgroundColor=none;strokeColor=#E6E6E6;strokeWidth=3;fillColor=#E6E6E6;fontFamily=Helvetica;fontSize=14;fontColor=#FFFFFF;align=center;spacing=5;arcSize=7;perimeterSpacing=2;" vertex="1" parent="1">
          <mxGeometry x="410" y="824.75" width="150" height="70" as="geometry" />
        </mxCell>
        <mxCell id="mOaVPU31h0OK8rvFDCxf-1" value="共通点を強調" style="swimlane;whiteSpace=wrap;html=1;" vertex="1" parent="1">
          <mxGeometry x="640" y="720" width="170" height="279.5" as="geometry" />
        </mxCell>
        <mxCell id="mOaVPU31h0OK8rvFDCxf-2" value="同じ行動をとる" style="rounded=1;whiteSpace=wrap;html=1;shadow=0;labelBackgroundColor=none;strokeColor=none;strokeWidth=3;fillColor=#F08705;fontFamily=Helvetica;fontSize=14;fontColor=#FFFFFF;align=center;spacing=5;fontStyle=1;arcSize=7;perimeterSpacing=2;" vertex="1" parent="mOaVPU31h0OK8rvFDCxf-1">
          <mxGeometry x="10" y="200" width="150" height="73" as="geometry" />
        </mxCell>
        <mxCell id="mOaVPU31h0OK8rvFDCxf-3" style="edgeStyle=orthogonalEdgeStyle;rounded=0;orthogonalLoop=1;jettySize=auto;html=1;" edge="1" parent="mOaVPU31h0OK8rvFDCxf-1" source="mOaVPU31h0OK8rvFDCxf-4" target="mOaVPU31h0OK8rvFDCxf-2">
          <mxGeometry relative="1" as="geometry" />
        </mxCell>
        <mxCell id="mOaVPU31h0OK8rvFDCxf-4" value="人と人、集団と集団が横並びに置かれるとき、その集団の「差分」が強調されてしまう。&lt;br&gt;そうではなく、「共通項」に着目することで" style="rounded=1;whiteSpace=wrap;html=1;shadow=0;labelBackgroundColor=none;strokeColor=none;strokeWidth=3;fillColor=#f5af58;fontFamily=Helvetica;fontSize=14;fontColor=#FFFFFF;align=center;spacing=5;arcSize=7;perimeterSpacing=2;" vertex="1" parent="mOaVPU31h0OK8rvFDCxf-1">
          <mxGeometry x="10" y="34" width="150" height="148" as="geometry" />
        </mxCell>
        <mxCell id="mOaVPU31h0OK8rvFDCxf-6" value="&lt;font color=&quot;#1a1a1a&quot;&gt;書籍から得たナレッジに基づいて&lt;br&gt;「チーム」がやるべきことを明確にする&lt;br&gt;&lt;/font&gt;" style="rounded=1;whiteSpace=wrap;html=1;shadow=0;labelBackgroundColor=none;strokeColor=none;strokeWidth=3;fillColor=#CCCCCC;fontFamily=Helvetica;fontSize=14;fontColor=#FFFFFF;align=center;spacing=5;fontStyle=1;arcSize=7;perimeterSpacing=2;" vertex="1" parent="1">
          <mxGeometry x="410" y="1020" width="150" height="70" as="geometry" />
        </mxCell>
        <mxCell id="YYKasqwwqThwly3aymOt-11" style="edgeStyle=orthogonalEdgeStyle;rounded=0;orthogonalLoop=1;jettySize=auto;html=1;" edge="1" parent="1" source="YYKasqwwqThwly3aymOt-1" target="4aRErcCBaJDCj75JPHU4-6">
          <mxGeometry relative="1" as="geometry" />
        </mxCell>
        <mxCell id="YYKasqwwqThwly3aymOt-1" value="素早いレスポンス" style="swimlane;whiteSpace=wrap;html=1;" vertex="1" parent="1">
          <mxGeometry x="10" y="840" width="370" height="279.5" as="geometry" />
        </mxCell>
        <mxCell id="YYKasqwwqThwly3aymOt-2" value="「リアクション」押下" style="rounded=1;whiteSpace=wrap;html=1;shadow=0;labelBackgroundColor=none;strokeColor=none;strokeWidth=3;fillColor=#F08705;fontFamily=Helvetica;fontSize=14;fontColor=#FFFFFF;align=center;spacing=5;fontStyle=1;arcSize=7;perimeterSpacing=2;" vertex="1" parent="YYKasqwwqThwly3aymOt-1">
          <mxGeometry x="10" y="210" width="150" height="63" as="geometry" />
        </mxCell>
        <mxCell id="YYKasqwwqThwly3aymOt-3" style="edgeStyle=orthogonalEdgeStyle;rounded=0;orthogonalLoop=1;jettySize=auto;html=1;" edge="1" parent="YYKasqwwqThwly3aymOt-1" source="YYKasqwwqThwly3aymOt-4" target="YYKasqwwqThwly3aymOt-2">
          <mxGeometry relative="1" as="geometry" />
        </mxCell>
        <mxCell id="YYKasqwwqThwly3aymOt-4" value="素早いレスポンスは安心感を生む。&lt;br&gt;ネガティブであれ、ポジティブであれ、フィードバックがないよりは遥かにマシ" style="rounded=1;whiteSpace=wrap;html=1;shadow=0;labelBackgroundColor=none;strokeColor=none;strokeWidth=3;fillColor=#f5af58;fontFamily=Helvetica;fontSize=14;fontColor=#FFFFFF;align=center;spacing=5;arcSize=7;perimeterSpacing=2;" vertex="1" parent="YYKasqwwqThwly3aymOt-1">
          <mxGeometry x="10" y="34" width="150" height="148" as="geometry" />
        </mxCell>
        <mxCell id="YYKasqwwqThwly3aymOt-5" style="edgeStyle=orthogonalEdgeStyle;rounded=0;orthogonalLoop=1;jettySize=auto;html=1;" edge="1" parent="YYKasqwwqThwly3aymOt-1" source="YYKasqwwqThwly3aymOt-6" target="YYKasqwwqThwly3aymOt-7">
          <mxGeometry relative="1" as="geometry" />
        </mxCell>
        <mxCell id="YYKasqwwqThwly3aymOt-6" value="「無言」を選択することで&lt;br style=&quot;border-color: var(--border-color);&quot;&gt;勝手にいろいろ想像してしまう&lt;br style=&quot;border-color: var(--border-color);&quot;&gt;不安感をあおることが出来る" style="rounded=1;whiteSpace=wrap;html=1;shadow=0;labelBackgroundColor=none;strokeColor=none;strokeWidth=3;fillColor=#61c6ce;fontFamily=Helvetica;fontSize=14;fontColor=#FFFFFF;align=center;spacing=5;fontStyle=0;arcSize=7;perimeterSpacing=2;" vertex="1" parent="YYKasqwwqThwly3aymOt-1">
          <mxGeometry x="210" y="34" width="150" height="150" as="geometry" />
        </mxCell>
        <mxCell id="YYKasqwwqThwly3aymOt-7" value="無言戦略" style="rounded=1;whiteSpace=wrap;html=1;shadow=0;labelBackgroundColor=none;strokeColor=none;strokeWidth=3;fillColor=#12aab5;fontFamily=Helvetica;fontSize=14;fontColor=#FFFFFF;align=center;spacing=5;fontStyle=1;arcSize=7;perimeterSpacing=2;" vertex="1" parent="YYKasqwwqThwly3aymOt-1">
          <mxGeometry x="210" y="209.9999999999999" width="150" height="60" as="geometry" />
        </mxCell>
      </root>
    </mxGraphModel>
  </diagram>
  <diagram id="1plbAx_9VQHVg5MG6I37" name="20231204雑談">
    <mxGraphModel dx="1674" dy="828" grid="1" gridSize="10" guides="1" tooltips="1" connect="1" arrows="1" fold="1" page="1" pageScale="1" pageWidth="827" pageHeight="1169" math="0" shadow="0">
      <root>
        <mxCell id="0" />
        <mxCell id="1" parent="0" />
        <mxCell id="odDVto0Fo13Ymglr2l21-1" style="edgeStyle=orthogonalEdgeStyle;rounded=0;orthogonalLoop=1;jettySize=auto;html=1;" parent="1" source="odDVto0Fo13Ymglr2l21-2" target="odDVto0Fo13Ymglr2l21-18" edge="1">
          <mxGeometry relative="1" as="geometry" />
        </mxCell>
        <mxCell id="odDVto0Fo13Ymglr2l21-2" value="うなずきは早めに" style="swimlane;whiteSpace=wrap;html=1;" parent="1" vertex="1">
          <mxGeometry x="560" y="400" width="170" height="280" as="geometry" />
        </mxCell>
        <mxCell id="odDVto0Fo13Ymglr2l21-3" style="edgeStyle=orthogonalEdgeStyle;rounded=0;orthogonalLoop=1;jettySize=auto;html=1;entryX=0.5;entryY=0;entryDx=0;entryDy=0;" parent="odDVto0Fo13Ymglr2l21-2" source="odDVto0Fo13Ymglr2l21-4" target="odDVto0Fo13Ymglr2l21-5" edge="1">
          <mxGeometry relative="1" as="geometry" />
        </mxCell>
        <mxCell id="odDVto0Fo13Ymglr2l21-4" value="&lt;div&gt;- 「沈黙」を選択 : 誠実性が上がる&lt;/div&gt;&lt;div&gt;- 「多弁」を選択 : 誠実性が下がる&lt;/div&gt;" style="rounded=1;whiteSpace=wrap;html=1;shadow=0;labelBackgroundColor=none;strokeColor=none;strokeWidth=3;fillColor=#FCAD90;fontFamily=Helvetica;fontSize=14;fontColor=#FFFFFF;align=center;spacing=5;arcSize=7;perimeterSpacing=2;" parent="odDVto0Fo13Ymglr2l21-2" vertex="1">
          <mxGeometry x="10" y="32" width="150" height="148" as="geometry" />
        </mxCell>
        <mxCell id="odDVto0Fo13Ymglr2l21-5" value="多弁" style="rounded=1;whiteSpace=wrap;html=1;shadow=0;labelBackgroundColor=none;strokeColor=none;strokeWidth=3;fillColor=#e85642;fontFamily=Helvetica;fontSize=14;fontColor=#FFFFFF;align=center;spacing=5;fontStyle=1;arcSize=7;perimeterSpacing=2;" parent="odDVto0Fo13Ymglr2l21-2" vertex="1">
          <mxGeometry x="10" y="214.5" width="150" height="60" as="geometry" />
        </mxCell>
        <mxCell id="odDVto0Fo13Ymglr2l21-9" value="行動の一貫性" style="swimlane;whiteSpace=wrap;html=1;" parent="1" vertex="1">
          <mxGeometry x="560" y="20" width="170" height="279.5" as="geometry" />
        </mxCell>
        <mxCell id="odDVto0Fo13Ymglr2l21-10" value="自分の意図に沿わない行動をした後、&lt;br&gt;その行動に合う認識にすり替える" style="rounded=1;whiteSpace=wrap;html=1;shadow=0;labelBackgroundColor=none;strokeColor=none;strokeWidth=3;fillColor=#F08705;fontFamily=Helvetica;fontSize=14;fontColor=#FFFFFF;align=center;spacing=5;fontStyle=1;arcSize=7;perimeterSpacing=2;" parent="odDVto0Fo13Ymglr2l21-9" vertex="1">
          <mxGeometry x="10" y="200" width="150" height="73" as="geometry" />
        </mxCell>
        <mxCell id="odDVto0Fo13Ymglr2l21-11" style="edgeStyle=orthogonalEdgeStyle;rounded=0;orthogonalLoop=1;jettySize=auto;html=1;" parent="odDVto0Fo13Ymglr2l21-9" source="odDVto0Fo13Ymglr2l21-12" target="odDVto0Fo13Ymglr2l21-10" edge="1">
          <mxGeometry relative="1" as="geometry" />
        </mxCell>
        <mxCell id="odDVto0Fo13Ymglr2l21-12" value="（記入したくもない）&lt;br&gt;「自己紹介シートに&lt;br&gt;わざわざ時間をかけて&lt;br&gt;記入したのは&lt;br&gt;&lt;br&gt;わたしがこの人たちと仲良くしたいからだ」" style="rounded=1;whiteSpace=wrap;html=1;shadow=0;labelBackgroundColor=none;strokeColor=none;strokeWidth=3;fillColor=#f5af58;fontFamily=Helvetica;fontSize=14;fontColor=#FFFFFF;align=center;spacing=5;arcSize=7;perimeterSpacing=2;" parent="odDVto0Fo13Ymglr2l21-9" vertex="1">
          <mxGeometry x="10" y="34" width="150" height="148" as="geometry" />
        </mxCell>
        <mxCell id="odDVto0Fo13Ymglr2l21-13" style="edgeStyle=orthogonalEdgeStyle;rounded=0;orthogonalLoop=1;jettySize=auto;html=1;" parent="1" source="odDVto0Fo13Ymglr2l21-14" target="odDVto0Fo13Ymglr2l21-18" edge="1">
          <mxGeometry relative="1" as="geometry" />
        </mxCell>
        <mxCell id="odDVto0Fo13Ymglr2l21-14" value="相手にしゃべらせる" style="swimlane;whiteSpace=wrap;html=1;" parent="1" vertex="1">
          <mxGeometry x="360" y="400" width="170" height="280" as="geometry" />
        </mxCell>
        <mxCell id="odDVto0Fo13Ymglr2l21-15" style="edgeStyle=orthogonalEdgeStyle;rounded=0;orthogonalLoop=1;jettySize=auto;html=1;entryX=0.5;entryY=0;entryDx=0;entryDy=0;" parent="odDVto0Fo13Ymglr2l21-14" source="odDVto0Fo13Ymglr2l21-16" target="odDVto0Fo13Ymglr2l21-17" edge="1">
          <mxGeometry relative="1" as="geometry" />
        </mxCell>
        <mxCell id="odDVto0Fo13Ymglr2l21-16" value="人間は&lt;br&gt;話すよりも&lt;br&gt;聞くほうが&lt;br&gt;大好き&lt;br&gt;&lt;br&gt;好きな話題なら&lt;br&gt;猶更" style="rounded=1;whiteSpace=wrap;html=1;shadow=0;labelBackgroundColor=none;strokeColor=none;strokeWidth=3;fillColor=#FCAD90;fontFamily=Helvetica;fontSize=14;fontColor=#FFFFFF;align=center;spacing=5;arcSize=7;perimeterSpacing=2;" parent="odDVto0Fo13Ymglr2l21-14" vertex="1">
          <mxGeometry x="10" y="32" width="150" height="148" as="geometry" />
        </mxCell>
        <mxCell id="odDVto0Fo13Ymglr2l21-17" value="我々はしゃべらない&lt;br&gt;質問は短く" style="rounded=1;whiteSpace=wrap;html=1;shadow=0;labelBackgroundColor=none;strokeColor=none;strokeWidth=3;fillColor=#e85642;fontFamily=Helvetica;fontSize=14;fontColor=#FFFFFF;align=center;spacing=5;fontStyle=1;arcSize=7;perimeterSpacing=2;" parent="odDVto0Fo13Ymglr2l21-14" vertex="1">
          <mxGeometry x="10" y="214.5" width="150" height="60" as="geometry" />
        </mxCell>
        <mxCell id="IWnXqhlrf262FQceN0Y7-3" value="&lt;font color=&quot;#1a1a1a&quot;&gt;いつぐらいの時間帯？&lt;br&gt;&lt;/font&gt;" style="rounded=1;whiteSpace=wrap;html=1;shadow=0;labelBackgroundColor=none;strokeColor=#E6E6E6;strokeWidth=3;fillColor=#E6E6E6;fontFamily=Helvetica;fontSize=14;fontColor=#FFFFFF;align=center;spacing=5;arcSize=7;perimeterSpacing=2;" parent="odDVto0Fo13Ymglr2l21-14" vertex="1">
          <mxGeometry x="-160" y="10" width="120" height="70" as="geometry" />
        </mxCell>
        <mxCell id="odDVto0Fo13Ymglr2l21-18" value="好感度向上" style="rounded=1;whiteSpace=wrap;html=1;shadow=0;labelBackgroundColor=none;strokeColor=none;strokeWidth=3;fillColor=#e85642;fontFamily=Helvetica;fontSize=14;fontColor=#FFFFFF;align=center;spacing=5;fontStyle=1;arcSize=7;perimeterSpacing=2;" parent="1" vertex="1">
          <mxGeometry x="470" y="750" width="150" height="60" as="geometry" />
        </mxCell>
        <mxCell id="VLVflD545UYTdqMCVPuT-2" style="edgeStyle=orthogonalEdgeStyle;rounded=0;orthogonalLoop=1;jettySize=auto;html=1;entryX=0.5;entryY=0;entryDx=0;entryDy=0;" parent="1" source="XAdkgJk2sy5vd7coM2Hb-1" target="odDVto0Fo13Ymglr2l21-14" edge="1">
          <mxGeometry relative="1" as="geometry" />
        </mxCell>
        <mxCell id="VLVflD545UYTdqMCVPuT-3" style="edgeStyle=orthogonalEdgeStyle;rounded=0;orthogonalLoop=1;jettySize=auto;html=1;entryX=0.5;entryY=0;entryDx=0;entryDy=0;" parent="1" source="XAdkgJk2sy5vd7coM2Hb-1" target="odDVto0Fo13Ymglr2l21-2" edge="1">
          <mxGeometry relative="1" as="geometry" />
        </mxCell>
        <mxCell id="IWnXqhlrf262FQceN0Y7-6" style="edgeStyle=orthogonalEdgeStyle;rounded=0;orthogonalLoop=1;jettySize=auto;html=1;" parent="1" source="XAdkgJk2sy5vd7coM2Hb-1" target="IWnXqhlrf262FQceN0Y7-1" edge="1">
          <mxGeometry relative="1" as="geometry" />
        </mxCell>
        <mxCell id="IWnXqhlrf262FQceN0Y7-7" style="edgeStyle=orthogonalEdgeStyle;rounded=0;orthogonalLoop=1;jettySize=auto;html=1;" parent="1" source="XAdkgJk2sy5vd7coM2Hb-1" target="IWnXqhlrf262FQceN0Y7-3" edge="1">
          <mxGeometry relative="1" as="geometry" />
        </mxCell>
        <mxCell id="XAdkgJk2sy5vd7coM2Hb-1" value="&lt;font color=&quot;#1a1a1a&quot;&gt;ランニング&lt;br&gt;&lt;/font&gt;" style="rounded=1;whiteSpace=wrap;html=1;shadow=0;labelBackgroundColor=none;strokeColor=#E6E6E6;strokeWidth=3;fillColor=#E6E6E6;fontFamily=Helvetica;fontSize=14;fontColor=#FFFFFF;align=center;spacing=5;arcSize=7;perimeterSpacing=2;" parent="1" vertex="1">
          <mxGeometry x="40" y="290" width="270" height="70" as="geometry" />
        </mxCell>
        <mxCell id="VLVflD545UYTdqMCVPuT-1" style="edgeStyle=orthogonalEdgeStyle;rounded=0;orthogonalLoop=1;jettySize=auto;html=1;" parent="1" source="ZOZlYTFqH7sLW8RfByV3-1" target="XAdkgJk2sy5vd7coM2Hb-1" edge="1">
          <mxGeometry relative="1" as="geometry" />
        </mxCell>
        <mxCell id="VLVflD545UYTdqMCVPuT-4" style="edgeStyle=orthogonalEdgeStyle;rounded=0;orthogonalLoop=1;jettySize=auto;html=1;entryX=0;entryY=0.5;entryDx=0;entryDy=0;" parent="1" source="ZOZlYTFqH7sLW8RfByV3-1" target="odDVto0Fo13Ymglr2l21-9" edge="1">
          <mxGeometry relative="1" as="geometry" />
        </mxCell>
        <mxCell id="ZOZlYTFqH7sLW8RfByV3-1" value="&lt;font color=&quot;#1a1a1a&quot;&gt;自己紹介シートに記入&lt;/font&gt;" style="rounded=1;whiteSpace=wrap;html=1;shadow=0;labelBackgroundColor=none;strokeColor=none;strokeWidth=3;fillColor=#CCCCCC;fontFamily=Helvetica;fontSize=14;fontColor=#FFFFFF;align=center;spacing=5;fontStyle=1;arcSize=7;perimeterSpacing=2;" parent="1" vertex="1">
          <mxGeometry x="40" y="129.75" width="270" height="60" as="geometry" />
        </mxCell>
        <mxCell id="pshtFrY47hpWbBrxWV-U-2" style="edgeStyle=orthogonalEdgeStyle;rounded=0;orthogonalLoop=1;jettySize=auto;html=1;" parent="1" source="IWnXqhlrf262FQceN0Y7-1" target="IWnXqhlrf262FQceN0Y7-5" edge="1">
          <mxGeometry relative="1" as="geometry" />
        </mxCell>
        <mxCell id="IWnXqhlrf262FQceN0Y7-1" value="&lt;font color=&quot;#1a1a1a&quot;&gt;最近どんなコースを走っているんですか？&lt;br&gt;&lt;/font&gt;" style="rounded=1;whiteSpace=wrap;html=1;shadow=0;labelBackgroundColor=none;strokeColor=#E6E6E6;strokeWidth=3;fillColor=#E6E6E6;fontFamily=Helvetica;fontSize=14;fontColor=#FFFFFF;align=center;spacing=5;arcSize=7;perimeterSpacing=2;" parent="1" vertex="1">
          <mxGeometry x="40" y="410" width="120" height="70" as="geometry" />
        </mxCell>
        <mxCell id="IWnXqhlrf262FQceN0Y7-5" value="&lt;font color=&quot;#1a1a1a&quot;&gt;差し支えなければ&lt;br&gt;どのあたりに&lt;br&gt;お住まいなんですか？&lt;br&gt;&lt;/font&gt;" style="rounded=1;whiteSpace=wrap;html=1;shadow=0;labelBackgroundColor=none;strokeColor=#E6E6E6;strokeWidth=3;fillColor=#E6E6E6;fontFamily=Helvetica;fontSize=14;fontColor=#FFFFFF;align=center;spacing=5;arcSize=7;perimeterSpacing=2;" parent="1" vertex="1">
          <mxGeometry x="40" y="530" width="120" height="70" as="geometry" />
        </mxCell>
      </root>
    </mxGraphModel>
  </diagram>
  <diagram id="Eay-WQxoJhPxK3ulqJgR" name="20231201雑談">
    <mxGraphModel dx="1674" dy="828" grid="1" gridSize="10" guides="1" tooltips="1" connect="1" arrows="1" fold="1" page="1" pageScale="1" pageWidth="827" pageHeight="1169" math="0" shadow="0">
      <root>
        <mxCell id="0" />
        <mxCell id="1" parent="0" />
        <mxCell id="z5LlWfboSo2KKEyXTuNz-3" style="edgeStyle=orthogonalEdgeStyle;rounded=0;orthogonalLoop=1;jettySize=auto;html=1;" parent="1" source="9G2kwhHkg4hncXh33eYF-1" target="z5LlWfboSo2KKEyXTuNz-1" edge="1">
          <mxGeometry relative="1" as="geometry" />
        </mxCell>
        <mxCell id="9G2kwhHkg4hncXh33eYF-1" value="うなずきは早めに" style="swimlane;whiteSpace=wrap;html=1;" parent="1" vertex="1">
          <mxGeometry x="560" y="400" width="170" height="280" as="geometry" />
        </mxCell>
        <mxCell id="9G2kwhHkg4hncXh33eYF-2" style="edgeStyle=orthogonalEdgeStyle;rounded=0;orthogonalLoop=1;jettySize=auto;html=1;entryX=0.5;entryY=0;entryDx=0;entryDy=0;" parent="9G2kwhHkg4hncXh33eYF-1" source="9G2kwhHkg4hncXh33eYF-3" target="9G2kwhHkg4hncXh33eYF-4" edge="1">
          <mxGeometry relative="1" as="geometry" />
        </mxCell>
        <mxCell id="9G2kwhHkg4hncXh33eYF-3" value="&lt;div&gt;- 「沈黙」を選択 : 誠実性が上がる&lt;/div&gt;&lt;div&gt;- 「多弁」を選択 : 誠実性が下がる&lt;/div&gt;" style="rounded=1;whiteSpace=wrap;html=1;shadow=0;labelBackgroundColor=none;strokeColor=none;strokeWidth=3;fillColor=#FCAD90;fontFamily=Helvetica;fontSize=14;fontColor=#FFFFFF;align=center;spacing=5;arcSize=7;perimeterSpacing=2;" parent="9G2kwhHkg4hncXh33eYF-1" vertex="1">
          <mxGeometry x="10" y="32" width="150" height="148" as="geometry" />
        </mxCell>
        <mxCell id="9G2kwhHkg4hncXh33eYF-4" value="多弁" style="rounded=1;whiteSpace=wrap;html=1;shadow=0;labelBackgroundColor=none;strokeColor=none;strokeWidth=3;fillColor=#e85642;fontFamily=Helvetica;fontSize=14;fontColor=#FFFFFF;align=center;spacing=5;fontStyle=1;arcSize=7;perimeterSpacing=2;" parent="9G2kwhHkg4hncXh33eYF-1" vertex="1">
          <mxGeometry x="10" y="214.5" width="150" height="60" as="geometry" />
        </mxCell>
        <mxCell id="boOmq-aYMATd0l8l7cGb-1" style="edgeStyle=orthogonalEdgeStyle;rounded=0;orthogonalLoop=1;jettySize=auto;html=1;entryX=0.5;entryY=0;entryDx=0;entryDy=0;" parent="1" source="-BCqaTKRusHwG9S_5g9y-1" target="-BCqaTKRusHwG9S_5g9y-2" edge="1">
          <mxGeometry relative="1" as="geometry" />
        </mxCell>
        <mxCell id="-BCqaTKRusHwG9S_5g9y-1" value="&lt;font color=&quot;#1a1a1a&quot;&gt;「西さん」「藤原さん」雑談の自己紹介の件ありがとうございました！&lt;br&gt;&lt;/font&gt;" style="rounded=1;whiteSpace=wrap;html=1;shadow=0;labelBackgroundColor=none;strokeColor=#E6E6E6;strokeWidth=3;fillColor=#E6E6E6;fontFamily=Helvetica;fontSize=14;fontColor=#FFFFFF;align=center;spacing=5;arcSize=7;perimeterSpacing=2;" parent="1" vertex="1">
          <mxGeometry x="40" y="170" width="270" height="70" as="geometry" />
        </mxCell>
        <mxCell id="boOmq-aYMATd0l8l7cGb-2" style="edgeStyle=orthogonalEdgeStyle;rounded=0;orthogonalLoop=1;jettySize=auto;html=1;" parent="1" source="-BCqaTKRusHwG9S_5g9y-2" target="-BCqaTKRusHwG9S_5g9y-3" edge="1">
          <mxGeometry relative="1" as="geometry" />
        </mxCell>
        <mxCell id="8dNlu7c9fE2hS2LCtmg8-2" style="edgeStyle=orthogonalEdgeStyle;rounded=0;orthogonalLoop=1;jettySize=auto;html=1;entryX=0;entryY=0.5;entryDx=0;entryDy=0;" parent="1" source="-BCqaTKRusHwG9S_5g9y-2" target="8dNlu7c9fE2hS2LCtmg8-1" edge="1">
          <mxGeometry relative="1" as="geometry" />
        </mxCell>
        <mxCell id="-BCqaTKRusHwG9S_5g9y-2" value="&lt;font color=&quot;#1a1a1a&quot;&gt;お二方が&lt;br&gt;想定よりアニメとか映画の話が出来そうで安心しましたw&lt;br&gt;&lt;/font&gt;" style="rounded=1;whiteSpace=wrap;html=1;shadow=0;labelBackgroundColor=none;strokeColor=#E6E6E6;strokeWidth=3;fillColor=#E6E6E6;fontFamily=Helvetica;fontSize=14;fontColor=#FFFFFF;align=center;spacing=5;arcSize=7;perimeterSpacing=2;" parent="1" vertex="1">
          <mxGeometry x="40" y="280" width="270" height="70" as="geometry" />
        </mxCell>
        <mxCell id="mkrGKO67qtOmYXRXXm3Z-13" style="edgeStyle=orthogonalEdgeStyle;rounded=0;orthogonalLoop=1;jettySize=auto;html=1;entryX=0;entryY=0.5;entryDx=0;entryDy=0;" parent="1" source="-BCqaTKRusHwG9S_5g9y-3" target="mkrGKO67qtOmYXRXXm3Z-5" edge="1">
          <mxGeometry relative="1" as="geometry" />
        </mxCell>
        <mxCell id="-BCqaTKRusHwG9S_5g9y-3" value="&lt;font color=&quot;#1a1a1a&quot;&gt;あだ名がものすごい独特で...&lt;br&gt;&lt;br&gt;これは？&lt;br&gt;&lt;/font&gt;" style="rounded=1;whiteSpace=wrap;html=1;shadow=0;labelBackgroundColor=none;strokeColor=#E6E6E6;strokeWidth=3;fillColor=#E6E6E6;fontFamily=Helvetica;fontSize=14;fontColor=#FFFFFF;align=center;spacing=5;arcSize=7;perimeterSpacing=2;" parent="1" vertex="1">
          <mxGeometry x="40" y="400" width="270" height="70" as="geometry" />
        </mxCell>
        <mxCell id="mkrGKO67qtOmYXRXXm3Z-11" style="edgeStyle=orthogonalEdgeStyle;rounded=0;orthogonalLoop=1;jettySize=auto;html=1;entryX=0.5;entryY=0;entryDx=0;entryDy=0;" parent="1" source="8dNlu7c9fE2hS2LCtmg8-1" target="9G2kwhHkg4hncXh33eYF-1" edge="1">
          <mxGeometry relative="1" as="geometry" />
        </mxCell>
        <mxCell id="mkrGKO67qtOmYXRXXm3Z-14" style="edgeStyle=orthogonalEdgeStyle;rounded=0;orthogonalLoop=1;jettySize=auto;html=1;entryX=0.5;entryY=0;entryDx=0;entryDy=0;" parent="1" source="8dNlu7c9fE2hS2LCtmg8-1" target="mkrGKO67qtOmYXRXXm3Z-5" edge="1">
          <mxGeometry relative="1" as="geometry" />
        </mxCell>
        <mxCell id="8dNlu7c9fE2hS2LCtmg8-1" value="&lt;font color=&quot;#1a1a1a&quot;&gt;呪術回線&lt;br&gt;&lt;/font&gt;" style="rounded=1;whiteSpace=wrap;html=1;shadow=0;labelBackgroundColor=none;strokeColor=#E6E6E6;strokeWidth=3;fillColor=#E6E6E6;fontFamily=Helvetica;fontSize=14;fontColor=#FFFFFF;align=center;spacing=5;arcSize=7;perimeterSpacing=2;" parent="1" vertex="1">
          <mxGeometry x="410" y="280" width="70" height="70" as="geometry" />
        </mxCell>
        <mxCell id="mE6FiLrIX8nfGtWo1UmE-2" style="edgeStyle=orthogonalEdgeStyle;rounded=0;orthogonalLoop=1;jettySize=auto;html=1;entryX=0.5;entryY=0;entryDx=0;entryDy=0;" parent="1" source="mE6FiLrIX8nfGtWo1UmE-1" target="-BCqaTKRusHwG9S_5g9y-1" edge="1">
          <mxGeometry relative="1" as="geometry" />
        </mxCell>
        <mxCell id="mkrGKO67qtOmYXRXXm3Z-2" style="edgeStyle=orthogonalEdgeStyle;rounded=0;orthogonalLoop=1;jettySize=auto;html=1;" parent="1" source="mE6FiLrIX8nfGtWo1UmE-1" target="-4RueNEUWqG0jqdmM7yz-1" edge="1">
          <mxGeometry relative="1" as="geometry" />
        </mxCell>
        <mxCell id="mE6FiLrIX8nfGtWo1UmE-1" value="&lt;font color=&quot;#1a1a1a&quot;&gt;あらかじめ自己紹介&lt;br&gt;シートに記入&lt;br&gt;していただく&lt;/font&gt;" style="rounded=1;whiteSpace=wrap;html=1;shadow=0;labelBackgroundColor=none;strokeColor=none;strokeWidth=3;fillColor=#CCCCCC;fontFamily=Helvetica;fontSize=14;fontColor=#FFFFFF;align=center;spacing=5;fontStyle=1;arcSize=7;perimeterSpacing=2;" parent="1" vertex="1">
          <mxGeometry x="40" y="90.25" width="270" height="60" as="geometry" />
        </mxCell>
        <mxCell id="mkrGKO67qtOmYXRXXm3Z-3" style="edgeStyle=orthogonalEdgeStyle;rounded=0;orthogonalLoop=1;jettySize=auto;html=1;" parent="1" source="-4RueNEUWqG0jqdmM7yz-1" target="-BCqaTKRusHwG9S_5g9y-1" edge="1">
          <mxGeometry relative="1" as="geometry" />
        </mxCell>
        <mxCell id="-4RueNEUWqG0jqdmM7yz-1" value="行動の一貫性" style="swimlane;whiteSpace=wrap;html=1;" parent="1" vertex="1">
          <mxGeometry x="560" y="20" width="170" height="279.5" as="geometry" />
        </mxCell>
        <mxCell id="-4RueNEUWqG0jqdmM7yz-2" value="自分の意図に沿わない行動をした後、&lt;br&gt;その行動に合う認識にすり替える" style="rounded=1;whiteSpace=wrap;html=1;shadow=0;labelBackgroundColor=none;strokeColor=none;strokeWidth=3;fillColor=#F08705;fontFamily=Helvetica;fontSize=14;fontColor=#FFFFFF;align=center;spacing=5;fontStyle=1;arcSize=7;perimeterSpacing=2;" parent="-4RueNEUWqG0jqdmM7yz-1" vertex="1">
          <mxGeometry x="10" y="200" width="150" height="73" as="geometry" />
        </mxCell>
        <mxCell id="-4RueNEUWqG0jqdmM7yz-3" style="edgeStyle=orthogonalEdgeStyle;rounded=0;orthogonalLoop=1;jettySize=auto;html=1;" parent="-4RueNEUWqG0jqdmM7yz-1" source="-4RueNEUWqG0jqdmM7yz-4" target="-4RueNEUWqG0jqdmM7yz-2" edge="1">
          <mxGeometry relative="1" as="geometry" />
        </mxCell>
        <mxCell id="-4RueNEUWqG0jqdmM7yz-4" value="（記入したくもない）&lt;br&gt;「自己紹介シートに&lt;br&gt;わざわざ時間をかけて&lt;br&gt;記入したのは&lt;br&gt;&lt;br&gt;わたしがこの人たちと仲良くしたいからだ」" style="rounded=1;whiteSpace=wrap;html=1;shadow=0;labelBackgroundColor=none;strokeColor=none;strokeWidth=3;fillColor=#f5af58;fontFamily=Helvetica;fontSize=14;fontColor=#FFFFFF;align=center;spacing=5;arcSize=7;perimeterSpacing=2;" parent="-4RueNEUWqG0jqdmM7yz-1" vertex="1">
          <mxGeometry x="10" y="34" width="150" height="148" as="geometry" />
        </mxCell>
        <mxCell id="z5LlWfboSo2KKEyXTuNz-2" style="edgeStyle=orthogonalEdgeStyle;rounded=0;orthogonalLoop=1;jettySize=auto;html=1;" parent="1" source="mkrGKO67qtOmYXRXXm3Z-5" target="z5LlWfboSo2KKEyXTuNz-1" edge="1">
          <mxGeometry relative="1" as="geometry" />
        </mxCell>
        <mxCell id="mkrGKO67qtOmYXRXXm3Z-5" value="相手にしゃべらせる" style="swimlane;whiteSpace=wrap;html=1;" parent="1" vertex="1">
          <mxGeometry x="360" y="400" width="170" height="280" as="geometry" />
        </mxCell>
        <mxCell id="mkrGKO67qtOmYXRXXm3Z-6" style="edgeStyle=orthogonalEdgeStyle;rounded=0;orthogonalLoop=1;jettySize=auto;html=1;entryX=0.5;entryY=0;entryDx=0;entryDy=0;" parent="mkrGKO67qtOmYXRXXm3Z-5" source="mkrGKO67qtOmYXRXXm3Z-7" target="mkrGKO67qtOmYXRXXm3Z-8" edge="1">
          <mxGeometry relative="1" as="geometry" />
        </mxCell>
        <mxCell id="mkrGKO67qtOmYXRXXm3Z-7" value="人間は&lt;br&gt;話すよりも&lt;br&gt;聞くほうが&lt;br&gt;大好き&lt;br&gt;&lt;br&gt;好きな話題なら&lt;br&gt;猶更" style="rounded=1;whiteSpace=wrap;html=1;shadow=0;labelBackgroundColor=none;strokeColor=none;strokeWidth=3;fillColor=#FCAD90;fontFamily=Helvetica;fontSize=14;fontColor=#FFFFFF;align=center;spacing=5;arcSize=7;perimeterSpacing=2;" parent="mkrGKO67qtOmYXRXXm3Z-5" vertex="1">
          <mxGeometry x="10" y="32" width="150" height="148" as="geometry" />
        </mxCell>
        <mxCell id="mkrGKO67qtOmYXRXXm3Z-8" value="我々はしゃべらない&lt;br&gt;質問は短く" style="rounded=1;whiteSpace=wrap;html=1;shadow=0;labelBackgroundColor=none;strokeColor=none;strokeWidth=3;fillColor=#e85642;fontFamily=Helvetica;fontSize=14;fontColor=#FFFFFF;align=center;spacing=5;fontStyle=1;arcSize=7;perimeterSpacing=2;" parent="mkrGKO67qtOmYXRXXm3Z-5" vertex="1">
          <mxGeometry x="10" y="214.5" width="150" height="60" as="geometry" />
        </mxCell>
        <mxCell id="z5LlWfboSo2KKEyXTuNz-1" value="好感度向上" style="rounded=1;whiteSpace=wrap;html=1;shadow=0;labelBackgroundColor=none;strokeColor=none;strokeWidth=3;fillColor=#e85642;fontFamily=Helvetica;fontSize=14;fontColor=#FFFFFF;align=center;spacing=5;fontStyle=1;arcSize=7;perimeterSpacing=2;" parent="1" vertex="1">
          <mxGeometry x="470" y="750" width="150" height="60" as="geometry" />
        </mxCell>
        <mxCell id="T711w-2XX5eHILSjD2_w-1" value="徹底準備" style="rounded=1;fillColor=#109e81;strokeColor=none;shadow=0;gradientColor=none;fontStyle=1;fontColor=#FFFFFF;fontSize=14;" parent="1" vertex="1">
          <mxGeometry x="70" y="585" width="170" height="70" as="geometry" />
        </mxCell>
      </root>
    </mxGraphModel>
  </diagram>
  <diagram id="MMm-JR_BAbhxXwguLolL" name="20231127なぜ開発標準化するか">
    <mxGraphModel dx="1674" dy="828" grid="1" gridSize="10" guides="1" tooltips="1" connect="1" arrows="1" fold="1" page="1" pageScale="1" pageWidth="827" pageHeight="1169" math="0" shadow="0">
      <root>
        <mxCell id="0" />
        <mxCell id="1" parent="0" />
        <mxCell id="9o02hD-QlqM3LCHDQ4z4-1" value="あいまいさ回避(言語)" style="swimlane;whiteSpace=wrap;html=1;" parent="1" vertex="1">
          <mxGeometry x="40" y="40" width="380" height="279.5" as="geometry" />
        </mxCell>
        <mxCell id="9o02hD-QlqM3LCHDQ4z4-2" value="「確定演出」&lt;br&gt;「100%」&lt;br&gt;変革" style="rounded=1;whiteSpace=wrap;html=1;shadow=0;labelBackgroundColor=none;strokeColor=none;strokeWidth=3;fillColor=#F08705;fontFamily=Helvetica;fontSize=14;fontColor=#FFFFFF;align=center;spacing=5;fontStyle=1;arcSize=7;perimeterSpacing=2;" parent="9o02hD-QlqM3LCHDQ4z4-1" vertex="1">
          <mxGeometry x="10" y="213" width="150" height="60" as="geometry" />
        </mxCell>
        <mxCell id="9o02hD-QlqM3LCHDQ4z4-3" style="edgeStyle=orthogonalEdgeStyle;rounded=0;orthogonalLoop=1;jettySize=auto;html=1;" parent="9o02hD-QlqM3LCHDQ4z4-1" source="9o02hD-QlqM3LCHDQ4z4-4" target="9o02hD-QlqM3LCHDQ4z4-2" edge="1">
          <mxGeometry relative="1" as="geometry" />
        </mxCell>
        <mxCell id="9o02hD-QlqM3LCHDQ4z4-4" value="「不明です」&lt;br&gt;「30%ぐらいです」&lt;br&gt;現状維持" style="rounded=1;whiteSpace=wrap;html=1;shadow=0;labelBackgroundColor=none;strokeColor=none;strokeWidth=3;fillColor=#1699d3;fontFamily=Helvetica;fontSize=14;fontColor=#FFFFFF;align=center;spacing=5;fontStyle=1;arcSize=7;perimeterSpacing=2;" parent="9o02hD-QlqM3LCHDQ4z4-1" vertex="1">
          <mxGeometry x="219" y="213" width="150" height="60" as="geometry" />
        </mxCell>
        <mxCell id="9o02hD-QlqM3LCHDQ4z4-5" style="edgeStyle=orthogonalEdgeStyle;rounded=0;orthogonalLoop=1;jettySize=auto;html=1;entryX=0;entryY=0.5;entryDx=0;entryDy=0;" parent="9o02hD-QlqM3LCHDQ4z4-1" source="9o02hD-QlqM3LCHDQ4z4-2" target="9o02hD-QlqM3LCHDQ4z4-4" edge="1">
          <mxGeometry relative="1" as="geometry" />
        </mxCell>
        <mxCell id="9o02hD-QlqM3LCHDQ4z4-6" style="edgeStyle=orthogonalEdgeStyle;rounded=0;orthogonalLoop=1;jettySize=auto;html=1;" parent="9o02hD-QlqM3LCHDQ4z4-1" source="9o02hD-QlqM3LCHDQ4z4-7" target="9o02hD-QlqM3LCHDQ4z4-2" edge="1">
          <mxGeometry relative="1" as="geometry" />
        </mxCell>
        <mxCell id="9o02hD-QlqM3LCHDQ4z4-7" value="癌の外科手術の効果について死亡率の代わりに生存率が示された場合、&lt;br style=&quot;border-color: var(--border-color);&quot;&gt;医師が手術を選択する割合は34%増加した&lt;br style=&quot;border-color: var(--border-color);&quot;&gt;McNeil 1982" style="rounded=1;whiteSpace=wrap;html=1;shadow=0;labelBackgroundColor=none;strokeColor=none;strokeWidth=3;fillColor=#f5af58;fontFamily=Helvetica;fontSize=14;fontColor=#FFFFFF;align=center;spacing=5;arcSize=7;perimeterSpacing=2;" parent="9o02hD-QlqM3LCHDQ4z4-1" vertex="1">
          <mxGeometry x="10" y="34" width="150" height="148" as="geometry" />
        </mxCell>
        <mxCell id="9o02hD-QlqM3LCHDQ4z4-8" style="edgeStyle=orthogonalEdgeStyle;rounded=0;orthogonalLoop=1;jettySize=auto;html=1;entryX=0.5;entryY=0;entryDx=0;entryDy=0;" parent="9o02hD-QlqM3LCHDQ4z4-1" source="9o02hD-QlqM3LCHDQ4z4-9" target="9o02hD-QlqM3LCHDQ4z4-4" edge="1">
          <mxGeometry relative="1" as="geometry" />
        </mxCell>
        <mxCell id="9o02hD-QlqM3LCHDQ4z4-9" value="結果がどうなるか&lt;br&gt;見込みがはっきりしない行動を本能的に心地悪く感じること" style="rounded=1;whiteSpace=wrap;html=1;shadow=0;labelBackgroundColor=none;strokeColor=none;strokeWidth=3;fillColor=#64bbe2;fontFamily=Helvetica;fontSize=14;fontColor=#FFFFFF;align=center;spacing=5;arcSize=7;perimeterSpacing=2;" parent="9o02hD-QlqM3LCHDQ4z4-1" vertex="1">
          <mxGeometry x="219" y="33" width="150" height="149.5" as="geometry" />
        </mxCell>
        <mxCell id="9o02hD-QlqM3LCHDQ4z4-10" value="言語" style="text;html=1;strokeColor=none;fillColor=none;align=center;verticalAlign=middle;whiteSpace=wrap;rounded=0;" parent="9o02hD-QlqM3LCHDQ4z4-1" vertex="1">
          <mxGeometry x="160" y="213" width="60" height="30" as="geometry" />
        </mxCell>
        <mxCell id="H1s2IMJ_Hr150T1ald7i-12" style="edgeStyle=orthogonalEdgeStyle;rounded=0;orthogonalLoop=1;jettySize=auto;html=1;entryX=0.5;entryY=0;entryDx=0;entryDy=0;" parent="1" source="L4Bvw4ID8PA531LlE-iW-1" target="W7Z_hGUUQag5J88m26aB-2" edge="1">
          <mxGeometry relative="1" as="geometry" />
        </mxCell>
        <mxCell id="L4Bvw4ID8PA531LlE-iW-1" value="威厳(ゆっくりしゃべる)" style="swimlane;whiteSpace=wrap;html=1;" parent="1" vertex="1">
          <mxGeometry x="470" y="210" width="170" height="280" as="geometry" />
        </mxCell>
        <mxCell id="L4Bvw4ID8PA531LlE-iW-2" style="edgeStyle=orthogonalEdgeStyle;rounded=0;orthogonalLoop=1;jettySize=auto;html=1;entryX=0.5;entryY=0;entryDx=0;entryDy=0;" parent="L4Bvw4ID8PA531LlE-iW-1" source="L4Bvw4ID8PA531LlE-iW-3" target="L4Bvw4ID8PA531LlE-iW-4" edge="1">
          <mxGeometry relative="1" as="geometry" />
        </mxCell>
        <mxCell id="L4Bvw4ID8PA531LlE-iW-3" value="&lt;div&gt;- 「沈黙」を選択 : 誠実性が上がる&lt;/div&gt;&lt;div&gt;- 「多弁」を選択 : 誠実性が下がる&lt;/div&gt;" style="rounded=1;whiteSpace=wrap;html=1;shadow=0;labelBackgroundColor=none;strokeColor=none;strokeWidth=3;fillColor=#FCAD90;fontFamily=Helvetica;fontSize=14;fontColor=#FFFFFF;align=center;spacing=5;arcSize=7;perimeterSpacing=2;" parent="L4Bvw4ID8PA531LlE-iW-1" vertex="1">
          <mxGeometry x="10" y="32" width="150" height="148" as="geometry" />
        </mxCell>
        <mxCell id="L4Bvw4ID8PA531LlE-iW-4" value="＜ゆっくりしゃべる＞&lt;br&gt;誠実性/威厳" style="rounded=1;whiteSpace=wrap;html=1;shadow=0;labelBackgroundColor=none;strokeColor=none;strokeWidth=3;fillColor=#e85642;fontFamily=Helvetica;fontSize=14;fontColor=#FFFFFF;align=center;spacing=5;fontStyle=1;arcSize=7;perimeterSpacing=2;" parent="L4Bvw4ID8PA531LlE-iW-1" vertex="1">
          <mxGeometry x="10" y="214.5" width="150" height="60" as="geometry" />
        </mxCell>
        <mxCell id="W7Z_hGUUQag5J88m26aB-2" value="ジョブチェキでできたことは&lt;br&gt;DODAでもできる&lt;br&gt;" style="rounded=1;whiteSpace=wrap;html=1;shadow=0;labelBackgroundColor=none;strokeColor=none;strokeWidth=3;fillColor=#f5af58;fontFamily=Helvetica;fontSize=14;fontColor=#FFFFFF;align=center;spacing=5;arcSize=7;perimeterSpacing=2;" parent="1" vertex="1">
          <mxGeometry x="50" y="501.5" width="150" height="148" as="geometry" />
        </mxCell>
        <mxCell id="H1s2IMJ_Hr150T1ald7i-13" style="edgeStyle=orthogonalEdgeStyle;rounded=0;orthogonalLoop=1;jettySize=auto;html=1;" parent="1" source="H1s2IMJ_Hr150T1ald7i-2" target="W7Z_hGUUQag5J88m26aB-2" edge="1">
          <mxGeometry relative="1" as="geometry" />
        </mxCell>
        <mxCell id="H1s2IMJ_Hr150T1ald7i-2" value="開発標準化を行わない場合&lt;br&gt;ジョブチェキでできたことが不明瞭になり、&lt;br&gt;次出来る確率が下がってしまう" style="rounded=1;whiteSpace=wrap;html=1;shadow=0;labelBackgroundColor=none;strokeColor=none;strokeWidth=3;fillColor=#64bbe2;fontFamily=Helvetica;fontSize=14;fontColor=#FFFFFF;align=center;spacing=5;arcSize=7;perimeterSpacing=2;" parent="1" vertex="1">
          <mxGeometry x="259" y="501.5" width="150" height="149.5" as="geometry" />
        </mxCell>
        <mxCell id="H1s2IMJ_Hr150T1ald7i-14" style="edgeStyle=orthogonalEdgeStyle;rounded=0;orthogonalLoop=1;jettySize=auto;html=1;" parent="1" source="9o02hD-QlqM3LCHDQ4z4-4" target="H1s2IMJ_Hr150T1ald7i-2" edge="1">
          <mxGeometry relative="1" as="geometry" />
        </mxCell>
        <mxCell id="H1s2IMJ_Hr150T1ald7i-15" style="edgeStyle=orthogonalEdgeStyle;rounded=0;orthogonalLoop=1;jettySize=auto;html=1;" parent="1" source="9o02hD-QlqM3LCHDQ4z4-2" target="W7Z_hGUUQag5J88m26aB-2" edge="1">
          <mxGeometry relative="1" as="geometry" />
        </mxCell>
        <mxCell id="4fN8BRnS76puc3gZDEDw-1" value="反省点&lt;br&gt;文章を前もって&lt;br&gt;準備すること" style="rounded=1;whiteSpace=wrap;html=1;shadow=0;labelBackgroundColor=none;strokeColor=none;strokeWidth=3;fillColor=#2F5B7C;fontFamily=Helvetica;fontSize=16;fontColor=#FFFFFF;align=center;fontStyle=1;spacing=5;arcSize=7;perimeterSpacing=2;" parent="1" vertex="1">
          <mxGeometry x="370" y="710" width="150" height="60" as="geometry" />
        </mxCell>
      </root>
    </mxGraphModel>
  </diagram>
</mxfile>
